<svg viewBox="0 0 488 250" fill="none" xmlns="http://www.w3.org/2000/svg"><g clip-path="url(#a)"><g clip-path="url(#b)"><path opacity=".4" fill="url(#c)" d="M0 0h488v354H0z"/><g opacity=".7" fill="#fff"><path d="M387.122 148.519c-.328-2.448-.438-6.13-.88-8.541C373.733 71.604 319.219 12.051 248.398 9.14 172.51 6.02 107.643 65.08 95.125 139.746c-.353 2.102.15 3.454-.118 5.586l6.365 6.778c.192-2.23-.684-3.806-.396-6.005 9.686-73.984 73.17-132.95 147.133-129.91 68.885 2.832 121.728 62.079 131.949 129.503.371 2.451.408 6.175.658 8.663l6.406-5.842z"/><path fill-rule="evenodd" clip-rule="evenodd" d="M211.523 264.645-19.187 41.101l5.005-5.19 227.361 220.3a33.215 33.215 0 0 1 4.513-8.814l-60.99-60.815 1.088-2.303.001-.001.004-.008.023-.05.099-.218a50.132 50.132 0 0 0 1.528-3.864c.872-2.514 1.6-5.321 1.6-7.44 0-2.332-.736-5.149-1.593-7.569a42.687 42.687 0 0 0-1.14-2.881 30.637 30.637 0 0 0-.368-.81l-.029-.062-.067-.14-.023-.048-.001-.001-.001-.001-1.167-2.342 74.511-73.648 2.477 1.986.004.004.089.065c.095.067.257.18.485.323.457.287 1.169.692 2.112 1.105 1.886.824 4.668 1.667 8.175 1.667 3.507 0 6.29-.843 8.175-1.668a16.286 16.286 0 0 0 2.112-1.104c.228-.143.39-.256.485-.323l.089-.065.004-.004 2.495-2 73.612 73.79-1.361 2.388-.001.001-.001.002v.001l-.001.001-.022.039-.1.185c-.091.171-.227.43-.393.764a35.868 35.868 0 0 0-1.224 2.767c-.919 2.341-1.714 5.128-1.714 7.578 0 2.618.802 5.409 1.706 7.677.442 1.107.883 2.03 1.21 2.669.163.318.297.563.385.722l.097.172.018.031.001.001.001.001.001.002.001.002 1.422 2.382-60.314 61.785a33.229 33.229 0 0 1 3.989 8.06L501.887 35.915l5.012 5.183L276.84 264.642c.048.734.073 1.475.073 2.22 0 18.264-14.617 33.138-32.731 33.138-18.115 0-32.731-14.874-32.731-33.138 0-.744.024-1.484.072-2.217zm54.98-22.02 56.094-57.462c-.287-.614-.6-1.323-.913-2.109-1.06-2.657-2.221-6.427-2.221-10.356 0-3.783 1.169-7.558 2.214-10.221.32-.815.64-1.555.932-2.192L257.061 94.58c-.448.233-.948.474-1.497.714-2.616 1.144-6.379 2.27-11.055 2.27s-8.439-1.126-11.055-2.27a25.165 25.165 0 0 1-1.515-.724l-66.59 65.819c.276.672.582 1.458.889 2.326.944 2.665 2.008 6.409 2.008 9.983 0 3.383-1.072 7.138-2 9.811a57.469 57.469 0 0 1-.928 2.483l57.196 57.032c5.767-5.162 13.348-8.3 21.668-8.3 8.637 0 16.479 3.383 22.321 8.901zm-22.321-1.683c-13.008 0-23.797 9.897-25.341 22.743-.125 1.04-.189 2.1-.189 3.177 0 14.353 11.468 25.92 25.53 25.92 14.062 0 25.53-11.567 25.53-25.92 0-1.077-.065-2.137-.19-3.177-1.544-12.846-12.332-22.743-25.34-22.743z"/><path fill-rule="evenodd" clip-rule="evenodd" d="M497.688 42.763a270.559 270.559 0 0 0-1.807-3.655c-45.045-89.385-138.667-151.82-248.074-153.988-114.539-2.27-214.39 62.145-260.462 156.536-.3.614-.598 1.23-.893 1.848l-6.351-3.055c.506-1.058 1.019-2.112 1.538-3.163C29.182-58.871 131.17-124.255 247.946-121.94c113.451 2.248 210.432 67.79 255.949 161.35l.128.264-6.335 3.089zM244.836 153.996c-7.689 0-14.037 5.782-14.944 13.244a15.2 15.2 0 0 0-.112 1.849c0 8.335 6.741 15.092 15.056 15.092 8.316 0 15.057-6.757 15.057-15.092a15.2 15.2 0 0 0-.112-1.849c-.907-7.462-7.255-13.244-14.945-13.244zm-22.092 12.371c1.342-11.04 10.718-19.589 22.092-19.589 11.374 0 20.751 8.549 22.093 19.589.109.893.164 1.802.164 2.722 0 12.322-9.964 22.311-22.257 22.311-12.292 0-22.257-9.989-22.257-22.311 0-.92.056-1.829.165-2.722z"/></g><path fill="url(#d)" d="M0 135h488v115H0z"/><path fill="url(#e)" d="M0 135h488v115H0z"/></g></g><defs><linearGradient id="d" x1="244" y1="135" x2="244" y2="250" gradientUnits="userSpaceOnUse"><stop stop-color="#fff" stop-opacity="0"/><stop offset="1" stop-color="#fff"/></linearGradient><linearGradient id="e" x1="244" y1="135" x2="244" y2="250" gradientUnits="userSpaceOnUse"><stop stop-color="#fff" stop-opacity="0"/><stop offset="1" stop-color="#fff"/></linearGradient><clipPath id="a"><path fill="#fff" d="M0 0h488v250H0z"/></clipPath><clipPath id="b"><path fill="#fff" d="M0 0h488v351H0z"/></clipPath><radialGradient id="c" cx="0" cy="0" r="1" gradientUnits="userSpaceOnUse" gradientTransform="matrix(487.99956 -2.50707 3.47572 676.54807 0 91.76)"><stop stop-color="#C89B00" stop-opacity=".47"/><stop offset=".33" stop-color="#CFAE00"/><stop offset=".609" stop-color="#CBAB00" stop-opacity=".97"/><stop offset="1" stop-color="#D0AF00" stop-opacity=".59"/></radialGradient></defs></svg>
