<svg viewBox="0 0 488 250" fill="none" xmlns="http://www.w3.org/2000/svg"><g clip-path="url(#a)"><path opacity=".4" fill="url(#b)" d="M0 0h488v354H0z"/><path d="M478.269 134.414c-24.843 13.786-45.207 34.43-58.783 59.553-4.549 8.398-8.188 17.075-11.057 25.893h7.348c2.589-7.698 5.878-15.256 9.797-22.604 22.674-41.918 65.082-69.56 111.479-73.969v-6.928c-20.434 1.749-40.449 7.908-58.784 18.055zM214.793-32h-7.138c7.627 33.17 3.149 68.65-13.647 99.652-25.892 47.867-77.398 77.049-131.143 74.39-5.879-.28-11.757-.98-17.495-1.96l-62.493-33.73v7.907L42.92 146.8l.56.07c6.228 1.12 12.597 1.89 18.965 2.17 2.38.14 4.759.14 7.138.14 24.983 0 49.616-6.439 71.73-18.685 24.843-13.786 45.207-34.43 58.784-59.554C217.452 38.961 222.28 2.361 214.793-32zm263.476 166.414c-24.843 13.786-45.207 34.43-58.783 59.553-4.549 8.398-8.188 17.075-11.057 25.893h7.348c2.589-7.698 5.878-15.256 9.797-22.604 22.674-41.918 65.082-69.56 111.479-73.969v-6.928c-20.434 1.749-40.449 7.908-58.784 18.055zm0 0c-24.843 13.786-45.207 34.43-58.783 59.553-4.549 8.398-8.188 17.075-11.057 25.893h7.348c2.589-7.698 5.878-15.256 9.797-22.604 22.674-41.918 65.082-69.56 111.479-73.969v-6.928c-20.434 1.749-40.449 7.908-58.784 18.055zm-495.392 7.208v6.368l132.893 71.94h11.757l-144.65-78.308zm517.016 37.859-6.718 12.387c-16.445-6.788-35.76-.14-44.437 15.885-2.1 3.919-3.429 8.048-3.919 12.247h7.068a28.432 28.432 0 0 1 3.009-8.888c6.858-12.596 21.904-17.915 34.92-12.946l-11.827 21.764h7.978l16.796-31.001 34.36 18.614v-7.907l-37.23-20.155zm-21.624-45.067c-24.843 13.786-45.207 34.43-58.783 59.553-4.549 8.398-8.188 17.075-11.057 25.893h7.348c2.589-7.698 5.878-15.256 9.797-22.604 22.674-41.918 65.082-69.56 111.479-73.969v-6.928c-20.434 1.749-40.449 7.908-58.784 18.055zM361.402-32h-11.757l34.431 18.685-52.906 97.693c-24.983-11.477-55.005-1.68-68.301 22.813-13.296 24.494-5.038 55.005 18.265 69.631l-23.233 43.108h7.977l21.554-39.819c7.068 3.219 14.486 4.759 21.834 4.759 18.755 0 36.88-10.007 46.397-27.573 6.719-12.386 8.188-26.592 4.129-40.098-3.639-12.387-11.547-22.744-22.394-29.532l52.906-97.693 146.819 79.498v-6.368L361.402-32zm-76.839 202.594c-19.874-12.807-26.872-39.049-15.396-60.114 8.258-15.255 24.004-23.933 40.239-23.933 6.229 0 12.527 1.26 18.545 3.989l-43.388 80.058zm68.581-51.366c3.499 11.687 2.17 24.073-3.639 34.78-11.407 21.134-37.23 29.602-58.784 19.945l43.388-80.128c9.168 5.948 15.886 14.836 19.035 25.403zm125.125 15.186c-24.843 13.786-45.207 34.43-58.783 59.553-4.549 8.398-8.188 17.075-11.057 25.893h7.348c2.589-7.698 5.878-15.256 9.797-22.604 22.674-41.918 65.082-69.56 111.479-73.969v-6.928c-20.434 1.749-40.449 7.908-58.784 18.055zm0 0c-24.843 13.786-45.207 34.43-58.783 59.553-4.549 8.398-8.188 17.075-11.057 25.893h7.348c2.589-7.698 5.878-15.256 9.797-22.604 22.674-41.918 65.082-69.56 111.479-73.969v-6.928c-20.434 1.749-40.449 7.908-58.784 18.055zM159.858 11.388 166.576-1 109.192-32H94.496l62.563 33.87-40.169 74.18L12.759 19.716 40.75-32h-7.978L3.241 22.515l-20.364 37.65V71.92L8.21 25.174l111.479 60.393 6.718-12.386c4.339 1.75 8.888 2.659 13.366 2.659 12.527 0 24.704-6.718 31.142-18.475 8.607-16.095 3.569-35.83-11.057-45.977zm4.828 42.548c-6.788 12.597-21.903 17.915-34.92 12.946l26.733-49.336c11.267 8.258 15.046 23.794 8.187 36.39zm313.583 80.478c-24.843 13.786-45.207 34.43-58.783 59.553-4.549 8.398-8.188 17.075-11.057 25.893h7.348c2.589-7.698 5.878-15.256 9.797-22.604 22.674-41.918 65.082-69.56 111.479-73.969v-6.928c-20.434 1.749-40.449 7.908-58.784 18.055zm0 0c-24.843 13.786-45.207 34.43-58.783 59.553-4.549 8.398-8.188 17.075-11.057 25.893h7.348c2.589-7.698 5.878-15.256 9.797-22.604 22.674-41.918 65.082-69.56 111.479-73.969v-6.928c-20.434 1.749-40.449 7.908-58.784 18.055zM214.793-32h-7.138c7.627 33.17 3.149 68.65-13.647 99.652-25.892 47.867-77.398 77.049-131.143 74.39-5.879-.28-11.757-.98-17.495-1.96l-62.493-33.73v7.907L42.92 146.8l.56.07c6.228 1.12 12.597 1.89 18.965 2.17 2.38.14 4.759.14 7.138.14 24.983 0 49.616-6.439 71.73-18.685 24.843-13.786 45.207-34.43 58.784-59.554C217.452 38.961 222.28 2.361 214.793-32zm263.476 166.414c-24.843 13.786-45.207 34.43-58.783 59.553-4.549 8.398-8.188 17.075-11.057 25.893h7.348c2.589-7.698 5.878-15.256 9.797-22.604 22.674-41.918 65.082-69.56 111.479-73.969v-6.928c-20.434 1.749-40.449 7.908-58.784 18.055zM214.793-32h-7.138c7.627 33.17 3.149 68.65-13.647 99.652-25.892 47.867-77.398 77.049-131.143 74.39-5.879-.28-11.757-.98-17.495-1.96l-62.493-33.73v7.907L42.92 146.8l.56.07c6.228 1.12 12.597 1.89 18.965 2.17 2.38.14 4.759.14 7.138.14 24.983 0 49.616-6.439 71.73-18.685 24.843-13.786 45.207-34.43 58.784-59.554C217.452 38.961 222.28 2.361 214.793-32z" fill="#fff" fill-opacity=".8"/><path fill="url(#c)" d="M0 135h488v115H0z"/><path fill="url(#d)" d="M0 135h488v115H0z"/></g><defs><linearGradient id="c" x1="244" y1="135" x2="244" y2="250" gradientUnits="userSpaceOnUse"><stop stop-color="#fff" stop-opacity="0"/><stop offset="1" stop-color="#fff"/></linearGradient><linearGradient id="d" x1="244" y1="135" x2="244" y2="250" gradientUnits="userSpaceOnUse"><stop stop-color="#fff" stop-opacity="0"/><stop offset="1" stop-color="#fff"/></linearGradient><radialGradient id="b" cx="0" cy="0" r="1" gradientUnits="userSpaceOnUse" gradientTransform="matrix(487.99956 -2.50707 3.47572 676.54807 0 91.76)"><stop stop-color="#F6BE96"/><stop offset=".432" stop-color="#ED731C"/><stop offset=".609" stop-color="#ED731C" stop-opacity=".81"/><stop offset="1" stop-color="#F6BE96"/></radialGradient><clipPath id="a"><path fill="#fff" d="M0 0h488v250H0z"/></clipPath></defs></svg>
