<svg xmlns="http://www.w3.org/2000/svg" width="488" height="250" fill="none"><style><![CDATA[.B{fill:#fff}.C{fill-opacity:.6}.D{fill-rule:evenodd}]]></style><g clip-path="url(#C)"><g clip-path="url(#D)"><path opacity=".4" fill="url(#A)" d="M0 0h488v354H0z"/><g class="B D C"><path d="M860.091 167.333V11.529h8.249v155.804h-8.249zm-277.166-32.15V-20.621h8.249v155.804h-8.249z"/></g><path d="M752.393 455.202L-44 300.744V366.8c0 .828.576 1.544 1.385 1.722L752.393 543v-87.798z" class="B C"/><path d="M946 187.745L752.393 455.202V543l193.31-288.962a1.77 1.77 0 0 0 .297-.98v-65.313zM686.502 369.03h-13.015v-53.654h13.015v53.654z" class="B C"/><path d="M670.599 312.491h18.79v32.595 26.829h-18.79v-30.101-29.323zm5.775 5.77v47.884h7.241v-47.884h-7.241z" class="B C D"/><path d="M906.14 190.185h-13.015v-53.654h13.015v53.654z" class="B C"/><path d="M890.237 133.645h18.79v49.539 9.886h-18.79v-12.204-47.221zm5.775 5.771v47.883h7.241v-47.883h-7.241z" class="B C D"/><path d="M652.335 174.74l40.673 13.007v154.459l-40.673-8.943V174.74z" class="B C"/><path d="M693.008 342.206V187.747l14.643-21.137v155.272l-14.643 20.324z" class="B C"/><path d="M693.008 187.747l-40.673-13.007 55.316-8.13-14.643 21.137z" class="B C"/><path d="M710.538 163.27l-1.424.209-59.666 8.769v1.21 8.311 43.379 8.329 43.03 8.347 44.909 5.82l43.924 9.657.87.191.743-1.031 15.553-21.587V163.27zm-9.046 7.162l-9.64 13.916-26.779-8.564 36.419-5.352zm-46.27 8.26l34.899 11.161v148.764l-34.899-7.673V178.692zm40.674 154.568V188.648l8.868-12.801v145.104l-8.868 12.309z" class="B C D"/><path d="M865.465 10.922h40.673v132.29c0 1.948-.862 3.796-2.354 5.049l-38.319 32.167V10.922z" class="B C"/><path d="M874.037 1.776l-11.46 7.597V186.62l4.156-3.488 5.364-4.504 33.544-28.157a9.48 9.48 0 0 0 3.384-7.259V8.541l-34.988-6.765zm29.214 12.031v129.405a3.71 3.71 0 0 1-1.324 2.84l-33.575 28.185V13.807h34.899zm-28.211-5.77h.976l-.756-.146-.22.146z" class="B C D"/><path d="M33.899 94.803l20.085-7.093v-8.742L19.378 91.196l.16 10.083 34.447 4.401v-8.311l-20.085-2.567z" class="B C"/><path d="M56.871 72.706H16.197l.314 19.806c.419-.34.913-.623 1.486-.826l1.381-.489-.247-15.605h34.853v3.377l2.887-1.018v-5.244zM32.834 226.254l2.887.492v-7.921l-2.887 1.184v6.245zm-5.394-43.916c.251 1.952 1.732 3.883 4.148 4.267l22.396 3.562v-8.348l-8.968-1.426 8.968-3.437v-8.827l-23.427 8.99c-2.378.915-3.372 3.233-3.117 5.219zm77.024-78.518l-16.569 6.193 17.546 2.242 16.601-6.189-17.578-2.246z" class="B C"/><path d="M53.984 176.956l-8.968 3.437 8.968 1.426v-4.863zm310.014-78.665l23.562-8.477-6.489-.732-17.073 6.142v3.067z" class="B C"/><path d="M376.494 96.862l15.162-5.455v-1.131l-4.096-.462-23.562 8.477v2.581l12.182-4.045.314.035zm-25.512-.252V85.76v-2.885h-2.887v14.736l2.887-1.001z" class="B C"/><path d="M358.224 85.76h-7.242v10.85l7.242-2.485V85.76zM158.459 49.664h-8.249v4.26l8.249-2.88v-1.38zM280.53 7.035l-8.249 3.396v1.221l8.249-2.821V7.035z" class="B C"/><path d="M59.758 76.932v8.742l90.452-31.749v-4.26h8.249v1.38l113.822-39.392v-1.221l8.249-3.396v1.797l64.678-21.826v-8.685L59.758 76.932z" class="B C"/><path d="M391.656-39.403L380.196-47l-34.988 6.765v18.555 8.686 29.866L280.53 39.391V8.832l-8.249 2.821v30.678L158.459 83.766V51.044l-8.249 2.88v32.891l-45.746 17.004-44.706-5.713V85.673v-8.742-5.775l-9.632-6.385c-1.172-.777-2.602-1.062-3.982-.795l-32.872 6.356 2.435 153.741c.041 2.614 1.715 4.877 4.111 5.728v34.806h8.408 10.382v-5.127-26.39l21.15 3.598v-1.233l20.579 3.583 590.262 102.776v30.101h18.79v-26.829l1.693.294c.774.135 1.558.082 2.29-.14l.87.191.743-1.031a5.06 5.06 0 0 0 .336-.288l171.412-160.98 5.364-4.504-.503-.062 24.683-23.18c3.074-2.887 1.357-8.047-2.835-8.519l-28.058-3.165 33.093-28.838c3.257-2.838 1.566-8.192-2.731-8.647l-34.082-3.607 38.258-31.557c3.39-2.796 1.722-8.292-2.651-8.735l-37.479-3.803 47.147-36.093c3.603-2.758 1.902-8.503-2.623-8.857l-512.66-40.182v-12.785zM122.042 106.066l-17.578-2.246-16.569 6.193-28.137-3.595v14.153l28.137-10.558 17.546 2.242-45.683 17.125v10.766l49.137 7.083 41.315-15.579v-13.674l-44.769-5.721 16.601-6.189zm0 0l28.168-10.459v14.058l-28.168-3.599zm768.195 74.8v12.204h18.79v-9.886l-18.79-2.318zm-4.806-26.607l-24.484 22.994-29.84-3.681 25.848-22.524 28.476 3.211zM59.758 227.087l33.264 5.792 556.426 96.884v-44.909L150.21 205.468l-42.829-6.81-47.623 19.26v9.169zm98.701-28.655l4.974.791 486.015 77.284v-43.03l-427.051-61.558-35.057-5.054-28.881 11.398-8.249 3.274-27.93 11.142 27.93 4.442 8.249 1.311zm-8.249-25.766l-43.789 17.492-46.663-7.42v-7.991l50.068-19.055 40.384 5.821v11.153zm8.249-3.271l12.407-4.904-12.407-1.789v6.693zm0-15.022l27.897 4.022 69.527-26.916-60.849-7.775-36.575 13.657v17.012zm0-61.818l113.822-41.47v35.485l-78.217 28.698-35.605-4.55V92.555zM280.53 48.142v35.454l64.678-22.772V25.576L280.53 48.142zm-68.829 69.381l60.58-22.186v29.927l-60.58-7.741zm68.829-25.165v29.803l64.678-23.544V79.99 69.538l-64.678 22.82zm-77.648 68.419l69.399-26.702.99-.374 7.259.927 21.074 2.693 347.844 44.448v43.379l-413.076-59.544-33.49-4.827zm-44.423-32.221l18.987-7.1-18.987-2.426v9.526zm-8.249 11.901v12.727l-24.438-3.523 24.438-9.204zm695.632 9.337l-25.73 22.422-37.261-4.597 26.587-21.93 36.404 4.105zm-47.804-5.391l-26.46 21.826-45.206-5.577 27.702-21.207 43.964 4.958zM289.784 127.5l27.371 3.498 28.053 3.584 2.887.369 12.348 1.578 3.555.454 285.45 36.475v-1.21l59.666-8.769 5.575-4.268 27.562-21.1-365.757-41.249 15.162-5.455v-1.131l360.04 40.605 36.289-27.78L391.656 61.15v29.127l-4.096-.462-6.489-.732-17.073 6.142v3.067 2.581l12.182-4.045.314.035-12.496 4.495-2.887 1.039-2.887 1.039-7.242 2.605-2.887 1.039-2.887 1.038v-.765L289.784 127.5zm69.351-11.993c.244-.079.483-.097.738-.066l-.207-.025c-.12-.015-.242-.003-.356.034l-.175.057zm32.521-96.209V52.86l405.842 42.958 40.76-31.203-446.602-45.317zM358.224 85.76v8.365l-7.242 2.485-2.887 1.001V82.875h2.887v2.885h7.242zm33.432-74.748v-29.361l503.432 39.459-47.273 36.19-456.159-46.287zM378.217-40.74h.977l-.221-.146-.756.146zM59.758 148.475l33.222 4.789-33.222 12.656v-17.445zm0 60.542v-17.932l31.798 5.056-31.798 12.876zm827.596-95.398l-34.597-3.662-34.472 28.434 35.986 4.058 33.083-28.83zm-80.469 23.486l34.387-28.364-41.37-4.379-36.383 27.852 43.366 4.891zm2.53-40.026l40.764 4.315 38.398-31.673-38.342-3.891-40.82 31.249zM53.984 176.956v4.863 8.348l-22.396-3.562c-2.416-.384-3.898-2.315-4.148-4.267-.255-1.986.738-4.304 3.117-5.219l23.428-8.99v8.827zm0-89.246l-20.085 7.093 20.085 2.567v8.311l-34.446-4.401-.16-10.083 34.606-12.228v8.742zm2.887-9.76l-2.887 1.018v-3.377H19.131l.247 15.605-1.381.489c-.573.203-1.067.486-1.486.826l-.314-19.806h40.674v5.244zm-10.552-8.13l.756-.146.221.146h-.976zM32.834 226.254l2.887.492v-7.921l-2.887 1.184v6.245z" class="B C D"/></g><path fill="url(#B)" d="M0 135h488v115H0z"/><path fill="url(#B)" d="M0 135h488v115H0z"/></g><defs><radialGradient id="A" cx="0" cy="0" r="1" gradientUnits="userSpaceOnUse" gradientTransform="translate(475.5 69.5) rotate(179.878) scale(470.001 647.911)"><stop stop-color="#0c467c" stop-opacity=".79"/><stop offset=".315" stop-color="#0c467c"/><stop offset=".65" stop-color="#0c467c"/><stop offset=".991" stop-color="#0c467c" stop-opacity=".79"/></radialGradient><linearGradient id="B" x1="244" y1="135" x2="244" y2="250" gradientUnits="userSpaceOnUse"><stop stop-color="#fff" stop-opacity="0"/><stop offset="1" stop-color="#fff"/></linearGradient><clipPath id="C"><path d="M0 0h488v250H0z" class="B"/></clipPath><clipPath id="D"><path d="M0 0h488v351H0z" class="B"/></clipPath></defs></svg>
