<svg viewBox="0 0 488 250" fill="none" xmlns="http://www.w3.org/2000/svg"><g clip-path="url(#a)"><path opacity=".4" fill="url(#b)" d="M0 0h488v354H0z"/><path fill-rule="evenodd" clip-rule="evenodd" d="M-22.327-17.909-1.2-27.316l-7.349-29.046 26.236-14.654-.828-1.86 15.534-6.915 3.45 7.75 4.971-2.214-2.76-6.2 12.427-5.533-.966-2.17 2.174-.968-.552-1.24 5.904-2.629.552 1.24L74.992-99.5l4.279 9.61 1.864-.83-1.932-4.34 49.087-21.854 9.248 20.77 1.243-.553-.828-1.86 47.535-21.164-.518-5.342-9.938-22.321 34.797-15.492 1.104 2.48 2.796-1.244.208-1.208 22.679-10.098 1.519 3.411 1.243-.554-1.519-3.41 29.204-13.002-.69-1.551 23.923-10.651 7.454 16.742-4.971 2.213 1.656 3.72 39.768-17.706 14.118-2.57 6.488 14.571 3.417-1.521-.552-1.241 18.952-8.438 19.6 44.024 6.835-3.043 7.73 17.361 2.796-1.244 5.935 13.331-2.796 1.245 9.111 20.462-2.796 1.245 1.932 4.34-1.553.692 25.121 56.424 1.554-.692 10.214 22.942-1.553.692 9.938 22.322-37.903 16.876 11.319 25.422 6.835-3.043 7.039 15.81-3.418 1.523.967 2.17 3.417-1.522 9.111 20.462-3.418 1.521 2.898 6.51 2.797-1.244 7.592 17.051-2.935.936.69 1.55-30.757 13.694-.966-2.17-.932.415 1.656 3.72-29.204 13.003-1.657-3.721-5.902 2.628.966 2.171-11.496 5.118-.966-2.17-2.796 1.244.966 2.171-23.923 10.651-9.11-20.462-9.01 4.011 9.8 22.013-28.893 12.864-5.143-4.026-3.383 4.107-.173 3.792-25.306 30.955-3.418 1.522-4.35 5.28 4.694 3.854-72.938 7.584-.552-1.239-6.835 3.043-35.481-29.524-28.273 12.587-14.01-29.796 32.001-14.247-44.309-99.518 8.078-3.597-2.658-1.788-30.447 13.556-1.932-4.34-12.428 5.532 1.933 4.34-28.894 12.865L38.59 54.527l.38-1.655-5.903 2.628-8.696-19.532 3.28-5.175-.828-1.86-1.209-.205-3.45-7.75.655-1.036-.966-2.17-26.097 11.62-1.036-.654-19.187-39.75-1.864.83-.552-1.24 3.073-7.313.932-.414.552 1.24zM44.92-64.195l1.656 3.72 38.215-17.014-1.38-3.1 1.863-.83 1.933 4.34 29.825-13.279 1.519 3.411-1.553.692 9.8 22.011 6.731 2.576L149.996-69l-8.145-18.292.622-.277 1.104 2.48 24.855-11.066.276.62-24.854 11.067 6.763 15.19 10.252-4.564 1.347.515 73.943-32.921-11.595-26.043-1.657-.376-5.142-10.713.932-.415-1.829-3.272 2.175-.968 1.035.654 23.612-10.513-1.967-3.582 1.243-.554 1.415 2.343 21.126-9.406.552 1.24 18.641-8.3 1.657 3.72-31.069 13.832-8.181 5.872 4.831 10.851 6.489-2.146 14.53 25.107-8.389 3.735 3.451 7.75 8.388-3.734 2.761 6.2-9.01 4.012 8.144 18.29 1.657.378 8.558 19.222-14.327 17.152-1.243.553-1.346-.516-10.253 4.565-.207 1.207-3.107 1.384-.276-.62-25.476 11.342.276.62-18.641 8.3-16.705-14.109-3.865-8.68 1.243-.554-2.071-4.65-.621.276-14.252-31.174-48.777 21.717-2.761-6.2-.621.276-8.627-17.705-28.584 12.726-4.14-9.3-41.632 18.535-1.933-4.34 4.35-1.937zm-25.48 38.091 9.943-4.426 1.104 2.48-7.457 3.32 3.313 7.44-2.486 1.107-4.416-9.92zm39.147-17.429 4.417 9.92-2.486 1.107-3.313-7.44-7.456 3.32-1.104-2.48 9.942-4.427zM97.11-47.31l4.972-2.213 3.036 6.82-4.971 2.214-3.037-6.821zm-59.172 62.75 9.942-4.426-1.104-2.48-7.457 3.32-3.313-7.441-2.485 1.107 4.417 9.92zm34.729-27.35-2.486 1.107 3.313 7.441-7.456 3.32 1.105 2.48 9.941-4.426-4.417-9.921zm29.37 36.703-13.98 6.224.552 1.24 3.107-1.383 3.588 8.061 11.459 9.015 8.699-3.874-.276-.62 6.835-3.043.276.62 9.321-4.15 10.766 24.183-1.588 1.45.276.62 11.807-5.256 3.865 8.68 9.32-4.15 3.865 8.681 7.457-3.32-3.589-8.06 6.213-2.767-2.485-5.58-1.863.83.276.62-1.864.83-.277-.62-2.485 1.106-15.183-34.103 6.834-3.043-.276-.62-2.002.52-16.978-38.133 28.272-12.588-1.656-3.72.311-.139-1.933-4.34-.311.138-1.104-2.48-36.661 16.322-13.566 3.812-8.388 3.735 15.735 35.342-8.388 3.735.276.62-13.981 6.225-.276-.62zm88.329 25.311-4.141-9.3-.621.276 20.981 47.125-5.281 2.35-.45 3.173 3.729-1.66 2.76 6.2 15.845-7.054 2.623 5.89 7.456-3.32-2.623-5.89 16.467-7.331-.966-2.17-9.631 4.288-5.798-13.022 4.039-1.797-2.485-5.581-4.038 1.798-10.491-23.562 9.01-4.012-.966-2.17-35.419 15.77zm-19.235 64.658-1.828-9.959 13.67-6.086-7.454-16.741.622-.277 7.454 16.741 4.971-2.213 2.968 1.65-3.728 1.66 14.355 32.243 10.253-4.565-2.761-6.2 5.903-2.628 2.76 6.2 23.612-10.513 11.702.363 4.003 8.99-3.107 1.384 18.635 41.853 3.107-1.383 3.727 8.371-6.146 7.937-10.253 4.564-.966-2.17-40.388 17.982-.967-2.17 1.899-1.589-3.037-6.82-7.283-.472-9.662-21.702-2.175.969-9.387-21.082 8.078-3.597-5.659-12.711-12.428 5.533-10.49-23.562zm-98.06-55.527L57.85 66.012 50.671 49.89l-1.657-.376-.414-.93 32-14.248.552 1.24-5.202 2.317 3.727 8.37-10.332 4.6 3.727 8.371zm97.799-55.43-.518 1.346 7.591 17.05-.621.277-4.417-9.92-3.107 1.383-.276-.62 1.865-.83-8.282-18.602 15.534-6.916-4.417-9.921 2.485-1.107 8.282 18.602 2.554.72.69 1.55-3.417 1.522-.898-.343-13.048 5.81zm224.665 112.461 2.761 6.2 6.213-2.766-2.761-6.201-6.213 2.767zm24.854-11.066-6.213 2.766 2.76 6.201 6.214-2.767-2.761-6.2zm18.641-8.3-6.213 2.767 2.761 6.2 6.213-2.766-2.761-6.2zM307.381 67.101l4.555 10.23-7.145 3.182-.69-1.55-13.049 5.81.69 1.55-8.078 3.596-1.001 1.932-10.214-22.942-11.807 5.256-.966-2.17 9.01-4.012-12.699-28.522-5.903 2.628-5.935-13.331-3.107 1.383-1.104-2.48 19.262-8.576 6.211 13.951 92.273-41.083-35.888-80.606.311-.138-1.105-2.48-.31.138-1.381-3.1-7.145 3.18-.552-1.24-2.486 1.107-2.209-1.617-15.874-35.653-.621.277-.69-1.55 6.25-13.556.586.482 1.864-.83-.276-.62 13.67-6.086 1.174.963 13.981-6.224 1.933-2.347 9.01-4.012 12.702 5.118 3.727 8.371 5.903-2.628 4.417 9.921-2.486 1.106 9.386 21.082-1.242.553 9.248 20.772 3.728-1.66 30.644 68.826-2.348 4.76-36.351 16.184 4.279 9.61-12.116 5.395 12.975 29.143-2.485 1.107 5.935 13.331-5.282 2.352-5.521-12.402-21.748 9.683-.518 1.345-4.971 2.213-.828-1.86-37.593 16.738zm76.037 54.558 1.554-.691 2.76 6.2-1.553.692 2.484 5.581-14.291 6.363-7.316-16.432 5.282-2.352-8.834-19.841-10.253 4.565-6.764-15.192 13.049-5.81-5.659-12.71 6.214-2.767 5.659 12.711 21.748-9.683.207-1.206 4.66-2.075 1.657.377 28.894-12.865-20.567-46.193 43.185-19.228 4.141 9.3-37.593 16.738 25.398 57.046-13.981 6.224-.966-2.17-13.049 5.81.966 2.17-4.97 2.213-.967-2.17-13.048 5.809.966 2.17-17.709 7.885 8.696 19.531z" fill="#fff" fill-opacity=".2"/><mask id="c" style="mask-type:alpha" maskUnits="userSpaceOnUse" x="94" y="-114" width="138" height="150"><path d="m185.682 34.333 43.45-112.705 2.291.875-43.45 112.706-2.291-.876zm-4.581-1.752 43.45-112.705 2.291.875-43.45 112.706-2.291-.876zm-4.583-1.751 43.45-112.705 2.291.875-43.45 112.706-2.291-.876zm-4.582-1.751 43.45-112.705 2.291.875-43.45 112.706-2.291-.876zm-4.582-1.752 43.45-112.705 2.291.875-43.45 112.705-2.291-.875zm-4.582-1.751 43.45-112.705 2.291.875-43.45 112.706-2.291-.876zm-4.581-1.752 43.45-112.705 2.291.875L160.482 24.7l-2.291-.876zm-4.582-1.75 43.45-112.706 2.291.876L155.9 22.949l-2.291-.876zm-4.582-1.752 43.45-112.705 2.291.875-43.45 112.706-2.291-.876zm-4.582-1.751 43.45-112.705 2.291.875-43.449 112.705-2.292-.875zm-4.582-1.752 43.45-112.705 2.291.875-43.45 112.705-2.291-.875zm-4.582-1.75 43.45-112.705 2.291.875-43.45 112.706-2.291-.876zm-4.583-1.752 43.451-112.705 2.29.875L132.99 14.193l-2.292-.876zm-4.581-1.751 43.45-112.705 2.291.875-43.45 112.705-2.291-.875zm-4.582-1.752 43.45-112.705 2.291.876-43.45 112.705-2.291-.876zm-4.582-1.751 43.45-112.705 2.291.875L119.245 8.938l-2.292-.875zm-4.582-1.751 43.45-112.705 2.291.875-43.45 112.706-2.291-.876zM107.79 4.56l43.45-112.705 2.291.875-43.45 112.706-2.291-.876zm-4.582-1.752 43.45-112.705 2.291.876-43.45 112.705-2.291-.876zm-4.582-1.751 43.45-112.705 2.291.875-43.45 112.705-2.29-.875zM94.044-.694l43.45-112.705 2.291.876L96.335.182l-2.291-.876z" fill="#343F57"/></mask><g mask="url(#c)"><path d="m136.859-81.448 7.223-3.216 6.686 15.017 4.815-2.144 30.889 69.376-1.806.804-.869-.333-9.631 4.288-37.307-83.792z" fill="#fff" fill-opacity=".2"/></g><g opacity=".8"><mask id="d" maskUnits="userSpaceOnUse" x="-46.64" y="-236.758" width="576.524" height="543.075" fill="#000"><path fill="#fff" d="M-46.64-236.758h576.524v543.075H-46.64z"/><path fill-rule="evenodd" clip-rule="evenodd" d="m-22.326-17.909 21.128-9.407-7.35-29.047 26.236-14.653-.828-1.86 15.534-6.916 3.45 7.75 4.972-2.213-2.76-6.2 12.427-5.533-.967-2.17 2.175-.969-.552-1.24 5.903-2.628.552 1.24 17.399-7.746 4.279 9.61 1.864-.83-1.932-4.34 49.087-21.855 9.248 20.771 1.243-.553-.828-1.86 47.534-21.164-.517-5.342-9.938-22.321 34.797-15.493 1.104 2.481 2.796-1.245.207-1.208 22.68-10.097 1.518 3.41 1.243-.553-1.518-3.41 29.204-13.002-.69-1.551 23.923-10.651 7.453 16.742-4.97 2.213 1.656 3.72 39.767-17.706 14.119-2.571 6.488 14.572 3.417-1.522-.553-1.24 18.952-8.438 19.601 44.024 6.835-3.043 7.73 17.361 2.796-1.245 5.935 13.331-2.796 1.245 9.11 20.462-2.796 1.245 1.933 4.34-1.554.692 9.939 22.322 1.553-.692 5.245 11.781-1.553.692 9.938 22.322 1.554-.692 10.214 22.942-1.553.692 9.938 22.322-37.903 16.875 11.318 25.423 6.835-3.044 7.04 15.812-3.418 1.521.966 2.17 3.418-1.521 9.11 20.461-3.418 1.522 2.899 6.51 2.797-1.245 7.592 17.052-2.935.935.69 1.551-30.757 13.694-.967-2.17-.931.414 1.656 3.721-29.204 13.003-1.657-3.721-5.903 2.628.967 2.17-11.496 5.119-.966-2.171-2.796 1.245.966 2.17-23.923 10.652-9.111-20.462-9.009 4.011 9.8 22.012-28.893 12.865-5.143-4.026-3.383 4.106-.173 3.793-25.306 30.955-3.418 1.522-4.35 5.279 4.694 3.855-72.938 7.584-.552-1.239-6.835 3.043-35.482-29.524-28.272 12.587-14.01-29.796 32-14.247-44.308-99.519 8.077-3.596-2.657-1.788-30.447 13.555-1.932-4.34-12.428 5.533 1.933 4.34-28.894 12.865L38.59 54.527l.38-1.656-5.903 2.628-8.697-19.531 3.28-5.175-.828-1.86-1.208-.205-3.451-7.751.656-1.035-.966-2.17-26.097 11.62-1.036-.654-19.187-39.75-1.864.83-.552-1.24 3.073-7.313.932-.415.552 1.241zm67.248-46.286 1.656 3.72 38.214-17.014-1.38-3.1 1.864-.83 1.933 4.34 29.825-13.279 1.518 3.41-1.553.692 9.801 22.012 6.73 2.575 16.466-7.33-8.144-18.293.622-.276 1.104 2.48 24.855-11.066.276.62-24.855 11.066 6.764 15.192 10.252-4.565 1.347.515 73.942-32.922-11.594-26.042-1.657-.376-5.142-10.713.932-.415-1.829-3.272 2.174-.968 1.036.653 23.612-10.512-1.967-3.582 1.243-.554 1.415 2.343 21.126-9.406.552 1.239 18.641-8.299 1.656 3.72-31.068 13.832-8.181 5.872 4.831 10.851 6.489-2.146 14.53 25.107-8.389 3.735 3.451 7.75 8.388-3.735 2.761 6.201-9.01 4.011 8.144 18.292 1.657.377 8.558 19.222-14.327 17.151-1.243.554-1.346-.516-10.253 4.565-.207 1.207-3.107 1.383-.277-.62-25.475 11.342.276.621-18.641 8.3-16.705-14.11-3.865-8.68 1.243-.553-2.071-4.65-.621.276-14.252-31.174-48.778 21.717-2.76-6.2-.621.276-8.627-17.705-28.584 12.726-4.14-9.3-41.632 18.535-1.933-4.34 4.35-1.937zm-25.48 38.09 9.942-4.426 1.105 2.48-7.457 3.32 3.313 7.44-2.486 1.107-4.417-9.92zM58.59-43.532l4.416 9.92-2.485 1.107-3.313-7.44-7.456 3.32-1.104-2.48 9.942-4.427zm38.522-3.778 4.972-2.214 3.036 6.82-4.971 2.214-3.037-6.82zM37.94 15.439l9.942-4.426-1.104-2.48-7.457 3.32-3.313-7.441-2.485 1.106 4.417 9.921zm34.729-27.35-2.486 1.107 3.313 7.44-7.456 3.32 1.104 2.48 9.942-4.426-4.417-9.92zm29.37 36.703-13.98 6.224.552 1.24 3.106-1.383 3.59 8.061 11.458 9.014 8.699-3.873-.276-.62 6.835-3.043.276.62 9.321-4.15 10.766 24.182-1.588 1.45.276.62 11.806-5.256 3.865 8.681 9.321-4.15 3.865 8.681 7.456-3.32-3.589-8.06 6.214-2.767-2.485-5.58-1.864.829.277.62-1.865.83-.276-.62-2.485 1.107-15.184-34.103 6.835-3.043-.276-.62-2.002.52-16.978-38.133 28.272-12.588-1.656-3.72.31-.139-1.932-4.34-.311.138-1.104-2.48-36.661 16.322-13.566 3.811-8.389 3.735 15.736 35.343-8.389 3.735.277.62-13.981 6.225-.276-.62zm88.329 25.311-4.141-9.3-.621.276 20.981 47.124-5.282 2.352-.449 3.171 3.729-1.66 2.76 6.201 15.845-7.054 2.622 5.89 7.457-3.32-2.623-5.89 16.467-7.331-.967-2.17-9.631 4.287-5.797-13.02 4.038-1.799-2.484-5.58-4.039 1.797-10.49-23.562 9.01-4.011-.967-2.17-35.418 15.769zm-19.235 64.658-1.828-9.959 13.67-6.086-7.454-16.742.622-.276 7.454 16.741 4.97-2.213 2.969 1.65-3.729 1.66 14.356 32.242 10.252-4.564-2.76-6.2 5.902-2.628 2.761 6.2 23.612-10.513 11.702.363 4.003 8.99-3.107 1.384 18.634 41.853 3.107-1.383 3.727 8.371-6.145 7.936-10.253 4.565-.966-2.17-40.389 17.982-.966-2.17 1.899-1.589-3.037-6.82-7.283-.472-9.663-21.702-2.174.968-9.387-21.082 8.078-3.596-5.659-12.711-12.428 5.533-10.49-23.562zm-98.06-55.527L57.85 66.012 50.672 49.89l-1.657-.376-.414-.93 32-14.248.552 1.24-5.202 2.316 3.727 8.371-10.332 4.6 3.727 8.371zm97.798-55.43-.518 1.346 7.592 17.05-.621.277-4.417-9.92-3.107 1.383-.276-.62 1.864-.83-8.282-18.602 15.534-6.916-4.417-9.921 2.486-1.107 8.282 18.602 2.554.72.69 1.55-3.418 1.522-.897-.344-13.049 5.81zm224.666 112.46 2.76 6.201 6.214-2.766-2.761-6.201-6.213 2.766zm24.854-11.066-6.214 2.767 2.761 6.201 6.214-2.767-2.761-6.201zm18.641-8.299-6.213 2.766 2.76 6.201 6.214-2.766-2.761-6.2zM307.382 67.101l4.555 10.23-7.146 3.181-.689-1.55-13.049 5.81.69 1.55-8.078 3.597-1.001 1.931-10.214-22.942-11.807 5.257-.966-2.17 9.01-4.012-12.699-28.522-5.903 2.628-5.935-13.331-3.107 1.383-1.105-2.48 19.263-8.576 6.211 13.95 92.273-41.082-35.888-80.606.31-.138-1.104-2.481-.311.138-1.38-3.1-7.145 3.182-.553-1.24-2.485 1.106-2.209-1.617-15.874-35.653-.621.277-.69-1.551 6.249-13.555.587.482 1.864-.83-.276-.62 13.67-6.087 1.174.964 13.981-6.225 1.933-2.346 9.01-4.012 12.702 5.118 3.727 8.371 5.903-2.629 4.417 9.921-2.486 1.107 9.386 21.082-1.242.553 9.248 20.772 3.728-1.66L413.953-30.5l-2.348 4.761-36.35 16.184 4.279 9.61-12.116 5.395 12.975 29.143-2.485 1.107 5.935 13.33-5.282 2.352-5.521-12.4-21.748 9.682-.518 1.345-4.971 2.213-.828-1.86-37.593 16.738zm76.037 54.558 1.553-.692 2.761 6.201-1.553.692 2.484 5.581-14.292 6.363-7.315-16.432 5.282-2.352-8.834-19.841-10.253 4.564-6.764-15.19 13.049-5.81-5.659-12.712 6.213-2.766 5.66 12.71 21.748-9.682.207-1.206 4.66-2.075 1.657.376 28.893-12.864L402.35 10.33l43.185-19.227 4.141 9.3-37.593 16.738 25.398 57.045-13.981 6.225-.966-2.17-13.049 5.809.966 2.17-4.971 2.213-.966-2.17-13.049 5.81.967 2.17-17.709 7.885 8.696 19.531z"/></mask><path clip-rule="evenodd" d="m-22.326-17.909 21.128-9.407-7.35-29.047 26.236-14.653-.828-1.86 15.534-6.916 3.45 7.75 4.972-2.213-2.76-6.2 12.427-5.533-.967-2.17 2.175-.969-.552-1.24 5.903-2.628.552 1.24 17.399-7.746 4.279 9.61 1.864-.83-1.932-4.34 49.087-21.855 9.248 20.771 1.243-.553-.828-1.86 47.534-21.164-.517-5.342-9.938-22.321 34.797-15.493 1.104 2.481 2.796-1.245.207-1.208 22.68-10.097 1.518 3.41 1.243-.553-1.518-3.41 29.204-13.002-.69-1.551 23.923-10.651 7.453 16.742-4.97 2.213 1.656 3.72 39.767-17.706 14.119-2.571 6.488 14.572 3.417-1.522-.553-1.24 18.952-8.438 19.601 44.024 6.835-3.043 7.73 17.361 2.796-1.245 5.935 13.331-2.796 1.245 9.11 20.462-2.796 1.245 1.933 4.34-1.554.692 9.939 22.322 1.553-.692 5.245 11.781-1.553.692 9.938 22.322 1.554-.692 10.214 22.942-1.553.692 9.938 22.322-37.903 16.875 11.318 25.423 6.835-3.044 7.04 15.812-3.418 1.521.966 2.17 3.418-1.521 9.11 20.461-3.418 1.522 2.899 6.51 2.797-1.245 7.592 17.052-2.935.935.69 1.551-30.757 13.694-.967-2.17-.931.414 1.656 3.721-29.204 13.003-1.657-3.721-5.903 2.628.967 2.17-11.496 5.119-.966-2.171-2.796 1.245.966 2.17-23.923 10.652-9.111-20.462-9.009 4.011 9.8 22.012-28.893 12.865-5.143-4.026-3.383 4.106-.173 3.793-25.306 30.955-3.418 1.522-4.35 5.279 4.694 3.855-72.938 7.584-.552-1.239-6.835 3.043-35.482-29.524-28.272 12.587-14.01-29.796 32-14.247-44.308-99.519 8.077-3.596-2.657-1.788-30.447 13.555-1.932-4.34-12.428 5.533 1.933 4.34-28.894 12.865L38.59 54.527l.38-1.656-5.903 2.628-8.697-19.531 3.28-5.175-.828-1.86-1.208-.205-3.451-7.751.656-1.035-.966-2.17-26.097 11.62-1.036-.654-19.187-39.75-1.864.83-.552-1.24 3.073-7.313.932-.415.552 1.241zm67.248-46.286 1.656 3.72 38.214-17.014-1.38-3.1 1.864-.83 1.933 4.34 29.825-13.279 1.518 3.41-1.553.692 9.801 22.012 6.73 2.575 16.466-7.33-8.144-18.293.622-.276 1.104 2.48 24.855-11.066.276.62-24.855 11.066 6.764 15.192 10.252-4.565 1.347.515 73.942-32.922-11.594-26.042-1.657-.376-5.142-10.713.932-.415-1.829-3.272 2.174-.968 1.036.653 23.612-10.512-1.967-3.582 1.243-.554 1.415 2.343 21.126-9.406.552 1.239 18.641-8.299 1.656 3.72-31.068 13.832-8.181 5.872 4.831 10.851 6.489-2.146 14.53 25.107-8.389 3.735 3.451 7.75 8.388-3.735 2.761 6.201-9.01 4.011 8.144 18.292 1.657.377 8.558 19.222-14.327 17.151-1.243.554-1.346-.516-10.253 4.565-.207 1.207-3.107 1.383-.277-.62-25.475 11.342.276.621-18.641 8.3-16.705-14.11-3.865-8.68 1.243-.553-2.071-4.65-.621.276-14.252-31.174-48.778 21.717-2.76-6.2-.621.276-8.627-17.705-28.584 12.726-4.14-9.3-41.632 18.535-1.933-4.34 4.35-1.937zm-25.48 38.09 9.942-4.426 1.105 2.48-7.457 3.32 3.313 7.44-2.486 1.107-4.417-9.92zM58.59-43.532l4.416 9.92-2.485 1.107-3.313-7.44-7.456 3.32-1.104-2.48 9.942-4.427zm38.522-3.778 4.972-2.214 3.036 6.82-4.971 2.214-3.037-6.82zM37.94 15.439l9.942-4.426-1.104-2.48-7.457 3.32-3.313-7.441-2.485 1.106 4.417 9.921zm34.729-27.35-2.486 1.107 3.313 7.44-7.456 3.32 1.104 2.48 9.942-4.426-4.417-9.92zm29.37 36.703-13.98 6.224.552 1.24 3.106-1.383 3.59 8.061 11.458 9.014 8.699-3.873-.276-.62 6.835-3.043.276.62 9.321-4.15 10.766 24.182-1.588 1.45.276.62 11.806-5.256 3.865 8.681 9.321-4.15 3.865 8.681 7.456-3.32-3.589-8.06 6.214-2.767-2.485-5.58-1.864.829.277.62-1.865.83-.276-.62-2.485 1.107-15.184-34.103 6.835-3.043-.276-.62-2.002.52-16.978-38.133 28.272-12.588-1.656-3.72.31-.139-1.932-4.34-.311.138-1.104-2.48-36.661 16.322-13.566 3.811-8.389 3.735 15.736 35.343-8.389 3.735.277.62-13.981 6.225-.276-.62zm88.329 25.311-4.141-9.3-.621.276 20.981 47.124-5.282 2.352-.449 3.171 3.729-1.66 2.76 6.201 15.845-7.054 2.622 5.89 7.457-3.32-2.623-5.89 16.467-7.331-.967-2.17-9.631 4.287-5.797-13.02 4.038-1.799-2.484-5.58-4.039 1.797-10.49-23.562 9.01-4.011-.967-2.17-35.418 15.769zm-19.235 64.658-1.828-9.959 13.67-6.086-7.454-16.742.622-.276 7.454 16.741 4.97-2.213 2.969 1.65-3.729 1.66 14.356 32.242 10.252-4.564-2.76-6.2 5.902-2.628 2.761 6.2 23.612-10.513 11.702.363 4.003 8.99-3.107 1.384 18.634 41.853 3.107-1.383 3.727 8.371-6.145 7.936-10.253 4.565-.966-2.17-40.389 17.982-.966-2.17 1.899-1.589-3.037-6.82-7.283-.472-9.663-21.702-2.174.968-9.387-21.082 8.078-3.596-5.659-12.711-12.428 5.533-10.49-23.562zm-98.06-55.527L57.85 66.012 50.672 49.89l-1.657-.376-.414-.93 32-14.248.552 1.24-5.202 2.316 3.727 8.371-10.332 4.6 3.727 8.371zm97.798-55.43-.518 1.346 7.592 17.05-.621.277-4.417-9.92-3.107 1.383-.276-.62 1.864-.83-8.282-18.602 15.534-6.916-4.417-9.921 2.486-1.107 8.282 18.602 2.554.72.69 1.55-3.418 1.522-.897-.344-13.049 5.81zm224.666 112.46 2.76 6.201 6.214-2.766-2.761-6.201-6.213 2.766zm24.854-11.066-6.214 2.767 2.761 6.201 6.214-2.767-2.761-6.201zm18.641-8.299-6.213 2.766 2.76 6.201 6.214-2.766-2.761-6.2zM307.382 67.101l4.555 10.23-7.146 3.181-.689-1.55-13.049 5.81.69 1.55-8.078 3.597-1.001 1.931-10.214-22.942-11.807 5.257-.966-2.17 9.01-4.012-12.699-28.522-5.903 2.628-5.935-13.331-3.107 1.383-1.105-2.48 19.263-8.576 6.211 13.95 92.273-41.082-35.888-80.606.31-.138-1.104-2.481-.311.138-1.38-3.1-7.145 3.182-.553-1.24-2.485 1.106-2.209-1.617-15.874-35.653-.621.277-.69-1.551 6.249-13.555.587.482 1.864-.83-.276-.62 13.67-6.087 1.174.964 13.981-6.225 1.933-2.346 9.01-4.012 12.702 5.118 3.727 8.371 5.903-2.629 4.417 9.921-2.486 1.107 9.386 21.082-1.242.553 9.248 20.772 3.728-1.66L413.953-30.5l-2.348 4.761-36.35 16.184 4.279 9.61-12.116 5.395 12.975 29.143-2.485 1.107 5.935 13.33-5.282 2.352-5.521-12.4-21.748 9.682-.518 1.345-4.971 2.213-.828-1.86-37.593 16.738zm76.037 54.558 1.553-.692 2.761 6.201-1.553.692 2.484 5.581-14.292 6.363-7.315-16.432 5.282-2.352-8.834-19.841-10.253 4.564-6.764-15.19 13.049-5.81-5.659-12.712 6.213-2.766 5.66 12.71 21.748-9.682.207-1.206 4.66-2.075 1.657.376 28.893-12.864L402.35 10.33l43.185-19.227 4.141 9.3-37.593 16.738 25.398 57.045-13.981 6.225-.966-2.17-13.049 5.809.966 2.17-4.971 2.213-.966-2.17-13.049 5.81.967 2.17-17.709 7.885 8.696 19.531z" stroke="#fff" stroke-opacity=".7" stroke-width="3" mask="url(#d)"/></g><path stroke="#fff" stroke-opacity=".7" stroke-width="1.5" d="m288.518 142.248 35.926-15.995 14.432 32.415-35.926 15.995z"/><path fill-rule="evenodd" clip-rule="evenodd" d="m311.935 160.304-3.862-16.78 4.356-1.94 9.885 14.099-3.011 1.34-1.525-2.391-3.523 1.568.692 2.763-3.012 1.341zm1.189-7.059-1.383-7.509 4.471 6.134-3.088 1.375z" fill="#fff" fill-opacity=".7"/><path fill="url(#e)" d="M0 135h488v115H0z"/><path fill="url(#f)" d="M0 135h488v115H0z"/></g><defs><linearGradient id="e" x1="244" y1="135" x2="244" y2="250" gradientUnits="userSpaceOnUse"><stop stop-color="#fff" stop-opacity="0"/><stop offset="1" stop-color="#fff"/></linearGradient><linearGradient id="f" x1="244" y1="135" x2="244" y2="250" gradientUnits="userSpaceOnUse"><stop stop-color="#fff" stop-opacity="0"/><stop offset="1" stop-color="#fff"/></linearGradient><radialGradient id="b" cx="0" cy="0" r="1" gradientUnits="userSpaceOnUse" gradientTransform="matrix(487.99956 -2.50707 3.47572 676.54807 0 91.76)"><stop stop-color="#003272"/><stop offset=".432" stop-color="#003272"/><stop offset=".609" stop-color="#003272" stop-opacity=".88"/><stop offset="1" stop-color="#003272"/></radialGradient><clipPath id="a"><path fill="#fff" d="M0 0h488v250H0z"/></clipPath></defs></svg>
