<svg viewBox="0 0 488 250" fill="none" xmlns="http://www.w3.org/2000/svg"><g clip-path="url(#a)"><path fill="#E1CBDB" d="M-336-21h950.4v544.8H-336z"/><rect x=".752" y=".762" width="19.447" height="3.455" rx=".754" transform="matrix(.99994 .01085 -.00222 1 382.615 175.705)" stroke="#fff" stroke-opacity=".7" stroke-width="1.507"/><rect x=".752" y=".762" width="23.094" height="3.657" rx=".754" transform="matrix(.99994 .01091 -.0022 1 380.596 179.987)" stroke="#fff" stroke-opacity=".7" stroke-width="1.507"/><path d="M229.893 102.341a.71.71 0 0 1-1.062.168L209.29 86.325c-.434-.36-.357-1.071.142-1.309l3.234-1.539a.707.707 0 0 1 .764.104l17.966 15.133a.802.802 0 0 1 .155 1.037l-1.658 2.59zM231.711 97.208a.708.708 0 0 1-1.032.125l-15.766-13.097c-.418-.347-.364-1.027.102-1.287l2.008-1.119a.707.707 0 0 1 .807.085l14.909 12.665a.802.802 0 0 1 .123 1.077l-1.151 1.55zM233.555 93.457a.709.709 0 0 1-1.044.123l-12.445-10.643c-.402-.343-.355-1 .09-1.268l1.783-1.074a.707.707 0 0 1 .831.075l11.812 10.143c.31.266.364.74.123 1.07l-1.15 1.574zM243.445 57.493a.707.707 0 0 1 .949-.015l16.088 13.757c.376.322.364.928-.025 1.225l-1.845 1.406a.707.707 0 0 1-.891-.026L241.694 60.33a.799.799 0 0 1-.034-1.182l1.785-1.656zM240.707 60.795a.708.708 0 0 1 .97-.035l14.753 12.617c.374.32.364.922-.02 1.22l-1.595 1.236a.707.707 0 0 1-.898-.025l-14.603-12.406a.8.8 0 0 1-.052-1.16l1.445-1.447zM238.646 64.03a.707.707 0 0 1 .919.01l12.99 11.11a.799.799 0 0 1 .019 1.187l-1.45 1.296a.707.707 0 0 1-.928.016l-13.308-10.938a.797.797 0 0 1-.01-1.215l1.768-1.467zM287.137 140.42a.745.745 0 0 1-1.133.115L266.08 121.35a.76.76 0 0 1 .26-1.259l2.701-.996a.743.743 0 0 1 .774.163l18.729 17.998c.268.258.31.674.099.981l-1.506 2.183zM288.899 135.383a.747.747 0 0 1-1.152.136l-16.015-15.586a.763.763 0 0 1 .129-1.192l2.333-1.441a.745.745 0 0 1 .922.111l14.926 15.069c.25.252.292.645.101.945l-1.244 1.958zM290.411 130.363a.746.746 0 0 1-1.177.179l-12.482-12.148a.761.761 0 0 1 .139-1.197l1.674-.999a.746.746 0 0 1 .906.111l11.682 11.549c.24.239.294.61.131.908l-.873 1.597zM331.088 114.242a.746.746 0 0 1 1.18-.169l16.519 16.415a.76.76 0 0 1-.252 1.244l-1.766.701a.745.745 0 0 1-.794-.159l-15.751-15.318a.764.764 0 0 1-.134-.915l.998-1.799zM329.422 118.118a.745.745 0 0 1 1.159-.133l13.384 13.314a.76.76 0 0 1-.249 1.243l-1.295.522.277.703-.277-.703a.747.747 0 0 1-.807-.167l-12.746-12.79a.763.763 0 0 1-.104-.943l.658-1.046zM328.015 121.448a.746.746 0 0 1 1.123-.08l11.141 11.084a.762.762 0 0 1-.219 1.231l-.8.361a.744.744 0 0 1-.835-.154l-10.804-10.834a.764.764 0 0 1-.068-.997l.462-.611zM119.625 129.409a.746.746 0 0 1-.165-1.18l17.036-17.059a.761.761 0 0 1 1.256.286l.874 2.541a.747.747 0 0 1-.182.773l-15.859 15.669a.763.763 0 0 1-.908.122l-2.052-1.152zM124.302 130.943a.745.745 0 0 1-.138-1.174l13.536-13.242a.762.762 0 0 1 1.177.141l.79 1.273a.744.744 0 0 1-.121.934l-13.278 12.602a.763.763 0 0 1-.919.099l-1.047-.633zM128.411 132.103a.746.746 0 0 1-.13-1.174l10.994-10.626a.761.761 0 0 1 1.203.195l.504.976a.744.744 0 0 1-.133.867l-10.296 10.39a.762.762 0 0 1-.94.112l-1.202-.74zM64.494 118.535a.7.7 0 0 1 1.073-.053l15.367 16.234c.357.377.256 1.018-.198 1.251l.317.7-.317-.7-2.812 1.443a.697.697 0 0 1-.838-.155l-14.29-15.474a.814.814 0 0 1-.038-1.044l1.736-2.202zM61.664 122.352a.702.702 0 0 1 1.094-.071l13.81 14.787c.364.389.243 1.047-.232 1.263l-2.214 1.002a.698.698 0 0 1-.808-.173l-12.868-14.045a.815.815 0 0 1-.054-1.019l1.272-1.744zM59.753 126.327a.7.7 0 0 1 1.09-.048l10.19 11.254c.37.41.215 1.09-.29 1.274l-1.518.555.224.696-.224-.696a.699.699 0 0 1-.77-.204l-9.472-10.763a.814.814 0 0 1-.032-1.022l.802-1.046zM105.909 217.107a.703.703 0 0 1-1.111.055l-16.284-18.517c-.354-.402-.214-1.057.269-1.255l2.666-1.094a.7.7 0 0 1 .783.18l15.619 16.859a.812.812 0 0 1 .058 1.02l-2 2.752zM108.235 211.28a.702.702 0 0 1-1.107.106l-12.764-13.31c-.379-.395-.249-1.074.245-1.278l2.234-.927a.701.701 0 0 1 .795.19l11.456 12.839c.24.269.268.68.067.983l-.926 1.397zM31.149 177.537a.673.673 0 0 1-.67.83l-27.89-.041c-.531 0-.947-.53-.802-1.02l.655-2.22a.67.67 0 0 1 .654-.477l26.742-.106a.85.85 0 0 1 .819.667l.492 2.367zM28.789 172.874a.674.674 0 0 1-.675.814l-22.768-.033c-.512-.001-.922-.5-.808-.985l.368-1.562a.67.67 0 0 1 .668-.516l22.12.053c.392.001.745.299.815.687l.28 1.542zM134.81 84.35a.746.746 0 0 1-.643-.727l-.3-19.359a.761.761 0 0 1 .934-.752l1.939.46c.33.078.565.369.572.709l.437 19.189a.761.761 0 0 1-.864.77l-2.075-.29zM139.079 85.832a.745.745 0 0 1-.668-.73l-.275-17.725a.762.762 0 0 1 .932-.753l1.572.369c.333.078.569.37.575.713l.33 17.525a.763.763 0 0 1-.839.771l-1.627-.17zM142.883 87.059a.746.746 0 0 1-.594-.72l-.252-16.276a.761.761 0 0 1 .885-.763l1.528.258c.35.059.608.355.621.71l.561 16.401a.761.761 0 0 1-.913.772l-1.836-.382zM81.123 63.011a.746.746 0 0 0 1.132.058l16.996-17.872a.761.761 0 0 0-.2-1.199l-2.532-1.31a.745.745 0 0 0-.885.152l-16.12 17.047a.763.763 0 0 0-.047.99l1.656 2.134zM78.687 58.54a.745.745 0 0 0 1.127.07L94.5 43.66a.761.761 0 0 0-.15-1.185l-2.182-1.311a.745.745 0 0 0-.907.109L77.04 55.286a.763.763 0 0 0-.07 1.004l1.717 2.25zM76.541 53.396a.746.746 0 0 0 1.178.17l11.888-11.752a.761.761 0 0 0-.151-1.198l-1.497-.866a.745.745 0 0 0-.89.107L75.705 50.725a.763.763 0 0 0-.138.921l.975 1.75zM340.073 165.409a.734.734 0 0 1-.678.971l-26.465.665a.775.775 0 0 1-.766-.973l.528-1.881a.73.73 0 0 1 .686-.532l25.294-.74a.78.78 0 0 1 .758.535l.643 1.955zM337.939 161.199a.733.733 0 0 1-.691.932l-22.179.521a.774.774 0 0 1-.765-.967l.433-1.599a.732.732 0 0 1 .692-.539l21.321-.487a.779.779 0 0 1 .764.574l.425 1.565zM334.807 157.453a.735.735 0 0 1-.672.994l-16.501.387a.775.775 0 0 1-.783-.886l.234-1.515a.73.73 0 0 1 .719-.62l15.797-.164a.778.778 0 0 1 .735.512l.471 1.292zM252.395 176.77a.744.744 0 0 1-.09-1.155l17.597-16.735a.762.762 0 0 1 1.195.191l1.277 2.398a.745.745 0 0 1-.146.892l-16.72 15.833a.764.764 0 0 1-.958.072l-2.155-1.496zM257.606 178.431a.747.747 0 0 1-.082-1.15l14.012-13.325a.762.762 0 0 1 1.212.225l.985 2.098a.744.744 0 0 1-.158.855l-13.092 12.587a.764.764 0 0 1-.971.07l-1.906-1.36zM262.145 179.899a.745.745 0 0 1-.1-1.162l10.439-9.927a.76.76 0 0 1 1.22.245l.783 1.803a.745.745 0 0 1-.16.826l-9.415 9.338a.764.764 0 0 1-.961.09l-1.806-1.213zM203.368 212.999a.747.747 0 0 1-.135-1.174l17.61-17.158a.761.761 0 0 1 1.231.249l1.118 2.678.699-.287-.699.287a.746.746 0 0 1-.171.823l-16.415 15.89a.764.764 0 0 1-.926.102l-2.312-1.41zM208.792 214.198a.745.745 0 0 1-.104-1.164l13.727-13.054a.761.761 0 0 1 1.23.269l.655 1.662a.746.746 0 0 1-.187.819l-13.11 12.234a.761.761 0 0 1-.94.077l-1.271-.843zM212.694 215.676a.746.746 0 0 1-.119-1.184l10.967-10.201a.761.761 0 0 1 1.169.163l.616 1.023a.745.745 0 0 1-.131.929l-10.51 9.838a.763.763 0 0 1-.92.092l-1.072-.66zM206.466 261.072a.745.745 0 0 0 .148-1.12L190.1 241.366a.762.762 0 0 0-1.224.119l-.656-.376.656.376-1.007 1.726a.745.745 0 0 0 .084.868l15.782 18.004a.762.762 0 0 0 .99.133l1.741-1.144zM201.93 262.199a.746.746 0 0 0 .135-1.112l-13.676-15.392a.762.762 0 0 0-1.205.089l-1.089 1.672a.745.745 0 0 0 .065.898l13.035 14.909a.764.764 0 0 0 1.005.126l1.73-1.19zM197.55 263.639a.746.746 0 0 0 .132-1.109l-10.988-12.366a.761.761 0 0 0-1.198.079l-.779 1.156a.744.744 0 0 0 .058.907l10.539 12.066a.762.762 0 0 0 1.009.123l1.227-.856zM327.567 220.083a.747.747 0 0 0-.998-.003L307.614 237a.762.762 0 0 0 .05 1.176l2.025 1.514-.446.609.446-.609c.285.213.68.195.945-.043l18.734-16.802a.762.762 0 0 0 .003-1.13l-1.804-1.632zM329.437 224.286a.745.745 0 0 0-1.072-.084l-15.916 14.137a.762.762 0 0 0 .069 1.193l1.702 1.18-.426.625.426-.625c.282.196.66.174.919-.054l15.534-13.715a.763.763 0 0 0 .083-1.054l-1.319-1.603zM331.13 228.428a.744.744 0 0 0-1.078-.101l-13.594 11.894a.761.761 0 0 0 .07 1.199l1.483 1.014a.743.743 0 0 0 .927-.068l12.895-11.911a.761.761 0 0 0 .082-1.029l-.785-.998zM353.487 184.559a.72.72 0 0 0-.845.619l-3.265 24.343a.784.784 0 0 0 .851.881l2.716-.302a.718.718 0 0 0 .634-.621l3.31-23.557a.788.788 0 0 0-.64-.879l-2.761-.484zM358.207 186.884a.723.723 0 0 0-.939.596l-2.717 20.263a.783.783 0 0 0 .835.882l2.228-.199a.72.72 0 0 0 .652-.631l2.51-19.439a.79.79 0 0 0-.548-.848l-2.021-.624zM362.132 189.196a.722.722 0 0 0-.859.617l-2.245 16.746a.785.785 0 0 0 .775.886l2.147-.018a.72.72 0 0 0 .71-.625l2.308-16.3a.788.788 0 0 0-.626-.877l-2.21-.429zM109.053 7.414a.745.745 0 0 1-1.154.09L91.521-9.714a.76.76 0 0 1 .342-1.255l-.192-.704.192.704 2.51-.7a.745.745 0 0 1 .74.205L110.33 4.518c.249.262.28.665.073.961l-1.351 1.935zM110.979 3.061a.746.746 0 0 1-1.159.095L97.084-10.23a.76.76 0 0 1 .254-1.224l1.792-.752a.745.745 0 0 1 .821.167L112.078.367a.761.761 0 0 1 .083.961l-1.182 1.733zM112.389-1.27a.745.745 0 0 1-1.123.047l-9.727-10.225a.76.76 0 0 1 .232-1.214l1.554-.71a.745.745 0 0 1 .843.158l9.311 9.52c.269.275.29.71.048 1.01l-1.138 1.414zM148.205 46.379a.745.745 0 0 1-1.141.1l-16.906-16.976a.76.76 0 0 1 .273-1.249l3.19-1.166a.746.746 0 0 1 .784.175l15.519 15.564c.26.26.295.672.084.974l-1.803 2.578zM150.507 41.425c-.26.4-.819.46-1.156.122l-13.039-13.092a.761.761 0 0 1 .225-1.23l1.774-.793a.746.746 0 0 1 .826.149l12.407 12.125a.763.763 0 0 1 .106.96l-1.143 1.759zM151.811 37.063a.746.746 0 0 1-1.122.072l-9.958-9.999a.76.76 0 0 1 .204-1.22l1.537-.745a.744.744 0 0 1 .846.139l9.527 9.304a.762.762 0 0 1 .071 1.008l-1.105 1.44zM245.327-2.336a.746.746 0 0 1 .682-.937l23.71-1.275a.76.76 0 0 1 .73 1.078l-1.082 2.303a.747.747 0 0 1-.635.427L246.689.457a.762.762 0 0 1-.777-.567l-.585-2.226zM247.824 1.864a.745.745 0 0 1 .68-.943l18.451-.992a.76.76 0 0 1 .766.987l-.592 1.851a.744.744 0 0 1-.66.516l-17.31 1.167a.762.762 0 0 1-.785-.56l-.55-2.026zM250.183 5.713a.746.746 0 0 1 .685-.892l14.084-.89a.76.76 0 0 1 .782.959l-.453 1.647a.746.746 0 0 1-.663.544l-13.277 1.024a.763.763 0 0 1-.805-.612l-.353-1.78zM395.888 100.512a.745.745 0 0 0-1.027.132l-14.249 17.783a.762.762 0 0 0 .169 1.106l1.606 1.081a.745.745 0 0 0 .999-.153l14.177-17.724a.764.764 0 0 0-.141-1.087l-1.534-1.138zM398.236 103.907a.745.745 0 0 0-1.079.098l-12.834 16.231c-.266.336-.2.83.146 1.084l1.447 1.065c.33.243.79.176 1.037-.151l12.415-16.391a.762.762 0 0 0-.104-1.031l-1.028-.905zM400.051 106.889a.745.745 0 0 0-1.076.127l-10.705 14.318a.763.763 0 0 0 .196 1.095l1.255.809a.745.745 0 0 0 1-.179l10.649-14.13a.763.763 0 0 0-.121-1.044l-1.198-.996zM424.287 140.686a.745.745 0 0 0 .046-1.128l-16.05-15.085a.762.762 0 0 0-1.178.17l-1.43 2.463a.744.744 0 0 0 .132.916l15.213 14.433a.763.763 0 0 0 1 .042l2.267-1.811zM420.401 143.857a.746.746 0 0 0 .062-1.144l-14.477-13.517a.761.761 0 0 0-1.189.195l-.898 1.679a.744.744 0 0 0 .149.897l13.878 12.961a.762.762 0 0 0 .976.052l1.499-1.123zM417.119 146.241a.746.746 0 0 0 .085-1.16l-13.365-12.477a.761.761 0 0 0-1.165.154l-.944 1.525a.746.746 0 0 0 .132.944l13.003 11.86a.762.762 0 0 0 .948.062l1.306-.908zM436.658 179.341a.751.751 0 0 0 .869-.717l.649-19.727a.758.758 0 0 0-.891-.769l-2.793.508a.75.75 0 0 0-.615.71l-.715 18.766a.758.758 0 0 0 .638.776l2.858.453zM431.704 178.595a.75.75 0 0 0 .889-.716l.518-17.714a.757.757 0 0 0-.915-.762l-1.852.399a.75.75 0 0 0-.591.712l-.5 16.971a.757.757 0 0 0 .617.766l1.834.344zM427.753 177.802a.75.75 0 0 0 .913-.71l.478-16.331a.757.757 0 0 0-.872-.77l-1.766.274-.118-.744.118.744a.751.751 0 0 0-.635.73l-.259 15.713a.76.76 0 0 0 .594.752l1.547.342zM445.583 63.335a.745.745 0 0 1 .613.735l-.023 20.134a.76.76 0 0 1-.972.73l-1.452-.427a.746.746 0 0 1-.535-.712l-.103-19.993a.761.761 0 0 1 .894-.752l1.578.285zM441.451 60.696a.745.745 0 0 1 .651.741l-.023 20.429a.762.762 0 0 1-.953.735l-1.918-.508a.745.745 0 0 1-.555-.72l-.04-20.174a.762.762 0 0 1 .856-.756l1.982.253zM437.321 57.297a.743.743 0 0 1 .53.715l-.024 21.736a.761.761 0 0 1-.942.737l-1.383-.344a.744.744 0 0 1-.565-.714l-.285-21.9a.761.761 0 0 1 .977-.74l1.692.51zM395.516 18.01a.743.743 0 0 0-.738-.853l-26.191.04a.763.763 0 0 0-.734.964l.69 2.476c.089.319.376.539.708.543l25.094.263a.767.767 0 0 0 .764-.654l.407-2.778zM393.701 22.658a.713.713 0 0 0-.71-.836l-22.362-.054c-.523-.001-.914.513-.761 1.003l.52 1.665-.724.252.724-.252a.713.713 0 0 0 .687.498l21.57.052a.8.8 0 0 0 .785-.665l.271-1.663zM392.257 26.52a.745.745 0 0 0-.722-.931l-19.087-.046a.76.76 0 0 0-.743.933l.468 1.985c.08.336.379.573.726.574l18.117.043a.762.762 0 0 0 .74-.575l.501-1.983zM443.506 16.277c-.257.259-.243.639.032.892l11.756 10.834c.357.329.982.301 1.28-.056l1.111-1.334c.214-.257.185-.606-.069-.843l-11.553-10.822c-.337-.315-.926-.312-1.243.007l-1.314 1.322zM446.923 13.644c-.268.258-.258.646.021.903l10.542 9.715c.361.332.994.3 1.287-.066l.61-.76c.207-.257.174-.601-.078-.836l-10.417-9.664c-.333-.309-.911-.31-1.23-.001l-.735.71zM449.896 12.171c-.225.259-.199.617.063.859l8.959 8.256c.345.317.944.304 1.254-.027l.642-.687c.238-.255.223-.617-.036-.866l-8.819-8.468c-.349-.335-.975-.318-1.282.034l-.781.899zM355.277 56.459a.745.745 0 0 0-1.068-.33l-18.705 11.398a.762.762 0 0 0-.125 1.204l1.379 1.286a.744.744 0 0 0 .893.092l18.128-10.917a.762.762 0 0 0 .3-.967l-.802-1.766zM356.068 60.514a.745.745 0 0 0-1.055-.298l-15.578 9.523a.762.762 0 0 0-.138 1.19l1.267 1.244a.744.744 0 0 0 .922.097l14.962-9.491a.761.761 0 0 0 .27-.989l-.65-1.276zM356.642 64.447a.745.745 0 0 0-1.039-.27l-12.608 7.707a.761.761 0 0 0-.12 1.207l1.099 1.01c.245.224.607.26.892.087l12.237-7.426a.762.762 0 0 0 .268-1.024l-.729-1.291zM226.551 16.697a.754.754 0 0 1 1.091.663l.262 19.445a.753.753 0 0 1-.603.75l-2.515.51a.754.754 0 0 1-.903-.713l-.684-19.24a.754.754 0 0 1 .613-.767l2.015-.383c.205-.038.404-.106.591-.2l-.338-.673.338.674.133-.067zM221.587 17.512a.754.754 0 0 1 .895.72L223 36.678a.754.754 0 0 1-.606.76l-2.447.49a.754.754 0 0 1-.902-.713l-.639-18.436a.753.753 0 0 1 .609-.766l1.996-.39h.002l.574-.11zM217.019 18.692a.754.754 0 0 1 .749.725l.628 16.457a.754.754 0 0 1-.583.763l-1.48.343a.753.753 0 0 1-.923-.711l-.518-16.527a.752.752 0 0 1 .59-.76l1.236-.273a.752.752 0 0 1 .167-.018l.134.001zM195 63.59l-1.46-6.64a1.507 1.507 0 0 0-1.457-1.183l-22.542-.231a1.508 1.508 0 0 0-1.393.896l-2.37 5.343M191.19 54.24a.754.754 0 0 1-.721.98l-19.771-.047a.754.754 0 0 1-.715-.988l.581-1.776a.755.755 0 0 1 .717-.519l18.622.015c.328 0 .619.214.718.528l.569 1.807zM189.043 50.229a.753.753 0 0 1-.733.965l-15.512-.2a.754.754 0 0 1-.72-.944l.246-.944a.753.753 0 0 1 .731-.564l14.943.035c.334.001.628.222.722.543l.323 1.109z" stroke="#fff" stroke-opacity=".7" stroke-width="1.507"/><path d="M152.796 52.493c.911 2.001 5.825 9.008 12.221 9.024 7.995.019 26.743-4.184 28.981.07 2.967 5.636 3.734 5.754 4.467 12.752.586 5.598 24.842 24.544 36.897 33.317l6.995.017c2.748.007.241 3.748.738 4.749.498 1 .998.752 3.745 1.258s5.252-2.236 9.244.022c3.194 1.807 25.096 22.796 35.648 33.065 1.332.169 3.994 1.758 3.982 6.755-.012 4.997 3.142 9.252 4.721 10.754M377.747 121.236c12.221 8.773 22.683 13.479 24.458 11.051 2.005-2.743 2.759-4.49 5.016-8.232 1.502-.996 5.234 5.509 18.201 15.783m-64.05 37.573c1.165.669 6.739 2.964 12.729 5.777 7.486 3.516 24.979 2.058 32.724 2.077 7.745.019 9.984-8.516 17.757-7.453 16.733 2.289 13.199 6.761 14.018-11.459.528-11.741 2.27-8.989-12.726-6.526-5.159.847-7.869-8.229-10.216-11.767m0 0c-.538-.812 10.21-7.368 9.764-8.222m-9.764 8.222 4.882-4.111 4.882-4.111" stroke="#fff" stroke-opacity=".7" stroke-width="1.507"/><path d="M352.355 186.136c.397-4.246 1.502-.93 7.002-2.416 4.1-1.108 2.284-14.985-4.207-16.999-6.491-2.015-4.999.921-6.745-.082-1.747-1.004-30.733.925-37.229.91-6.496-.016-8.493-.77-13.479-5.029-4.987-4.259-2.73-7.752-5.971-10.508-3.242-2.756-11.741-.778-15.491-.037-3.749.741-3.506 3.489-5.259 5.484-2.436 2.77-.948.994-9.766 9.221-8.013 7.476-4.258 4.237-10.015 8.97-4.144 3.407-2.752 1.243-10.494-.025s-9.246.727-14.25 3.713c-5.004 2.987-4.265 7.735-3.524 10.985.594 2.6-12.526 14.121-21.29 22.435-5.342 5.067-14.414 24.027-12.805 26.452 1.991 3.003 17.693 19.031 20.681 23.036 3.358 4.499 32.452 11.82 47.485-6.14l27.734-.676c3.29.59 4.424 17.326 6.705 17.255 7.495-.232 9.256-5.224 17.015-10.952s.022-9.244.029-11.992c.006-2.749 2.507-3.492 5.009-4.985 1.251-.747-2.492-3.004-6.729-7.012-.545-.515 15.708-14.387 19.781-18.441.752-.748 8.724 8.516 12.213 12.272 4.788 5.154 11.245-.973 13.253-4.466 2.007-3.493-7.731-6.264-10.22-10.018-2.489-3.754 7.504-3.829 7.516-8.477.009-3.747 2.539-16.983 3.051-22.478z" fill="#fff" fill-opacity=".4" stroke="#fff" stroke-opacity=".7" stroke-width="1.507"/><path d="M127.163 325.509-10 325.181l.351-146.726 43.473.105c5.996.014 9.747-1.202 13.241.031 3.495 1.233 7.714 13.001 14.46 13.017 6.746.017 12.494-.705 17.739.043 4.196.598 18.862 17.926 25.67 26.516l13.719 9.096c-1.935 8.242-4.656 24.729-.059 24.74 4.597.011 7.725 8.51 8.714 12.759l-.145 60.747z" fill="#fff" fill-opacity=".4"/><path d="M228.038 37.932c.488 4.9-10.345 42.597 13.949 17.67.714-.733 14.383 11.168 16.21 12.532 16.46 12.287-2.291 7.195 9.45 18.149 3.989 3.721 13.728 5.493 17.483 2.754l1.505-2.709c.002-1 1.432-1.032 3.25-1.027 1.5.003 8.911.27 14.241.284.333.167.949.152.748.751-.202.6-.425 3.247-.761 4.495-.164.61-.104 1.899.494 2.5M-10 325.18l137.163.328.145-60.747c-.989-4.249-4.117-12.748-8.714-12.759-4.597-.011-1.876-16.498.059-24.74l-13.719-9.096c-6.808-8.59-21.474-25.918-25.67-26.516-5.245-.748-10.993-.026-17.739-.043-6.746-.016-10.965-11.784-14.46-13.017-3.494-1.233-7.245-.017-13.241-.031l-43.473-.105-.35 146.726z" stroke="#fff" stroke-opacity=".7" stroke-width="1.507"/><path d="m367.503 16.782 32.481-.422 41.973.1 13.71 13.026-.039 16.49-13.762 8.46-7.745-.018-.07 29.232 7.73 6.514 3.699 19.996-3.778 12.733c-13.479-5.029-8.726-7.766-19.956-12.79-8.985-4.019-26.201-13.804-27.961-9.061l-16.538 20.198c-1.504 1.995-.298 4.391-6.26 5.981-5.463 1.457-17.633 5.617-19.748 4.2-4.49-3.009-8.975-8.016-13.711-12.525a36.985 36.985 0 0 1-2.493-2.256 45.747 45.747 0 0 1-.732-.735l-2.508-2.519c-2.287-1.15-7.254 3.23-8.998 1.477-2.495-1.671-4.248.24-8.739-2.269-5.073-2.835-3.994-1.759-6.478-7.511-2.675-6.193-4.271-12.252-2.469-12.248.999.002 15.755-1.49 17.742-1.707 8.997-.977 13.239-5.99 15.011-8.458 2.507-3.492-6.216-12.507-3.962-14.5 1.802-1.595 8.507-5.227 11.51-7.218l9.258-5.974-3.219-12 13.776-14.459 2.276-11.737z" fill="#fff" fill-opacity=".4"/><path d="M331.795 113.386c-2.287-1.15-7.254 3.23-8.998 1.477-2.495-1.671-4.248.24-8.739-2.269-5.073-2.835-3.994-1.759-6.478-7.511-2.675-6.193-4.271-12.252-2.469-12.248.999.002 15.755-1.49 17.742-1.707 8.997-.977 13.239-5.99 15.011-8.458 2.507-3.492-6.216-12.507-3.962-14.5 1.802-1.595 8.507-5.227 11.51-7.218l9.258-5.974-3.219-12 13.776-14.459 2.276-11.737 32.481-.422 41.973.1 13.71 13.026-.039 16.49-13.762 8.46-7.745-.018-.07 29.232 7.73 6.514 3.699 19.996-3.778 12.733c-13.479-5.029-8.726-7.766-19.956-12.79-8.985-4.019-26.201-13.804-27.961-9.061l-16.538 20.198c-1.504 1.995-.298 4.391-6.26 5.981-5.463 1.457-17.633 5.617-19.748 4.2-4.49-3.009-8.975-8.016-13.711-12.525m-5.733-5.51c.899.677 2.853 3.147 5.733 5.51m-5.733-5.51 3.24 3.254 2.493 2.256" stroke="#fff" stroke-opacity=".7" stroke-width="1.507"/><path d="m276.617-114.353-59.712-.143c-4.675 4.819-15.425 14.454-21.021 14.44-5.597-.013-10.985-3.524-12.98-5.278-4.992-2.01-15.485 1.646-16.257 7.207-.278 2.007-2.225 13.974.711 16.241 3.498-.241 5.747-.486 11.495-.972 2.999-.253.743 2.5-1.266 6.743-2.295 4.848-5.525 12.23-6.778 13.725-2.751 1.243-11.486-3.025-13.744.967-.1 6.912.351 20.438 3.942 23.245 4.489 3.508 9.742.772 14-3.465 3.406-3.39 17.938-13.865 20.017-12.444l8.973 9.016 7.226 8.012c.552 12.993-6.667 50.502-5.875 53.702.99 4 12.989 1.03 19.737.047 6.748-.983 9.264-8.222 15.52-12.205 6.255-3.982-1.481-7.748 6.016-8.23 5.997-.386 20.24-1.2 20.24-1.2 1.249.002 3.897.058 7.499-1.732s4.678-5.735 4.765-7.484l.065-27.232c.005-1.999-.976-9.497 2.533-14.485 3.51-4.989 7.251-1.981 16.246-2.46 8.996-.478 9.392-1.148 8.754-3.726-.496-2-2.742-2.755-1.684-27.237l-5.241-2.261-23.181-22.791z" fill="#fff" fill-opacity=".4" stroke="#fff" stroke-opacity=".7" stroke-width="1.507"/><path d="M152.801 52.489c-12.167-12.037-34.09-33.792-46.111-45.917-3.25.827-9.956 7.012-11.27 11.052-2.516 7.739 7.109 24.332 4.934 26.744-8.768 9.723-14.53 16.154-17.035 18.896-2.324 2.544-4.74-2.458-7.735-3.964-3.247-.758-3.453 1.89-8.258 5.476-6.007 4.483-6.762 6.73-6.772 10.977-.01 4.248.69 24.486-.071 29.481-.61 3.996-3.756 3.489-.52 8.744l2.744 1.505 2.244 1.755 17.445 18.53-4.018 8.485 4.987 4.009 26.484.063 6.276-12.726 2.515-6.99 19.034-18.942c-4.712-14.752-4.4-40.935-4.39-44.733.011-4.747 10.499-2.473 14.751-4.462 3.402-1.59 4.595-5.985 4.766-7.983z" fill="#fff" fill-opacity=".4"/><path d="M159.021-40.937c-22.692-18.043-19.713-10.29-51.436-13.115-6.222-.554-36.248 8.658-34.005 11.161l-.065 26.983C73.501-9.86 81.751-12.14 85.5-12.63c3.748-.49 7.733 5.015 13.215 11.025C103.1 3.2 136.6 36.46 152.8 52.489c-.171 1.998-1.364 6.393-4.766 7.983-4.252 1.989-14.74-.285-14.751 4.462-.01 3.798-.322 29.98 4.39 44.733l-19.034 18.942-2.515 6.99-6.276 12.726-26.484-.063-4.987-4.009 4.018-8.485-17.445-18.53-2.244-1.755-2.745-1.505c-3.235-5.255-.088-4.748.52-8.744.762-4.995.061-25.233.072-29.48.01-4.248.765-6.495 6.772-10.978 4.805-3.586 5.011-6.234 8.258-5.476 2.994 1.506 5.411 6.508 7.735 3.964 2.505-2.742 8.267-9.173 17.035-18.896 2.175-2.412-7.45-19.006-4.933-26.745 1.313-4.039 8.019-10.224 11.269-11.05M287.432 86.682a.754.754 0 0 1 .745-.879l15.511.037c.45.001.799.394.746.841l-.172 1.482a.755.755 0 0 1-.751.666l-15.088-.036a.753.753 0 0 1-.741-.628l-.25-1.483zM288.606 90.249a.753.753 0 0 1 .73-.945l13.069.03c.495.002.854.472.726.95l-.263.982a.754.754 0 0 1-.73.558l-12.547-.03a.753.753 0 0 1-.727-.562l-.258-.983z" stroke="#fff" stroke-opacity=".7" stroke-width="1.507"/><path d="M148.41 9.013c-.814-2.256-3.978-7.755-6.467-12.008-.992-2.75-1.486-5.25-1.481-7.499.01-4.298 1.536-7.22 7.511-6.727 5.976.492 6.239 3.013 7.735 4.265 1.496 1.253 9.717 11.266 13.214 11.525 3.497.258 3.5-.641 3.506-3.49.006-2.248-2.316-6.501-3.478-8.003-3.072-3.838-10.315-11.967-14.708-13.776-5.491-2.262-7.24-2.016-13.738-1.282-6.497.734-10.756 5.47-12.519 11.212-1.42 4.626-.114 12.909 1.708 16.994 4.236 4.84 14.058 13.774 16.457 13.78 2.998.007 3.253-2.24 2.26-4.991z" fill="#fff" fill-opacity=".4"/><path d="m169.546-13.385-.008-.01a99.551 99.551 0 0 0-6.914-7.711c-1.384-1.381-2.818-2.707-4.192-3.807-1.364-1.092-2.706-1.991-3.903-2.484-2.781-1.146-4.677-1.683-6.728-1.82-1.942-.13-3.997.103-7.016.444l-.366.042c-6.871.776-11.328 5.793-13.154 11.74-.756 2.462-.771 5.812-.39 9.01.383 3.209 1.179 6.38 2.13 8.512l.046.103.075.086c2.146 2.452 5.687 5.92 8.992 8.777 1.652 1.428 3.26 2.717 4.616 3.652.677.468 1.306.857 1.856 1.133.522.262 1.072.475 1.558.476.838.002 1.561-.153 2.141-.494.595-.35.988-.865 1.2-1.474.403-1.16.14-2.62-.37-4.033-.43-1.193-1.455-3.183-2.654-5.362a308.267 308.267 0 0 0-3.836-6.71c-.956-2.666-1.418-5.055-1.413-7.177.005-2.095.386-3.655 1.315-4.647.905-.966 2.502-1.569 5.381-1.331 2.878.237 4.273.951 5.121 1.671.437.37.757.766 1.082 1.182l.073.094c.293.376.623.799 1.036 1.145.327.273 1.073 1.08 2.135 2.227a146.226 146.226 0 0 0 3.672 3.862c1.347 1.354 2.776 2.696 4.1 3.72.662.512 1.313.957 1.925 1.284.602.323 1.222.562 1.811.605.893.066 1.627.065 2.217-.046.606-.114 1.122-.356 1.489-.814.35-.438.483-.978.545-1.51.061-.524.062-1.15.064-1.833v-.036c.003-1.31-.647-3.07-1.374-4.606-.74-1.564-1.638-3.054-2.262-3.86z" stroke="#fff" stroke-opacity=".7" stroke-width="1.507"/><rect x="113.758" y="182.727" width="17.988" height="17.988" rx="3.015" transform="rotate(-44.551 113.758 182.727)" fill="#fff" fill-opacity=".7"/><rect x="112.692" y="182.718" width="19.495" height="19.495" rx="3.769" transform="rotate(-44.551 112.692 182.718)" stroke="#fff" stroke-opacity=".7" stroke-width="1.507"/><rect x="9.737" y="10.427" width="17.988" height="17.988" rx="3.015" transform="rotate(-89.529 9.737 10.427)" fill="#fff" fill-opacity=".7"/><rect x="8.977" y="11.174" width="19.495" height="19.495" rx="3.769" transform="rotate(-89.529 8.977 11.174)" stroke="#fff" stroke-opacity=".7" stroke-width="1.507"/><rect x="10.019" y="102.367" width="17.988" height="17.988" rx="3.015" transform="rotate(-89.529 10.02 102.367)" fill="#fff" fill-opacity=".7"/><rect x="9.259" y="103.114" width="19.495" height="19.495" rx="3.769" transform="rotate(-89.529 9.26 103.114)" stroke="#fff" stroke-opacity=".7" stroke-width="1.507"/><rect x="69.647" y="241.081" width="17.988" height="17.988" rx="3.015" transform="rotate(-44.551 69.647 241.081)" fill="#fff" fill-opacity=".7"/><rect x="68.581" y="241.073" width="19.495" height="19.495" rx="3.769" transform="rotate(-44.551 68.581 241.073)" stroke="#fff" stroke-opacity=".7" stroke-width="1.507"/><rect x="56.692" y="227.555" width="17.988" height="17.988" rx="3.015" transform="rotate(-44.551 56.692 227.555)" fill="#fff" fill-opacity=".7"/><rect x="55.626" y="227.547" width="19.495" height="19.495" rx="3.769" transform="rotate(-44.551 55.626 227.547)" stroke="#fff" stroke-opacity=".7" stroke-width="1.507"/><rect x="76.193" y="220.608" width="17.988" height="17.988" rx="3.015" transform="rotate(-44.551 76.193 220.608)" fill="#fff" fill-opacity=".7"/><rect x="75.127" y="220.6" width="19.495" height="19.495" rx="3.769" transform="rotate(-44.551 75.127 220.6)" stroke="#fff" stroke-opacity=".7" stroke-width="1.507"/><rect x="18.467" y="220.071" width="17.988" height="17.988" rx="3.015" transform="rotate(-88.542 18.467 220.071)" fill="#fff" fill-opacity=".7"/><rect x="17.694" y="220.805" width="19.495" height="19.495" rx="3.769" transform="rotate(-88.542 17.694 220.805)" stroke="#fff" stroke-opacity=".7" stroke-width="1.507"/><rect x="-.246" y="219.343" width="17.988" height="17.988" rx="3.015" transform="rotate(-88.542 -.246 219.343)" fill="#fff" fill-opacity=".7"/><rect x="-1.019" y="220.078" width="19.495" height="19.495" rx="3.769" transform="rotate(-88.542 -1.019 220.078)" stroke="#fff" stroke-opacity=".7" stroke-width="1.507"/><rect x="9.954" y="200.801" width="17.988" height="17.988" rx="3.015" transform="rotate(-88.542 9.954 200.801)" fill="#fff" fill-opacity=".7"/><rect x="9.182" y="201.535" width="19.495" height="19.495" rx="3.769" transform="rotate(-88.542 9.182 201.535)" stroke="#fff" stroke-opacity=".7" stroke-width="1.507"/><path d="M47.082 296.18c-9.497 10.387-25.782 10.958-36.372 1.274C.119 287.771-.768 271.5 8.73 261.113c7.65-8.368 19.878-10.181 29.813-5.578 1.895-.807 5.584-1.664 7.934-.532 1.98.796 5.437 2.94 3.157 10.246 6.062 9.602 5.341 22.298-2.552 30.931z" fill="#fff" fill-opacity=".7"/><path d="M10.201 298.01c10.888 9.955 27.65 9.383 37.437-1.321 8.054-8.808 8.852-21.71 2.817-31.548 1.06-3.591.788-6.079-.137-7.811-.941-1.764-2.478-2.588-3.537-3.017-1.36-.647-3.027-.699-4.53-.52a15.614 15.614 0 0 0-3.691.921c-10.152-4.554-22.571-2.657-30.387 5.891-9.787 10.704-8.86 27.45 2.028 37.405z" stroke="#fff" stroke-opacity=".7" stroke-width="1.507"/><path d="M46.454 270.217c-4.376 4.786-10.648 6.175-14.009 3.102-3.36-3.072-2.537-9.443 1.84-14.229 4.375-4.786 10.873-5.969 14.008-3.103 3.36 3.073 2.537 9.443-1.84 14.23z" fill="#fff" fill-opacity=".7"/><path d="M31.937 273.876c1.91 1.747 4.594 2.173 7.295 1.575 2.703-.599 5.498-2.232 7.778-4.726 2.28-2.493 3.657-5.423 4.012-8.169.355-2.744-.31-5.378-2.22-7.125-1.805-1.65-4.49-2.067-7.202-1.5-2.726.57-5.583 2.147-7.872 4.65-2.28 2.494-3.657 5.423-4.012 8.17-.355 2.743.31 5.377 2.22 7.125z" stroke="#fff" stroke-opacity=".7" stroke-width="1.507"/><circle cx="289.563" cy="219.465" r="7.995" transform="rotate(.137 289.563 219.465)" fill="#fff" fill-opacity=".7"/><circle cx="289.563" cy="219.465" r="8.748" transform="rotate(.137 289.563 219.465)" stroke="#fff" stroke-opacity=".7" stroke-width="1.507"/><rect x="182.89" y="113.434" width="17.988" height="17.988" rx="3.015" transform="rotate(-44.551 182.89 113.434)" fill="#fff" fill-opacity=".7"/><rect x="181.824" y="113.426" width="19.495" height="19.495" rx="3.769" transform="rotate(-44.551 181.824 113.426)" stroke="#fff" stroke-opacity=".7" stroke-width="1.507"/><rect x="318.606" y="-10.165" width="17.988" height="17.988" rx="3.015" transform="rotate(-44.551 318.606 -10.165)" fill="#fff" fill-opacity=".7"/><rect x="317.54" y="-10.173" width="19.495" height="19.495" rx="3.769" transform="rotate(-44.551 317.54 -10.173)" stroke="#fff" stroke-opacity=".7" stroke-width="1.507"/><rect x="256.989" y="50.649" width="17.988" height="17.988" rx="3.015" transform="rotate(-44.551 256.989 50.65)" fill="#fff" fill-opacity=".7"/><rect x="255.923" y="50.641" width="19.495" height="19.495" rx="3.769" transform="rotate(-44.551 255.923 50.64)" stroke="#fff" stroke-opacity=".7" stroke-width="1.507"/><rect x="470.306" y="74.988" width="17.988" height="17.988" rx="3.015" transform="rotate(-89.529 470.306 74.988)" fill="#fff" fill-opacity=".7"/><rect x="469.546" y="75.735" width="19.495" height="19.495" rx="3.769" transform="rotate(-89.529 469.546 75.735)" stroke="#fff" stroke-opacity=".7" stroke-width="1.507"/><rect x="470.119" y="153.439" width="17.988" height="17.988" rx="3.015" transform="rotate(-89.529 470.119 153.439)" fill="#fff" fill-opacity=".7"/><rect x="469.359" y="154.187" width="19.495" height="19.495" rx="3.769" transform="rotate(-89.529 469.359 154.187)" stroke="#fff" stroke-opacity=".7" stroke-width="1.507"/><path opacity=".4" fill="url(#b)" d="M0 0h488v354H0z"/><path fill="url(#c)" d="M0 135h488v115H0z"/><path fill="url(#d)" d="M0 135h488v115H0z"/></g><defs><linearGradient id="c" x1="244" y1="135" x2="244" y2="250" gradientUnits="userSpaceOnUse"><stop stop-color="#fff" stop-opacity="0"/><stop offset="1" stop-color="#fff"/></linearGradient><linearGradient id="d" x1="244" y1="135" x2="244" y2="250" gradientUnits="userSpaceOnUse"><stop stop-color="#fff" stop-opacity="0"/><stop offset="1" stop-color="#fff"/></linearGradient><radialGradient id="b" cx="0" cy="0" r="1" gradientUnits="userSpaceOnUse" gradientTransform="matrix(487.99956 -2.50707 3.47572 676.54807 0 91.76)"><stop stop-color="#BA8888"/><stop offset=".285" stop-color="#EEAFAF"/><stop offset=".443" stop-color="#EEA0A0"/><stop offset="1" stop-color="#F4E1E1"/></radialGradient><clipPath id="a"><path fill="#fff" d="M0 0h488v250H0z"/></clipPath></defs></svg>
