<svg viewBox="0 0 56 56" fill="none" xmlns="http://www.w3.org/2000/svg"><g clip-path="url(#a)"><path d="M35.39 40.605c11.04 0 19.991-8.95 19.991-19.991S46.431.622 35.39.622c-11.04 0-19.991 8.95-19.991 19.992 0 11.04 8.95 19.991 19.991 19.991z" fill="url(#b)"/><g filter="url(#c)"><path d="M22.904 54.133c11.632 0 21.062-9.43 21.062-21.062 0-11.633-9.43-21.063-21.062-21.063-11.633 0-21.063 9.43-21.063 21.063 0 11.632 9.43 21.062 21.063 21.062z" fill="url(#d)"/></g><path d="M22.904 54.75c11.973 0 21.68-9.706 21.68-21.68 0-11.973-9.707-21.68-21.68-21.68-11.974 0-21.68 9.707-21.68 21.68 0 11.974 9.706 21.68 21.68 21.68z" stroke="url(#e)" stroke-width="1.235"/><path d="M22.904 54.75c11.973 0 21.68-9.706 21.68-21.68 0-11.973-9.707-21.68-21.68-21.68-11.974 0-21.68 9.707-21.68 21.68 0 11.974 9.706 21.68 21.68 21.68z" stroke="url(#f)" stroke-width="1.235"/><g filter="url(#g)" fill-rule="evenodd" clip-rule="evenodd" fill="#fff"><path d="M31.66 41.61a1.568 1.568 0 0 1-2.219 0L13.8 25.966a1.568 1.568 0 0 1 2.218-2.218L31.66 39.39a1.568 1.568 0 0 1 0 2.218z"/><path d="M13.799 41.61a1.568 1.568 0 0 1 0-2.219L29.44 23.75a1.568 1.568 0 0 1 2.219 2.218L16.017 41.609a1.568 1.568 0 0 1-2.218 0z"/></g></g><defs><radialGradient id="d" cx="0" cy="0" r="1" gradientUnits="userSpaceOnUse" gradientTransform="rotate(44.963 -13.588 8.228) scale(61.3435 45.1427)"><stop stop-color="#9ED6FF"/><stop offset="1" stop-color="#CBEFFF" stop-opacity=".2"/><stop offset="1" stop-color="#9ED6FF" stop-opacity=".2"/></radialGradient><radialGradient id="e" cx="0" cy="0" r="1" gradientUnits="userSpaceOnUse" gradientTransform="rotate(-51.983 58.014 21.944) scale(57.5957 40.9373)"><stop stop-color="#DBF2FF" stop-opacity=".42"/><stop offset="1" stop-color="#DBF2FF" stop-opacity="0"/></radialGradient><linearGradient id="b" x1="51.84" y1="4.234" x2="17.822" y2="34.276" gradientUnits="userSpaceOnUse"><stop stop-color="#0161DA"/><stop offset="1" stop-color="#3FA3FF"/></linearGradient><linearGradient id="f" x1="33.867" y1="19.122" x2="29.181" y2="22.694" gradientUnits="userSpaceOnUse"><stop stop-color="#8BC7FF"/><stop offset="1" stop-color="#98D4FF" stop-opacity=".2"/></linearGradient><filter id="c" x="-1.579" y="8.588" width="48.965" height="48.965" filterUnits="userSpaceOnUse" color-interpolation-filters="sRGB"><feFlood flood-opacity="0" result="BackgroundImageFix"/><feGaussianBlur in="BackgroundImageFix" stdDeviation="1.71"/><feComposite in2="SourceAlpha" operator="in" result="effect1_backgroundBlur_1_5595"/><feBlend in="SourceGraphic" in2="effect1_backgroundBlur_1_5595" result="shape"/></filter><filter id="g" x="11.388" y="22.388" width="22.682" height="22.682" filterUnits="userSpaceOnUse" color-interpolation-filters="sRGB"><feFlood flood-opacity="0" result="BackgroundImageFix"/><feColorMatrix in="SourceAlpha" values="0 0 0 0 0 0 0 0 0 0 0 0 0 0 0 0 0 0 127 0" result="hardAlpha"/><feOffset dy="1.05"/><feGaussianBlur stdDeviation=".976"/><feColorMatrix values="0 0 0 0 0.00392157 0 0 0 0 0.380392 0 0 0 0 0.854902 0 0 0 0.2 0"/><feBlend in2="BackgroundImageFix" result="effect1_dropShadow_1_5595"/><feBlend in="SourceGraphic" in2="effect1_dropShadow_1_5595" result="shape"/></filter><clipPath id="a"><path fill="#fff" d="M0 0h56v56H0z"/></clipPath></defs></svg>
