<svg viewBox="0 0 488 250" fill="none" xmlns="http://www.w3.org/2000/svg"><g clip-path="url(#a)"><g clip-path="url(#b)"><path opacity=".4" fill="url(#c)" d="M0 0h488v354H0z"/><path fill-rule="evenodd" clip-rule="evenodd" d="M354.887 363.674 594.961-83.077 602-79.295 361.925 367.456l-7.038-3.782zM136.194-235.332l-10.387-5.981c-63.866-36.773-145.45-14.81-182.223 49.056L-135.36-55.151c-36.773 63.865-14.81 145.45 49.056 182.223l10.387 5.98c63.866 36.774 145.45 14.811 182.223-49.055L185.25-53.11c36.773-63.866 14.81-145.45-49.056-182.223zm-6.4-12.905c-67.69-38.976-154.16-15.697-193.135 51.993l-78.943 137.106c-38.975 67.69-15.697 154.16 51.993 193.134l10.387 5.981c67.69 38.975 154.16 15.697 193.135-51.993l78.943-137.106c38.976-67.69 15.697-154.16-51.993-193.135l-10.387-5.98zM-223.049 303.364l4.316-6.724c3.801 2.44 7.68 4.801 11.637 7.079l10.035 5.778-3.987 6.925-10.035-5.778a290.042 290.042 0 0 1-11.966-7.28zm42.071 24.614 3.987-6.924 10.036 5.778a282.556 282.556 0 0 0 11.964 6.51l-3.648 7.109a289.963 289.963 0 0 1-12.304-6.695l-10.035-5.778zm47.844 24.027 2.937-7.431a276.05 276.05 0 0 0 25.767 8.742l-2.191 7.684a283.94 283.94 0 0 1-26.513-8.995zm53.783 15.33 1.42-7.863a275.664 275.664 0 0 0 26.98 3.509l-.638 7.965a283.393 283.393 0 0 1-27.762-3.611zm55.745 4.47-.148-7.988a277.777 277.777 0 0 0 27.152-1.836l.929 7.936a285.574 285.574 0 0 1-27.933 1.888zm55.548-6.496-1.699-7.808a279.356 279.356 0 0 0 26.283-7.075l2.45 7.605a287.197 287.197 0 0 1-27.034 7.278zm53.23-17.156-3.18-7.33a277.83 277.83 0 0 0 24.404-12.044l3.883 6.984a285.994 285.994 0 0 1-25.106 12.39zm48.876-27.182-4.551-6.568a275.431 275.431 0 0 0 21.572-16.579l5.176 6.087a283.362 283.362 0 0 1-22.197 17.06zm42.602-36.229-5.753-5.546a275.857 275.857 0 0 0 17.896-20.496l6.27 4.952a283.826 283.826 0 0 1-18.413 21.09zM359.28-15.436l-6.925-3.987 7.404-12.86a281.567 281.567 0 0 0 6.51-11.964l7.109 3.648a290.107 290.107 0 0 1-6.694 12.304l-7.404 12.86zm25.653-50.668-7.431-2.937a276.033 276.033 0 0 0 8.742-25.766l7.684 2.19a283.827 283.827 0 0 1-8.995 26.513zm15.33-53.783a283.354 283.354 0 0 0 3.61-27.762l-7.964-.638a275.296 275.296 0 0 1-3.51 26.979l7.864 1.421zm4.47-55.745-7.989.148a277.798 277.798 0 0 0-1.836-27.152l7.936-.928a285.57 285.57 0 0 1 1.889 27.932zm-6.497-55.547-7.808 1.698a279.062 279.062 0 0 0-7.075-26.282l7.605-2.451a287.094 287.094 0 0 1 7.278 27.035zm-17.156-53.232-7.33 3.181a277.758 277.758 0 0 0-12.043-24.403l6.983-3.883a286.057 286.057 0 0 1 12.39 25.105zm-27.182-48.875-6.567 4.551a275.631 275.631 0 0 0-16.58-21.572l6.087-5.176a283.362 283.362 0 0 1 17.06 22.197zm-36.229-42.601-5.545 5.752a275.89 275.89 0 0 0-20.497-17.895l4.953-6.271a283.822 283.822 0 0 1 21.089 18.414zm-85.958-59.286-10.036-5.778a288.781 288.781 0 0 0-12.303-6.694l-3.648 7.109a281.427 281.427 0 0 1 11.964 6.51l10.036 5.778 3.987-6.925zM183.867-459.2l-2.937 7.431a276.05 276.05 0 0 0-25.767-8.742l2.191-7.684a283.94 283.94 0 0 1 26.513 8.995zm-53.783-15.33a283.433 283.433 0 0 0-27.762-3.61l-.638 7.964a275.676 275.676 0 0 1 26.979 3.509l1.421-7.863zM74.339-479l.148 7.989c-9.092.168-18.153.783-27.152 1.836l-.929-7.936A285.577 285.577 0 0 1 74.34-479zm-55.548 6.497 1.698 7.808a278.752 278.752 0 0 0-26.282 7.075l-2.45-7.605a286.888 286.888 0 0 1 27.034-7.278zm-53.231 17.156 3.181 7.33a277.773 277.773 0 0 0-24.404 12.043l-3.883-6.983a285.428 285.428 0 0 1 25.106-12.39zm-48.875 27.181 4.55 6.568a275.51 275.51 0 0 0-21.571 16.58l-5.176-6.087a283.334 283.334 0 0 1 22.197-17.061zm-42.602 36.229 5.753 5.546a275.67 275.67 0 0 0-17.896 20.497l-6.27-4.953a284.029 284.029 0 0 1 18.413-21.09zm-182.63 300.178 6.925 3.987-7.404 12.86a281.502 281.502 0 0 0-6.51 11.964l-7.109-3.648a288.913 288.913 0 0 1 6.694-12.303l7.404-12.86zM-334.2-41.09a283.827 283.827 0 0 0-8.995 26.513l7.684 2.19a276.033 276.033 0 0 1 8.742-25.766l-7.431-2.937zm-15.33 53.783 7.863 1.42a275.658 275.658 0 0 0-3.509 26.98l-7.964-.638a283.391 283.391 0 0 1 3.61-27.762zM-354 68.437l7.989-.148c.168 9.092.783 18.153 1.836 27.152l-7.936.929A285.577 285.577 0 0 1-354 68.437zm6.497 55.548 7.808-1.699a278.696 278.696 0 0 0 7.075 26.283l-7.605 2.451a286.954 286.954 0 0 1-7.278-27.035zm17.156 53.231 7.33-3.181a277.776 277.776 0 0 0 12.043 24.404l-6.983 3.883a285.378 285.378 0 0 1-12.39-25.106zm27.181 48.875 6.568-4.55a275.616 275.616 0 0 0 16.58 21.571l-6.087 5.176a283.375 283.375 0 0 1-17.061-22.197zm57.319 61.015 4.953-6.27a275.67 275.67 0 0 1-20.497-17.896l-5.546 5.753a283.797 283.797 0 0 0 21.09 18.413zm-47.891-404.583 6.924 3.987 14.808-25.718-6.924-3.987-14.808 25.718zm29.616-51.437 6.925 3.987 14.808-25.718-6.924-3.987-14.809 25.718zm29.617-51.437 6.924 3.988 14.809-25.719-6.925-3.987-14.808 25.718zm29.616-51.436 6.925 3.987 14.808-25.719-6.924-3.987-14.809 25.719zm29.617-51.437 6.925 3.987 7.404-12.859a281.816 281.816 0 0 1 7.079-11.637l-6.724-4.317a290.75 290.75 0 0 0-7.28 11.967l-7.404 12.859zm427.053-100.392-3.987 6.924 10.035 5.778a282.917 282.917 0 0 1 11.637 7.079l4.316-6.724a288.93 288.93 0 0 0-11.966-7.279l-10.035-5.778zm92.69 433.898-6.924-3.987-14.808 25.719L329.663 36l14.808-25.719zM314.855 61.72l-6.925-3.987-14.808 25.719 6.924 3.987 14.809-25.719zm-29.617 51.437-6.924-3.987-14.809 25.718 6.925 3.987 14.808-25.718zm-29.617 51.437-6.924-3.987-14.808 25.718 6.924 3.987 14.808-25.718zm-29.616 51.436-6.925-3.987-7.404 12.86a281.113 281.113 0 0 1-7.079 11.636l6.724 4.317a291.385 291.385 0 0 0 7.28-11.966l7.404-12.86z" fill="#fff" fill-opacity=".6"/><path d="m214.981 52.53 21.841-37.734 6.924 3.987-21.841 37.734-6.924-3.987zM80.742-27.96a7.99 7.99 0 1 1-15.98 0 7.99 7.99 0 0 1 15.98 0z" fill="#fff" fill-opacity=".6"/><path fill="url(#d)" d="M0 135h488v115H0z"/><path fill="url(#e)" d="M0 135h488v115H0z"/></g></g><defs><linearGradient id="d" x1="244" y1="135" x2="244" y2="250" gradientUnits="userSpaceOnUse"><stop stop-color="#fff" stop-opacity="0"/><stop offset="1" stop-color="#fff"/></linearGradient><linearGradient id="e" x1="244" y1="135" x2="244" y2="250" gradientUnits="userSpaceOnUse"><stop stop-color="#fff" stop-opacity="0"/><stop offset="1" stop-color="#fff"/></linearGradient><clipPath id="a"><path fill="#fff" d="M0 0h488v250H0z"/></clipPath><clipPath id="b"><path fill="#fff" d="M0 0h488v351H0z"/></clipPath><radialGradient id="c" cx="0" cy="0" r="1" gradientUnits="userSpaceOnUse" gradientTransform="matrix(487.99956 -2.50707 3.47572 676.54807 0 91.76)"><stop stop-color="#4A5EA7" stop-opacity=".59"/><stop offset=".33" stop-color="#3F58B7"/><stop offset=".609" stop-color="#3651B0"/><stop offset="1" stop-color="#4D67C2" stop-opacity=".55"/></radialGradient></defs></svg>
