<svg viewBox="0 0 488 250" fill="none" xmlns="http://www.w3.org/2000/svg"><g clip-path="url(#a)"><path opacity=".3" fill="url(#b)" d="M0 0h488v354H0z"/><path d="m125.815-88.647-5.982 11.11-.747 1.388-.748 1.389-32.472 59.817-.748 1.389-.748 1.388-108.098 198.573c-.641-.428-1.389-.855-2.03-1.282L78.282-7.679l1.495-2.778 18.8-34.608 1.495-2.778 18.586-34.288 1.496-2.777 1.922-3.525h3.739v-.213z" fill="#fff"/><path d="M658.616-89.075h-80.54L756.994 8.13v-43.795l-98.378-53.409zm-685.87 274.306c-33.648-18.266-46.145-60.565-27.88-94.212L42.925-89.075H-.87L-88.888 72.753c0 .107-.106.107-.106.213v102.545c9.613 17.838 24.247 33.113 43.367 43.581L95.692 296h80.54L-27.254 185.231z" fill="#fff"/><path d="M678.698-89.074h-20.082l98.378 53.515V-46.56l-78.296-42.513zM-45.627 219.092c-19.12-10.468-33.754-25.742-43.367-43.581v18.159c10.147 13.886 23.286 25.422 38.774 33.861L75.61 296h20.082l-141.319-76.908zM-.87-89.074l-10.896-.107-77.228 141.96V72.86c0-.106.107-.213.107-.213L-.87-89.073zM599.119-89.18l-22.218.106L756.994 8.877V-3.3L599.119-89.18zM-21.593 187.687c-36.211-19.654-49.67-65.158-30.016-101.369L43.565-89.074H31.708L-52.784 66.238l-8.118 14.847c-22.538 41.552-7.263 93.465 34.182 116.003l14.74 8.011 167.062 90.795h22.324l-199-108.206zM513.453 196.126l-29.588 54.584-1.602 2.777-23.073 42.406h-3.632l23.927-43.902 1.496-2.777 29.695-54.583 2.777 1.495zM487.926-89.074 278.565 295.893h-3.632L484.294-89.074h3.632z" fill="#fff"/><path d="M559.277 111.848c-.427-.214-.961-.534-1.388-.748-.428-.213-.962-.534-1.389-.747-18.586-9.614-39.842-11.643-59.924-5.769-10.361 3.098-19.761 8.012-27.879 14.634-8.118 6.623-14.955 14.741-20.082 24.248-10.254 18.906-12.604 40.697-6.516 61.313 5.982 20.188 19.227 36.851 37.386 47.213.428.213.962.534 1.389.747.427.214.961.534 1.389.748 11.749 6.089 24.461 9.079 36.958 9.079 28.627 0 56.399-15.274 70.926-42.085 21.043-38.561 7.157-86.949-30.87-108.633zm28.093 107.03c-20.188 37.066-66.333 51.059-103.612 31.832-.534-.214-.961-.534-1.389-.748-.427-.214-.961-.534-1.388-.748-17.411-9.934-30.123-25.956-35.891-45.29a78.544 78.544 0 0 1-3.204-22.111c0-12.711 3.204-25.316 9.4-36.852 9.827-18.159 26.277-31.404 46.038-37.279 7.263-2.136 14.634-3.204 22.004-3.204 12.284 0 24.354 2.884 35.463 8.652.427.213.961.427 1.389.748.427.32.961.534 1.388.747 17.411 9.934 30.123 25.957 35.891 45.291 6.088 19.867 3.845 40.804-6.089 58.962zM191.613 54.808c-.854-.748-1.602-1.495-2.457-2.136a80.122 80.122 0 0 0-13.565-9.293c-4.914-2.67-9.934-4.807-15.168-6.303-1.069-.32-2.137-.64-3.205-.854a80.258 80.258 0 0 0-20.081-2.564c-28.627 0-56.4 15.275-70.927 42.086-18.052 33.113-10.254 73.49 16.343 97.951.855.748 1.603 1.495 2.457 2.136 4.06 3.525 8.652 6.623 13.566 9.293 4.913 2.671 9.934 4.807 15.168 6.303 1.068.32 2.136.64 3.204.854a80.27 80.27 0 0 0 20.082 2.564 80.697 80.697 0 0 0 22.965-3.312c20.616-6.088 37.707-19.868 47.961-38.774 17.945-33.22 10.255-73.597-16.343-97.951zm13.459 96.349c-9.827 18.158-26.277 31.404-46.038 37.279-19.868 5.875-40.804 3.631-58.963-6.196-37.492-20.402-51.379-67.508-30.977-105 20.402-37.493 67.509-51.38 105.001-31.084 18.159 9.934 31.404 26.277 37.279 46.038 5.768 19.868 3.632 40.804-6.302 58.963zM471.581 21.267a5.02 5.02 0 1 0 0-10.04 5.02 5.02 0 1 0 0 10.04zM354.083 237.252a5.02 5.02 0 1 0-.002-10.042 5.02 5.02 0 0 0 .002 10.042z" fill="#fff"/><path d="m82.793 173.006-8.219 15.106 2.815 1.531 8.219-15.106-2.815-1.531zM165.171 21.562l-8.882 16.326 2.815 1.532 8.882-16.326-2.815-1.532zM114.303 190.244l-8.219 15.106 2.815 1.532 8.219-15.107-2.815-1.531zM196.638 38.654l-8.882 16.326 2.815 1.532 8.882-16.326-2.815-1.532zM137.032 119.219a5.02 5.02 0 1 0 0-10.04 5.02 5.02 0 0 0 0 10.04zM134.58 101.487l-21.791-11.856 1.495-2.778 19.014 10.362L143.659 78.2l2.884 1.496-11.963 21.79zM170.785 121.248l-21.791-11.856 11.857-21.898 2.777 1.496-10.255 19.12 19.014 10.254-1.602 2.884zM130.408 150.196l-2.777-1.496 11.856-21.897 21.791 11.856-1.495 2.884-19.014-10.361-10.361 19.014zM113.212 140.903l-2.777-1.603 10.361-19.013-19.013-10.361 1.496-2.778 21.79 11.857-11.857 21.898z" fill="#fff"/><path fill="url(#c)" d="M0 135h488v115H0z"/><path fill="url(#d)" d="M0 135h488v115H0z"/></g><defs><linearGradient id="c" x1="244" y1="135" x2="244" y2="250" gradientUnits="userSpaceOnUse"><stop stop-color="#fff" stop-opacity="0"/><stop offset="1" stop-color="#fff"/></linearGradient><linearGradient id="d" x1="244" y1="135" x2="244" y2="250" gradientUnits="userSpaceOnUse"><stop stop-color="#fff" stop-opacity="0"/><stop offset="1" stop-color="#fff"/></linearGradient><radialGradient id="b" cx="0" cy="0" r="1" gradientUnits="userSpaceOnUse" gradientTransform="matrix(487.99956 -2.50707 3.47572 676.54807 0 91.76)"><stop stop-color="#7D939C" stop-opacity=".4"/><stop offset=".432" stop-color="#60818F"/><stop offset=".599" stop-color="#60818F" stop-opacity=".88"/><stop offset="1" stop-color="#60818F" stop-opacity=".4"/></radialGradient><clipPath id="a"><path fill="#fff" d="M0 0h488v250H0z"/></clipPath></defs></svg>
