<svg viewBox="0 0 488 250" fill="none" xmlns="http://www.w3.org/2000/svg"><g clip-path="url(#a)"><path opacity=".4" fill="url(#b)" d="M0 0h488v354H0z"/><g opacity=".35" fill="#fff"><path d="m377.969 376.617 6.889-15.158 25.15-55.586-89.066-149.298-.957-1.569-85.6-49.421-85.472-49.347-1.837-.045-173.83-2.484-35.69 49.5-9.683 13.544-25.807 35.901 11.85 22.59 23.876 13.785-18.524-35.079 16.051-22.23 9.683-13.544 35.71-49.827 164.17 2.495 82.171 47.442L309.35 165.8l84.247 140.928-25.297 55.839-6.888 15.158-11.226 25.016-39.642 1.497 23.75 13.712 25.488-1.033 18.187-40.3z"/><path d="m590.284 359.664 1.57-5.359 2.162-7.557 1.737-5.941 1.257-4.523.073-.127 1.996-6.976 1.403-4.778 1.257-4.524 2.568-8.847 2.162-7.557 3.472-11.881.573-1.871 1.33-4.65 2.9-10.01.739-2.452.645-1.999.812-2.579 3.639-12.462 1.331-4.651 3.639-12.462 1.33-4.65 3.639-12.462 1.33-4.651 3.639-12.462 1.33-4.651 3.639-12.462 1.145-3.742-.489-.62-7.34-10.165-2.91-4.051-8.243-11.532-2.911-4.052-8.243-11.532-5.152-7.208-6.129-8.449-2.91-4.051-1.573-2.263-3.76-5.219-2.91-4.051-2.911-4.051-4.791-6.66-6.363-8.924-7.935-11.186-3.76-5.219-7.702-10.711-6.67-9.27-4.483-6.314-2.911-4.051-3.218-4.398-3.76-5.22-1.265-1.915-2.911-4.051-6.363-8.923-4.302-6.04-.542-.821-18.909-26.496-9.942-13.869-260.355-150.315-16.982-1.677-26.909-2.666-5.618-.534-.127-.074-.982-.059-7.382-.706-.073.127-10.709-1.102-4.964-.495.127.073-2.418-.211.073-.127-6.4-.647-.073.127-5.291-.515-.127-.073-4.964-.495.127.073-7.836-.798.073-.127-11.363-1.142-13.328-1.26.074-.127-6.4-.647-.074.127-13.454-1.333-10.91-1.049-.073.127-8.036-.746-4.964-.495.127.074-5.09-.569.073-.127-6.4-.647-.074.127-2.545-.284-.127-.073-4.963-.495.127.073L31.5-197.65l.073-.127-8.818-.858-14.11-1.373-.127-.073-4.963-.495.127.073-14.11-1.372-.126-.073-4.964-.495.127.073-12.473-1.274-.781-.113-2.669 2.862.054.2-8.973 9.383-.054-.201-3.362 3.478.054.2-8.973 9.383-.054-.201-3.362 3.478.053.2-8.973 9.382-.053-.2-3.363 3.478.054.2-8.973 9.382-.054-.2-3.362 3.477.053.201-8.972 9.382-.054-.2-3.363 3.477.054.201-8.973 9.382-.054-.2-3.362 3.477.054.201-41.009 42.872-13.743 14.418s-19.875 47.624-40.024 95.428c-9.672 23.203-19.543 46.46-27.063 64.471l35.561 20.531 40.948-98.788 20.434-21.9 62.432 125.623 7.319 14.894 24.32 49.093L311 383.504l54.676-3.485 16.557-1.109 140.01-8.744-8.749 28.646-65.08 84.857 35.561 20.531c35.954-47.315 104.933-138.048 104.933-138.048l1.375-6.488zm-16.374-7.422-3.471-8.946 9.645-.867-2.881 9.683-3.293.13zm-16.557 1.109-3.364-8.546 11.956-1.056 3.417 8.746-12.009.856zM413.812 129.759l9.063-1.033-1.548 12.654-7.515-11.621zm-548.075-176.39-5.39-10.901 1.656-.23 9.283-1.413 5.063 10.882-9.082 1.36-1.53.302zm-8.31-16.99 8.133-8.513 4.072 8.786-9.484 1.468-1.656.229-1.065-1.97zm171.7-119.652.81 1.823-10.184 7.667-4.736-10.862 14.11 1.372zm133.963 13.166 4.629 10.462-10.184 7.667-5.078-11.737 8.816-6.764 1.817.372zm33.384 15.21.347-.308-2 3.757-.293.508-.054-.201-.683-1.749 2.683-2.007zm61.679 21.047 7.671 13.404-15.444.058-7.671-13.403 15.444-.059zM446.135-21.254l4.223 7.349-5.13.086-4.402-.001-5.911-.027-7.671-13.403 15.443-.059 3.448 6.055zm40.246 34.412.293-.508-.397 3.327-1.856.283 1.96-3.102zm25.386 13.81 1.934 2.81-7.935.838 1.264-10.108 4.737 6.46zm5.875 8.302-1.396 11.217-12.703 1.472 1.548-12.653 11.447-1.35 1.104 1.314zm52.008 72.7-6.151.682.999-7.89 5.152 7.208zm5.46 7.555-1.185 8.799-12.63 1.344 1.548-12.653 9.591-1.067 2.676 3.577zm16.232 161.944 4.388 11.17-11.955 1.056-.342-.875.147-.254 4.174-6.056 3.588-5.041zm-83.227 1.903 1.396-11.217 12.703-1.471-1.529 12.326-11.901 1.256-.669-.894zm-26.428-57.761 12.63-1.345-1.528 12.326-12.703 1.472 1.601-12.453zm-28.102-28.756 10.519-1.208-1.323 11.09-2.584.37-6.612-10.252zM354.703 62.612l15.443-.059.054.2 2.309 4.213 5.235 9.118-15.444.059-4.277-7.55-2.309-4.212-1.011-1.77zm-30.735-17.745 15.444-.058 2.436 4.285 2.383 4.085 2.852 5.033-15.444.059-2.021-3.538-2.383-4.085-3.267-5.78zm-224.8-79.326L97.6-37.904l10.184-7.667 4.574 10.261-1.588 1.285-.073.127-11.53-.561zm-54.342-2.08-1.099-2.496 8.943-6.69 4.213 9.713.127.074-12.184-.6zm-18.223-.699-3.169-7.417 9.91-7.487 5.078 11.737-4.471 3.345-.074.127-7.274-.305zm-36.447-1.399-.576-1.349 9.91-7.486 3.98 9.24.127.073-13.44-.478zm-18.223-.7-2.719-6.142 9.91-7.486 5.078 11.737-3.03 2.315-.073.127-9.166-.55zm-17.167-.767-1.183-.005-.127-.074-4.862-10.935 9.91-7.487 5.077 11.737-8.815 6.764zm-19.406-.705 9.784-7.56 3.53 7.965.126.073-13.44-.478zm652.833 355.407-2.049 6.776-6.933.57-4.389-11.17 11.956-1.057 1.601 3.973-.186.908zm-5.042 17.24-2.231-5.521 3.894-.292-1.644 5.486-.019.327zm-9.856-25.164-.918-2.223.146-.254 6.755-9.647 1.583-.102 4.389 11.17-11.955 1.056zM375.276 62.467l15.444-.059 1.245 2.243 6.245 10.888-.22.38-15.116.079-5.469-9.592-2.129-3.939zm-10.161-17.89 15.443-.058.127.073 2.31 4.212 5.234 9.119-15.443.058-4.404-7.623-2.383-4.085-.884-1.695zM-122.598-84.431l1.62 3.645-5.897.83 4.277-4.475zm3.289-3.35 5.337-5.724 4.24-.6 5.063 10.882-11.867 1.784-2.773-6.342zm14.292-7.158 11.868-1.784.234.474-.366.635.053.2-5.197 11.055-1.656.229-4.936-10.809zm490.632 139.5 15.443-.059 1.245 2.243 6.353 11.288-3.874-.036-11.569.094-5.596-9.665-2.002-3.865zm21.584 1.624 10.646-1.135-5.954 9.432-4.692-8.297zm6.813-6.227-4.075.018-6.312.081-5.523-9.792-2.075-3.739 15.443-.058 1.192 2.042 6.479 11.361-5.129.087zm-20.605-9.187 5.288 9.319-15.443.058-4.331-7.75-2.383-4.085-.957-1.568 15.443-.059 2.383 4.085zM197.526-68.436l5.944-11.47 3.093-.077 4.404 7.623 3.394 5.854-15.443.059-1.392-1.99zm18.19-4.23-1.479-2.717-2.617-4.56L227.063-80l7.671 13.404-15.443.058-3.575-6.127zm21.508 10.555 7.671 13.403-15.443.059-7.671-13.404 15.443-.058zm5.13-.087 15.444-.058 7.671 13.404-15.444.058-7.671-13.404zm25.605 17.831 7.671 13.404-15.444.059-7.671-13.404 15.444-.059zm5.13-.086 15.443-.059 7.671 13.404-15.443.059-7.671-13.404zm25.604 17.83 7.671 13.405-15.443.058-7.671-13.404 15.443-.058zm5.13-.085 15.444-.059 7.671 13.404-15.444.058-7.671-13.403zm25.605 17.83 7.671 13.404-15.443.059-7.671-13.404 15.443-.058zm5.13-.086 15.443-.058 7.671 13.403-15.443.059-7.671-13.404zm25.605 17.831 7.671 13.404-15.444.058-7.671-13.403 15.444-.059zm5.13-.086 15.443-.059 7.671 13.404-15.444.058-7.67-13.403zm49.926 13.246-1.055.068-7.671-13.404 15.443-.058 7.671 13.404-14.388-.01zm-6.185.154-15.443.059-7.672-13.404 15.444-.058 7.671 13.403zm-25.605-17.83-7.671-13.404 15.444-.059 7.671 13.404-15.444.058zm-5.13.086-15.443.058-7.671-13.403 15.443-.059 7.671 13.404zm-25.731-17.904-7.671-13.404 15.443-.059 7.671 13.404-15.443.059zm-5.003.16-15.444.058-7.671-13.404 15.444-.059 7.671 13.404zm-25.732-17.905-7.671-13.404 15.444-.058 7.671 13.403-15.444.059zm-5.003.16-15.443.058-7.671-13.404 15.443-.058 7.671 13.404zm-25.731-17.905-7.671-13.403 15.443-.059 7.671 13.404-15.443.058zm-5.003.16-15.444.058-7.671-13.403 15.444-.059 7.671 13.404zm-25.732-17.904-7.671-13.404 15.443-.058 7.671 13.403-15.443.059zm-5.13.086-15.443.059-7.671-13.404 15.443-.059 7.671 13.404zm-25.605-17.83-7.67-13.405 15.443-.058 7.671 13.404-15.444.058zm-8.396-5.695 3.267 5.78-15.444.059-1.787-3.064 5.358-10.453 4.075-.019 4.531 7.697zm-49.017-17.463-.899 1.852-1.926 3.629-2.239 4.465-1.34 2.613-.347.308-.694.615-5.077-11.736 10.184-7.668 2.485 5.668-.147.254zm-14.578-2.32-5.077-11.737 10.184-7.667 5.077 11.737-10.184 7.667zm-3.577 2.676-10.184 7.667-5.15-11.61 10.184-7.667 5.15 11.61zm-203.375 7.044 4.058-8.495 1.728 4.046-5.786 4.449zm7.641-.33 5.077 11.737-9.91 7.486-5.15-11.61 9.983-7.613zm3.577-2.676 9.91-7.487 5.078 11.737-9.91 7.487-5.078-11.737zm13.488-10.163 9.91-7.486 5.077 11.736-9.91 7.487-5.077-11.737zm35.354 9.743-9.91 7.487-5.078-11.737 9.91-7.486 5.078 11.736zm-1.5-14.413 8.942-6.69 5.078 11.737-8.943 6.69-5.077-11.737zm-15.343 6.044-5.15-11.61 9.91-7.486 5.077 11.736-9.837 7.36zm-1.795 6.922 5.15 11.61-9.91 7.487-5.15-11.61 9.91-7.487zm7.005 15.73L4.191-77.61l-9.91 7.487-5.151-11.61 9.983-7.614zm3.578-2.677 9.91-7.486 5.077 11.737-9.91 7.486L2.69-92.023zm13.36-10.236 9.016-6.817 5.15 11.61-9.015 6.817-5.151-11.61zm12.593-9.493 10.184-7.668 5.078 11.737-10.184 7.667-5.078-11.736zm17.063 7.988 5.077 11.737L40.6-84.36l-5.077-11.737 10.184-7.667zm39.479 6.706L75-89.391 69.851-101l10.184-7.667 5.15 11.61zm-1.5-14.413 10.183-7.667 5.151 11.61-10.184 7.667-5.15-11.61zm-15.49 6.297-5.15-11.609 10.184-7.668 5.15 11.61-10.184 7.667zm-3.577 2.677L54.435-94.83l-5.077-11.737 10.184-7.667 5.077 11.737zm-11.98 14.59 5.151 11.609-10.184 7.667-5.15-11.61 10.184-7.667zm3.578-2.677L66.4-98.251l5.077 11.737-10.184 7.667-5.077-11.737zm16.99 8.115 5.15 11.61-10.184 7.667-5.15-11.61 10.183-7.666zm3.65-2.803 10.184-7.667 5.077 11.737-10.184 7.667-5.077-11.737zm13.76-10.343 10.185-7.667 5.151 11.61-10.184 7.667-5.151-11.61zm13.835-10.47 10.185-7.667 5.077 11.736-10.184 7.668-5.078-11.737zm16.99 8.115 5.151 11.61-10.184 7.667-5.151-11.61 10.184-7.667zm3.65-2.803 10.185-7.667 5.077 11.737-10.184 7.667-5.078-11.737zm11.906-14.462-5.077-11.737 10.184-7.667 5.151 11.61-10.258 7.794zm-3.577 2.676-10.184 7.667-5.15-11.61 10.184-7.667 5.15 11.61zm-17.116-8.189-5.151-11.61 10.184-7.667 5.151 11.61-10.184 7.667zm-3.651 2.803-10.184 7.667-5.15-11.61 10.184-7.667 5.15 11.61zm-16.99-8.115-5.15-11.61 10.184-7.667 5.151 11.609-10.184 7.668zm-3.65 2.803L81.83-115.59l-5.077-11.737 10.184-7.667 5.077 11.737zm-16.99-8.116-5.15-11.61 10.184-7.667 5.15 11.61-10.183 7.667zm-3.576 2.676-10.184 7.667-5.078-11.736 10.184-7.668 5.078 11.737zm-13.835 10.471-10.184 7.667-5.15-11.61 10.183-7.667 5.151 11.61zm-16.99-8.116-5.15-11.61 10.184-7.667 5.15 11.61-10.183 7.667zm-3.576 2.676-10.185 7.667-5.15-11.609 10.184-7.668 5.15 11.61zm-16.99-8.115-5.077-11.737 10.184-7.667 5.077 11.737-10.184 7.667zm-3.777 2.73-9.017 6.817-5.15-11.61 9.016-6.817 5.15 11.61zM.457-138.017l-5.077-11.737 9.016-6.817 5.077 11.737-9.016 6.817zm-3.577 2.676-9.91 7.487-5.151-11.61 9.91-7.486 5.15 11.609zm-13.561 10.29-9.91 7.487-5.078-11.737 9.91-7.487 5.078 11.737zm-16.716-8.296 6.776-14.376 3.007 6.816-9.783 7.56zm-1.722 6.795 5.15 11.61-9.91 7.486-2.826-6.542 5.177-10.727 2.41-1.827zM-64.26-69.038l.528-.034.288.674-1.788 1.338.972-1.978zm2.88-5.28.274-.181.4-.108-.18-.273-.289-.674 5.178-10.728.728-.087.9-1.852 4.34 9.788-9.911 7.486-1.44-3.371zm13.152-.197 5.15 11.61-9.91 7.487-5.077-11.737 9.837-7.36zm3.577-2.676 9.91-7.486 5.151 11.61-9.91 7.486-5.15-11.61zm13.488-10.162 9.91-7.487 5.15 11.61-9.91 7.487-5.15-11.61zm16.715 8.296L-9.37-67.32l-9.91 7.486-5.151-11.61 9.984-7.613zm7.006 15.729 5.15 11.61-9.91 7.486-5.15-11.61 9.91-7.486zm3.577-2.676 9.91-7.487 5.078 11.737-9.91 7.487-5.078-11.737zM9.496-76.24l9.91-7.487 5.151 11.61-9.91 7.487-5.151-11.61zm13.56-10.29 9.017-6.817 5.15 11.61-9.016 6.817-5.15-11.61zm15.75 9.092L43.881-65.7l-9.016 6.818L29.79-70.62l9.016-6.818zm7.005 15.73 5.15 11.61-8.942 6.69-5.15-11.61 8.942-6.69zm3.577-2.677 10.184-7.667 5.077 11.737-10.184 7.667-5.077-11.737zm16.99 8.116 5.077 11.737-10.184 7.667-5.077-11.737 10.184-7.667zM70.155-59l10.184-7.667 5.077 11.737-10.184 7.667L70.155-59zM83.79-69.416l10.184-7.667 5.078 11.737-10.184 7.667-5.078-11.737zm13.835-10.47 10.184-7.667 5.077 11.737-10.184 7.667-5.077-11.737zm16.989 8.116 5.078 11.736-10.184 7.668-5.078-11.737 10.184-7.667zm3.577-2.677 10.184-7.667 5.078 11.737-10.184 7.667-5.078-11.737zm13.835-10.47 10.184-7.667 5.077 11.737-10.184 7.667-5.077-11.737zm13.634-10.416 10.184-7.668 5.077 11.737-10.184 7.667-5.077-11.737zm14.854 9.76.347-.307-.899 1.852-2.239 4.464-2.826 5.481-.054-.2-2.197-4.994 7.868-6.295zm27.143 35.992 6.458-12.358 2.037-.01 7.671 13.404-15.443.059-.723-1.095zm15.104-9.737-1.479-2.717 15.443-.059 7.671 13.404-15.443.059-6.192-10.687zm24.126 15.114 7.671 13.404-15.444.058-7.671-13.403 15.444-.059zm5.056.04 15.444-.058 7.671 13.404-15.444.058-7.671-13.403zm25.678 17.705 7.671 13.403-15.443.059-7.671-13.404 15.443-.058zm5.057.04 15.443-.058 7.671 13.403-15.443.059-7.671-13.404zm25.678 17.704 7.671 13.404-15.444.058-7.671-13.403 15.444-.059zm5.056.04 15.444-.058 7.671 13.404-15.444.059-7.671-13.404zM319.089 9.03l7.671 13.403-15.443.06-7.671-13.405 15.443-.058zm5.057.04 15.443-.058 7.671 13.404-15.443.058-7.671-13.403zm25.678 17.704 2.383 4.086 2.382 4.085 2.979 5.106-15.443.059-2.022-3.538-2.309-4.212-3.267-5.781 15.297.195zm9.588 7.737-2.383-4.085-2.075-3.738 15.443-.058 1.192 2.042 2.309 4.212 4.17 7.15-15.443.058-3.213-5.58zM562.109 253.31l1.053-7.69 4.695-.506-5.748 8.196zm8.862-13.003-7.407.804 1.528-12.326 12.63-1.344-.47 3.454-6.281 9.412zm-11.775 1.33-12.63 1.345 1.528-12.326 12.704-1.472-1.602 12.453zm-10.572-15.417 1.528-12.326 12.703-1.472-1.528 12.326-12.703 1.472zm2.057-16.762 1.528-12.326 12.703-1.471-1.528 12.326-12.703 1.471zm-17.986-25.455-1.396 11.217-12.629 1.344 1.396-11.217 12.629-1.344zm-12.1-3.092 1.548-12.653 12.703-1.471-1.548 12.653-12.703 1.471zm16.468 2.566 12.703-1.472-1.322 11.09-12.703 1.472 1.322-11.09zm10.778 14.181-1.528 12.326-12.703 1.472 1.528-12.326 12.703-1.472zm5.024-4.889 1.396-11.217 12.63-1.344-1.396 11.217-12.63 1.344zm1.999-15.779 1.548-12.654 12.703-1.471-1.548 12.653-12.703 1.472zm-4.569.579-12.629 1.345 1.548-12.653 12.629-1.345-1.548 12.653zm-10.425-15.671 1.548-12.653 12.629-1.345-1.548 12.654-12.629 1.344zm-4.495.453-12.63 1.344 1.548-12.653 12.63-1.344-1.548 12.653zm-30.571-25.948-1.548 12.654-12.63 1.344 1.548-12.653 12.63-1.345zm-11.974-3.018 1.548-12.653 12.63-1.344-1.548 12.653-12.63 1.344zm16.469 2.565 12.63-1.344-1.548 12.653-12.63 1.345 1.548-12.654zm-6.645 17.67-1.548 12.653-12.703 1.471 1.548-12.653 12.703-1.471zm4.568-.58 12.703-1.472-1.548 12.653-12.703 1.472 1.548-12.653zm17.727-6.361 1.548-12.653 12.703-1.471-1.548 12.653-12.703 1.471zm2.077-17.089 1.548-12.653 12.63-1.344-1.548 12.653-12.63 1.344zm-4.495.453-12.703 1.472 1.548-12.654 12.703-1.471-1.548 12.653zm-10.426-15.671 1.548-12.654 12.63-1.344-1.548 12.653-12.63 1.345zm-4.495.453-12.629 1.344 1.548-12.653 12.629-1.345-1.548 12.654zm-17.197 1.924-12.703 1.471 1.547-12.653 12.703-1.471-1.547 12.653zm6.645-17.67 1.548-12.652 12.629-1.345-1.548 12.653-12.629 1.345zm-4.441.654-12.63 1.344 1.548-12.653 12.629-1.344-1.547 12.653zm-17.125 1.797-12.703 1.472 1.548-12.653 12.703-1.472-1.548 12.653zm6.572-17.542 1.548-12.653 12.629-1.344-1.548 12.653-12.629 1.344zm-4.495.453-12.63 1.344 1.548-12.653 12.63-1.344-1.548 12.653zM467.143 68.77l1.548-12.654 12.703-1.47-1.548 12.652-12.703 1.472zm-4.495.453-12.703 1.47.186-.908 3.554-5.568 4.067-6.458.22-.38 6.151-.683-1.475 12.526zm-65.661-5.059-1.011-1.769 10.842-.006-.44.762-5.294 8.29-4.097-7.277zm45.763 16.939 1.814-2.848-1.318 9.908-5.423.594 4.927-7.654zm6.666-5.973 12.703-1.471-1.548 12.653-12.703 1.471 1.548-12.653zM459.842 90.8l-1.548 12.654-12.703 1.471 1.548-12.653 12.703-1.472zm-2.151 17.217-1.547 12.653-12.63 1.344 1.548-12.653 12.629-1.344zm4.569-.58 12.629-1.345-1.547 12.653-12.63 1.345 1.548-12.653zm10.425 15.671-1.547 12.653-12.703 1.472 1.547-12.653 12.703-1.472zm4.495-.453 12.63-1.344-1.548 12.653-12.629 1.344 1.547-12.653zm10.553 15.745-1.548 12.653-12.703 1.472 1.548-12.654 12.703-1.471zm-2.277 17.143-1.548 12.653-12.63 1.344 1.548-12.653 12.63-1.344zm-20.823 31.667-12.703 1.471 1.548-12.653 12.703-1.472-1.548 12.654zm6.116-13.234 12.703-1.471-1.548 12.653-12.703 1.472 1.548-12.654zm17.125-1.797 12.629-1.344-1.547 12.653-12.63 1.344 1.548-12.653zm17.198-1.924 12.703-1.472-1.548 12.654-12.703 1.471 1.548-12.653zm10.425 15.671-1.396 11.217-12.703 1.472 1.396-11.217 12.703-1.472zm-1.925 15.653-1.528 12.326-12.63 1.345 1.529-12.326 12.629-1.345zm4.368-.526 12.703-1.471-1.528 12.325-12.63 1.345 1.455-12.199zm10.646 15.29-1.528 12.326-12.63 1.345 1.528-12.326 12.63-1.345zm4.495-.452 12.63-1.345-1.529 12.326-12.629 1.344 1.528-12.325zm10.445 15.344-1.528 12.326-12.703 1.471 1.528-12.326 12.703-1.471zm-2.057 16.762-1.528 12.325-12.63 1.345 1.528-12.326 12.63-1.344zm4.495-.453 12.703-1.472-1.528 12.326-12.63 1.344 1.455-12.198zm9.59 15.358-2.453 3.664-6.482 9.466-4.294.399 1.528-12.326 11.701-1.203zm-12.249 17.99-1.153 1.705-.787 1.069.284-2.545 1.656-.229zm39.915-58.575-.327-.02 1.528-12.326 7.734-.784-8.935 13.13zm-4.769.633-12.703 1.471 1.528-12.325 12.704-1.472-1.529 12.326zm-10.572-15.417 1.528-12.326 12.703-1.472-1.528 12.326-12.703 1.472zm2.184-16.689 1.396-11.217 12.703-1.471-1.396 11.217-12.703 1.471zm1.925-15.653 1.548-12.653 12.63-1.344-1.548 12.653-12.63 1.344zm2.151-17.216 1.548-12.653 12.703-1.472-1.548 12.654-12.703 1.471zm-4.442.653-12.629 1.345 1.548-12.654 12.629-1.344-1.548 12.653zm-10.552-15.745 1.548-12.653 12.703-1.471-1.548 12.653-12.703 1.471zm-4.495.453-12.63 1.345 1.548-12.653 12.63-1.345-1.548 12.653zm-10.426-15.671 1.548-12.653 12.703-1.472-1.548 12.654-12.703 1.471zm2.15-17.216 1.548-12.654 12.63-1.344-1.548 12.653-12.63 1.345zm-4.568.58-12.63 1.344 1.548-12.653 12.63-1.345-1.548 12.654zM531.38 95.358l1.548-12.653 12.63-1.344-1.548 12.653-12.63 1.344zm-4.495.453-12.703 1.471 1.548-12.653 12.63-1.344-1.475 12.526zM516.46 80.14l1.548-12.654 12.629-1.344-1.548 12.653-12.629 1.345zm-4.495.453-12.703 1.47 1.548-12.652 12.703-1.472-1.548 12.654zm-10.553-15.745 1.548-12.654 12.63-1.344-1.548 12.653-12.63 1.345zm-4.568.58-12.63 1.344 1.548-12.653 12.63-1.345-1.548 12.654zm-10.426-15.672 1.548-12.653 12.703-1.471-1.548 12.653-12.703 1.471zm-4.495.453-12.63 1.344 1.548-12.653 12.63-1.344-1.548 12.653zm-17.198 1.924-3.64.439 3.48-5.442 1.081-1.577-.921 6.58zm-41.879-14.865-5.235-9.119-.957-1.568 6.64-.061 6.439-.008-.22.38-6.667 10.376zm14.361-22.528-3.554 5.568-6.66-11.634 11.041-.06 3.22-.004-4.047 6.13zm1.303-10.763-14.061.01-7.671-13.403 15.443-.059 6.48 11.361 1.191 2.043-1.382.048zm-19.064.17-15.443.059-7.671-13.404 15.443-.059 7.671 13.404zm-25.678-17.704-7.671-13.403 15.444-.06 7.671 13.405-15.444.058zm-5.057-.04-15.443.058-7.671-13.404L381.04-27l7.671 13.403zm-25.804-17.778-7.671-13.404 15.443-.058 7.671 13.404-15.443.058zm-4.93.033-15.644.112-7.671-13.404 15.444-.058 7.871 13.35zM332.172-49.12l-7.671-13.404 15.443-.059 7.671 13.404-15.443.059zm-4.93.032-15.443.059-7.671-13.404 15.443-.058 7.671 13.403zm-25.805-17.777-7.671-13.404 15.444-.058 7.671 13.403-15.444.059zm-4.929.033-15.444.058-7.671-13.404 15.444-.058 7.671 13.404zM270.703-84.61l-7.671-13.403 15.443-.059 7.671 13.404-15.443.058zm-5.057-.04-15.443.058-7.671-13.403 15.443-.059 7.671 13.404zm-25.678-17.704-7.671-13.404 15.444-.058 7.671 13.403-15.444.059zm-5.056-.041-15.444.059-2.256-4.012 4.972-9.491 5.13-.087 7.598 13.531zm-56.419-17.841.347-.307-.293.508-2.239 4.464-1.559 2.995-.054-.201-1.44-3.371 5.238-4.088zm-7.147-.232-5.151-11.609 10.184-7.668 5.151 11.61-10.184 7.667zm-6.879-15.655-5.15-11.61 10.184-7.667 5.077 11.737-10.111 7.54zm-3.577 2.676-10.184 7.667-5.151-11.61 10.184-7.667 5.151 11.61zm-17.117-8.189-5.15-11.61 10.184-7.667 5.151 11.61-10.185 7.667zm-3.523 2.876-10.184 7.668-5.077-11.737 10.184-7.667 5.077 11.736zm-17.117-8.188-5.15-11.61 10.184-7.667 5.151 11.609-10.185 7.668zm-3.577 2.676-10.184 7.667-5.077-11.737 10.184-7.667 5.077 11.737zm-17.063-7.989-5.15-11.61 10.184-7.667 5.151 11.61-10.185 7.667zm-3.577 2.676-10.184 7.668-5.15-11.61 10.184-7.667 5.15 11.609zM81.8-157.772l-5.15-11.61 10.183-7.667 5.15 11.609-10.183 7.668zm-3.524 2.876-10.184 7.667-5.077-11.737 10.184-7.667 5.077 11.737zm-13.76 10.343-10.185 7.667-5.15-11.609 10.184-7.668 5.15 11.61zm-17.064-7.988-5.077-11.737 10.184-7.667 5.077 11.737-10.184 7.667zm-3.577 2.676-10.184 7.667-5.15-11.61 10.184-7.667 5.15 11.61zm-17.116-8.189-5.078-11.737 10.184-7.667 5.078 11.737-10.184 7.667zm-3.65 2.803-10.185 7.667-5.15-11.609 10.184-7.668 5.15 11.61zm-16.99-8.115-5.151-11.61 10.184-7.667 5.15 11.61-10.183 7.667zm-3.577 2.676-9.017 6.817-5.077-11.737 9.016-6.817 5.078 11.737zm-12.594 9.493-9.91 7.487-4.106-9.313 2.259-4.792 6.607-4.991 5.15 11.609zm-77.646 43.565.274-.181-2.865 6.136-.328-.02-5.063-10.882 10.94-1.643-2.958 6.59zm-11.27-1.596 3.71 8.238-11.868 1.784-.522-1.148 8.68-8.874zm-20.154 32.56 5.062 10.883-11.867 1.784-5.063-10.882 11.868-1.784zm4.641-.706 11.868-1.785.81 1.823-.293.508-.973 1.978.347-.307-3.911 8.24-2.985.478-4.863-10.935zm43.9 22.805.973-1.978-.728.087.9-1.85 7.774-5.842 5.15 11.61-9.91 7.487-4.16-9.514zm32.863-6.766 9.91-7.486 5.15 11.61-9.91 7.486-5.15-11.61zm45.81 22.723L3.014-50.349l9.91-7.486 5.151 11.61-9.983 7.613zm8.41-21.9 9.91-7.486 5.15 11.61-9.91 7.487-5.15-11.61zM67.25-35.782l6.26-4.684 2.197 4.994.127.073-8.584-.383zm13.294.732-3.456-8.092 10.184-7.667 5.077 11.737-5.64 4.195-.073.127-6.092-.3zM90.722-53.56l10.184-7.667 5.15 11.61-10.184 7.667-5.15-11.61zm20.64 5.313 10.184-7.667 4.574 10.26-10.184 7.668-4.574-10.261zm13.834-10.47 10.184-7.668 4.575 10.262-10.184 7.667-4.575-10.261zm13.634-10.417 10.184-7.667 3.242 7.29.054.2-.66 1.143-.973 1.979-1.486 2.867-.347.308-5.512 4.268-4.502-10.388zm39.229 38.228 5.285-10.327.293-.508 1.12-2.232.982.059 7.671 13.403-15.243.005-.108-.4zm12.81-13.095 15.443-.058 7.671 13.403-15.443.06-7.671-13.405zm25.678 17.704 7.671 13.404-15.444.059-7.671-13.404 15.444-.059zm5.056.041 15.444-.058 7.671 13.403-15.444.059-7.671-13.404zm25.678 17.704 7.671 13.404-15.443.058-7.671-13.403 15.443-.06zm5.057.04 15.443-.058 7.671 13.404-15.443.058-7.671-13.403zm25.678 17.705 7.671 13.403-15.444.059-7.671-13.404 15.444-.058zm5.056.04 15.444-.058 7.671 13.403-15.444.059-7.671-13.404zm25.678 17.704 7.671 13.404-15.443.058-7.671-13.403 15.443-.059zm9.515 7.864-4.458-7.823 15.443-.059 3.501 6.255 2.31 4.212 1.787 3.064-15.443.058-.83-1.495-2.31-4.212zm30.862 17.818-2.383-4.085-2.075-3.738 15.443-.059 1.245 2.243 2.383 4.085 4.043 7.076-15.443.059-3.213-5.58zm31.381 27.77 1.372 2.316 5.649 9.866-.513.89-14.461.117-5.161-9.246-2.33-3.884 15.444-.059zm6.067 1.81-1.011-1.77 9.86-.064-.367.635-.22.38-4.634 7.147-3.628-6.328zm45.294 15.99 2.894-4.425 7.935-.838-1.548 12.653-11.174 1.169.94-6.908.953-1.65zm8.698 11.626-1.548 12.653-11.174 1.169 1.548-12.653 11.174-1.169zm-2.15 17.216-1.548 12.653-11.174 1.169 1.548-12.653 11.174-1.169zm4.494-.453 12.704-1.471-1.548 12.653-12.703 1.471 1.547-12.653zm10.426 15.672-1.548 12.653-12.629 1.344 1.548-12.653 12.629-1.344zm4.568-.58 12.704-1.472-1.548 12.654-12.703 1.471 1.547-12.653zm10.553 15.745-1.548 12.653-12.629 1.344 1.547-12.653 12.63-1.344zm-20.328 26.703-4.497-7.169 5.423-.594-.926 7.763zm20.469 7.076 12.63-1.345-1.396 11.217-12.63 1.345 1.396-11.217zm17.071-1.998 12.703-1.471-1.396 11.217-12.703 1.471 1.396-11.217zm10.704 14.309-1.528 12.325-12.703 1.472 1.528-12.326 12.703-1.471zm2.311 16.235 12.703-1.471-1.528 12.326-12.703 1.471 1.528-12.326zm10.646 15.291-1.528 12.326-12.63 1.344 1.528-12.326 12.63-1.344zm4.495-.453 12.703-1.472L525 245.432l-12.629 1.345 1.455-12.199zm10.445 15.344-1.528 12.326-12.63 1.344 1.528-12.326 12.63-1.344zm2.438 16.309 12.629-1.345-1.528 12.326-12.703 1.472 1.602-12.453zm10.445 15.344-1.264 10.108-1.52 2.34-11.247 1.296 1.528-12.326 12.503-1.418zm30.042 30.383.22-.381 3.039-.277 4.388 11.17-11.955 1.056-1.367-3.498 5.675-8.07zm9.229 14.812 4.388 11.17-11.955 1.056-4.389-11.17 11.956-1.056zm14.576-21.727-1.256.122-4.389-11.17 8.99-.906-3.345 11.954zm4.522-100.515-10.446 1.081 1.528-12.326 12.63-1.344-1.039 8.545-2.673 4.044zm-8.389-15.681 1.396-11.216 12.703-1.472-1.396 11.217-12.703 1.471zm2.052-15.579 1.548-12.653 12.63-1.345-1.548 12.654-12.63 1.344zm2.077-17.089 1.548-12.654 1.984-.209 8.243 11.533-11.775 1.33zm-2.217-16.69-12.703 1.471 1.547-12.653 5.824-.702 5.694 8.029-.362 3.855zm-10.553-15.745.377-3 2.007 2.683-2.384.317zm-29.915-30.31 1.548-12.653.127.073 8.243 11.533-9.918 1.047zm-2.418-16.636-12.703 1.471 1.548-12.653 3.84-.492 7.34 10.164-.025 1.51zm-10.425-15.672.092-.454.362.547-.454-.093zm-4.495.453-12.63 1.344 1.548-12.653 7.607-.857 4.122 5.766-.647 6.4zm-10.553-15.745.715-5.344 3.58 4.945-4.295.4zm-19.489-14.639-12.63 1.345 1.548-12.653 12.63-1.345-1.548 12.653zM484 33.12l-11.374 1.223 2.747-4.172 5.367-8.416.44-.762 4.368-.526L484 33.12zM444.534 3.222l-1.191-2.043-3.628-6.328-2.383-4.085 2.892-.023 4.402.001 7.949.017-8.041 12.46zM429.785-13.76l-15.444.058-7.671-13.403 15.444-.059 7.671 13.404zM404.18-31.591l-7.671-13.404 15.444-.058 7.671 13.403-15.444.059zm-5.13.086-15.443.059-7.671-13.404 15.443-.059 7.671 13.404zm-25.731-17.904-7.671-13.404 15.443-.058 7.671 13.403-15.443.059zm-5.003.16-15.444.058-7.671-13.404 15.444-.058 7.671 13.404zm-25.732-17.905-7.671-13.403 15.443-.059 7.671 13.404-15.443.058zm-5.003.16-15.443.058-7.671-13.403 15.443-.059 7.671 13.404zM311.85-84.898l-7.671-13.404 15.443-.058 7.671 13.403-15.443.059zm-5.003.16-15.444.058-7.671-13.404 15.444-.058 7.671 13.403zm-25.732-17.905-7.671-13.404 15.443-.058 7.671 13.404-15.443.058zm-5.13.086-15.443.059-7.671-13.404 15.443-.058 7.671 13.403zm-30.735-17.744-15.443.058-2.852-5.033 4.459-8.602 6.239.046 7.597 13.531zm-11.543-17.841.606-1.344.776 1.295-1.382.049zm-9.137 17.585.18.274-.327-.02.073-.127.074-.127zm-32.628-25.611.054.2-1.193 2.36-1.486 2.867-.9 1.851-.513.889-2.239 4.465-.826 1.724-.054-.2-4.628-10.461 10.184-7.668 1.601 3.973zm-13.767-.498-5.151-11.61 10.184-7.667 5.151 11.61-10.184 7.667zm-1.102-22.142 2.218.265-8.122 6.148-3.242-7.29 9.146.877zm-26.471.974-1.674-3.846 5.945.554-4.271 3.292zm-6.711-4.214 3.061 7.017-10.184 7.667-5.151-11.61 4.892-3.78 7.382.706zm-13.929-1.099-.181-.273.455.093-.274.18zm-5.144-.768 1.567 3.444-10.184 7.668-5.077-11.737.967-.796 12.727 1.421zm-19.073-1.868-10.184 7.667-3.925-9.039 14.109 1.372zm-30.824 2.355-2.358-5.595 8.691.785-6.333 4.81zm-7.449-6.163 3.872 8.839-10.184 7.667-5.15-11.61 6.953-5.298 4.51.402zm-13.245.65-.864-2.023 3.2.324-2.336 1.699zm-5.827-2.518 2.377 5.268-10.184 7.667-5.077-11.737 3.03-2.315 9.854 1.117zm-49.214 2.237-3.168-7.418 11.49 1.216-8.322 6.202zm-3.65 2.803-9.016 6.817-1.206-2.897 6.297-12.96 3.925 9.04zm-12.466 9.567-.548.361.44-.762.108.401zm-64.872 46.368-2.163-4.466 8.626-9.075-6.263 13.487-.053-.2-.147.254zm-5.325-1.043 1.46 3.045-5.042.814-.127-.073 3.71-3.786zm-36.818 61.718 11.868-1.784 1.64 3.318-4.004 8.695-4.314.727-5.19-10.956zm7.118 14.948-.073.127.073-.127zm46.828 2.482-1.515 1.157-.073.127-5.965-.226 4.204-8.75 3.35 7.692zm31.585 2.487 3.997-3.11 1.387 3.17.127.074-5.511-.134zm52.759 2.181 5.439-4.141 1.909 4.32.127.073-7.475-.252zm78.984 3.099.621-.489.108.4.126.074-.855.015zm34.737 1.428-10.294-.355-.127-.074 10.184-7.667 3.637 8.365.127.074-3.527-.343zm13.914-16.182-.66 1.143-2.239 4.465-3.798 7.459-.22.38-.054-.2-3.583-8.164 10.184-7.668.756 1.623.054.2-.44.762zm32.007 26.1 1.486-2.868.201-.054 7.671 13.404-3.22.004-9.017-5.206 2.879-5.28zm6.87-2.808 15.243-.004 7.671 13.403-15.243.005-7.671-13.404zm25.278 17.812 7.671 13.403-2.893.024-18.415-10.632-1.607-2.79 15.244-.005zm5.129-.087 15.444-.058 7.671 13.403-15.444.059-7.671-13.404zm25.605 17.831 7.671 13.404-2.892.024-18.796-10.853-1.426-2.516 15.443-.059zm5.13-.086 15.444-.059 7.67 13.404-15.443.059-7.671-13.404zm25.605 17.83 7.671 13.405-2.893.023-18.796-10.852-1.426-2.517 15.444-.058zm5.13-.085 15.443-.059 7.671 13.404-15.443.058-7.671-13.403zm25.604 17.83 7.671 13.404-2.892.024-18.796-10.852-1.426-2.517 15.443-.059zm5.13-.086 15.444-.058 5.288 9.318.649 1.222 1.66 2.99-15.443.059-7.598-13.53zm25.605 17.831 2.436 4.286 2.383 4.085 2.852 5.033-2.892.023-18.924-10.925-1.426-2.517 15.571.015zm9.642 7.937-2.383-4.085-2.203-3.811 15.444-.059 1.245 2.243 2.31 4.212 4.043 7.076-15.444.058-3.012-5.634zm7.075 12.383-.415-.748-1.011-1.769 15.443-.058.181.273 2.383 4.086 4.927 8.77-3.22.005-12.954-7.48-5.334-3.08zm38.332 14.85-1.007 1.45-2.326 3.737-4.064-2.346-.362-.548-1.245-2.243 9.004-.05zm30.566 27.129 6.301-9.739 2.106-3.356 1.784-.156-1.548 12.653-8.863.979.22-.381zm10.16 22.292.318-2.018 11.174-1.169-1.548 12.654-3.64.438-6.304-9.905zm9.214 13.956-.039.655-.361-.548.4-.107zm3.682 6.529.813-6.982 12.703-1.471-1.548 12.653-8.662.926-3.306-5.126zm28.141 44.526.662-5.545 12.703-1.471-1.528 12.326-7.935.838-3.902-6.148zm11.234 9.873-.793 6.654-3.902-6.148 4.695-.506zm5.022 15.938 9.992-1.174-1.528 12.326-1.256.122-7.208-11.274zm11.94 18.916.489-3.781 12.703-1.472-1.528 12.326-6.679.716-4.985-7.789zm10.935 11.563-.622 4.89-2.818-4.505 3.44-.385zm6.278 15.817 8.662-.926-1.528 12.326-7.134-11.4zm10.928 17.147.245-1.891 8.662-.925-5.547 8.142-3.36-5.326zm25.349 38.511.342.875-.929.141.587-1.016zm2.947-4.225 4.961-7.126 4.495-.453 4.389 11.17-11.955 1.056-1.89-4.647zm47.261-53.995-1.815-4.774 3.366-.258-1.551 5.032zm2.881-9.682-5.951.628 1.574-2.139 8.476-12.041-3.38 11.427-.719 2.125zm2.937-79.586.133-1.109.728-.088-.861 1.197zm4.175-6.057-3.44.385 1.396-11.217 10.119-1.101-8.075 11.933zm-1.515-15.268 1.284-10.435 6.724 9.47-8.008.965zM493.361 1.948l8.986 12.3-11.575 1.276 1.47-11.344.146-.254-.127-.073 1.1-1.905zm-29.979-28.146-7.967 12.334-7.671-13.404 13.606-.103 2.032 1.173zm-9.652-5.573-8.476.017-4.224-7.35 12.7 7.333zm-20.32-11.732 6.714 11.835-15.444.059-7.671-13.404 13.607-.103 2.794 1.613zm-10.414-6.012-8.477.017-4.224-7.35 12.701 7.333zm-20.321-11.732 6.714 11.835-15.443.058-7.671-13.403 13.606-.103 2.794 1.613zm-10.541-6.086-8.477.017-4.223-7.35 12.7 7.333zm-20.193-11.659 6.714 11.835-15.444.059-7.671-13.404 13.607-.103 2.794 1.613zm-10.542-6.086-8.476.017-4.224-7.35 12.7 7.333zm-20.193-11.659L347.92-84.9l-15.443.058-7.671-13.403 13.606-.104 2.794 1.613zm-10.541-6.085-8.477.016-4.223-7.349 12.7 7.333zm-20.194-11.659 6.714 11.835-15.443.059-7.671-13.404 13.606-.103 2.794 1.613zm-10.541-6.086-8.476.017-4.224-7.35 12.7 7.333zm-20.193-11.659 6.714 11.835-15.444.059-7.671-13.404 13.607-.103 2.794 1.613zm-10.541-6.086-8.477.017-4.224-7.349 12.701 7.332zm-23.242-13.418 2.921 1.686 6.714 11.835-15.443.059-3.394-5.854 3.872-7.586 5.33-.14zm-44.455-12.458-.347.308-9.089 6.944-4.682-10.662 15.218 1.505-1.1 1.905zM-132.08-42.492l1.656-.229 8.883-1.306 1.982 4.192-7.312 7.971-5.209-10.628zm520.876 406.225-16.558 1.108-57.969 3.617L-25.208 172.46l-25.853-52.01-7.318-14.894-57.638-115.744 24.492-1.946 7.123-14.684 210.729 8.378-.147.254 5.186 7.735 29.647 12.883 3.632-6.877 1.651.953 1.778 1.026L344.861 99.603l6.35 3.666 18.034 10.412 1.779 1.027 1.905 1.099-1.428 1.886-2.967 4.552 9.755 7.156 5.221 3.861 11.205 8.163 9.292.623.147-.254 1.03 1.442 2.637 4.232 7.315 11.674 2.637 4.231.776 1.295 3.721 5.874 2.818 4.505 2.637 4.232 3.721 5.874 6.177 9.832 7.857 12.495 3.721 5.873 4.678 7.443 2.583 4.031 3.125 4.853 3.721 5.873.361.548 2.711 4.104 7.207 11.274 3.956 6.347 5.762 9.085 2.583 4.031 2.041 3.211 3.721 5.873 1.445 2.19 2.584 4.031 6.357 10.105 3.721 5.874 11.217 17.822-9.155 13.51 10.56 22.184-129.583 7.991zm153.328-9.522 2.621-8.647 4.695-.506 3.31 8.345-10.626.808z"/></g><path fill="url(#c)" d="M0 135h488v115H0z"/><path fill="url(#d)" d="M0 135h488v115H0z"/></g><defs><linearGradient id="c" x1="244" y1="135" x2="244" y2="250" gradientUnits="userSpaceOnUse"><stop stop-color="#fff" stop-opacity="0"/><stop offset="1" stop-color="#fff"/></linearGradient><linearGradient id="d" x1="244" y1="135" x2="244" y2="250" gradientUnits="userSpaceOnUse"><stop stop-color="#fff" stop-opacity="0"/><stop offset="1" stop-color="#fff"/></linearGradient><radialGradient id="b" cx="0" cy="0" r="1" gradientUnits="userSpaceOnUse" gradientTransform="matrix(487.99956 -2.50707 3.47572 676.54807 0 91.76)"><stop stop-color="#D9BBBB"/><stop offset=".432" stop-color="#AF0000"/><stop offset=".609" stop-color="#AF0000" stop-opacity=".88"/><stop offset="1" stop-color="#C77B7B"/></radialGradient><clipPath id="a"><path fill="#fff" d="M0 0h488v250H0z"/></clipPath></defs></svg>
