<svg fill="none" viewBox="0 0 488 250" xmlns="http://www.w3.org/2000/svg" xmlns:xlink="http://www.w3.org/1999/xlink"><radialGradient id="a" cx="0" cy="0" gradientTransform="matrix(-469.99993453 1.00077317 -1.37959694 -647.90953121 475.5 69.5)" gradientUnits="userSpaceOnUse" r="1"><stop offset="0" stop-color="#2b916d" stop-opacity=".76"/><stop offset=".315442" stop-color="#2b916d"/><stop offset=".65026" stop-color="#2b916d"/><stop offset=".991274" stop-color="#2b916d" stop-opacity=".76"/></radialGradient><linearGradient id="b" gradientUnits="userSpaceOnUse" x1="244" x2="244" y1="135" y2="250"><stop offset="0" stop-color="#fff" stop-opacity="0"/><stop offset="1" stop-color="#fff"/></linearGradient><clipPath id="c"><path d="m0 0h488v250h-488z"/></clipPath><clipPath id="d"><path d="m0 0h488v351h-488z"/></clipPath><g clip-path="url(#c)"><g clip-path="url(#d)"><path d="m0 0h488v354h-488z" fill="url(#a)" opacity=".4"/><g fill="#fff" fill-opacity=".6"><path d="m271.549 78.3807c2.357 13.8074-6.926 26.9113-20.734 29.2673-13.807 2.357-26.911-6.926-29.267-20.733-2.357-13.8075 6.926-26.9111 20.733-29.2678 13.808-2.3567 26.911 6.926 29.268 20.7335z"/><path clip-rule="evenodd" d="m273.918-363.875 513.283 152.301c-9.093 3.178-16.784 10.004-20.833 19.264l-456.383-135.417.886 1.941c-4.245-4.762-9.824-8.44-16.389-10.387-18.8-5.579-38.562 5.139-44.14 23.939-2.82 9.503-1.476 19.252 2.971 27.291l-44.048 149.348-.007.023-67.947 226.4461c-7.836 4.3547-14.04 11.6619-16.791 20.9359-5.579 18.8 5.14 38.562 23.939 44.14 6.834 2.028 13.795 1.902 20.156.018l451.487 133.965c-2.267 13.644 3.668 27.186 14.692 34.889l-519.941-154.277c-17.726-5.26-27.8317-23.893-22.5722-41.618l110.5822-372.683.007-.023 29.427-97.513.003-.011c5.26-17.725 23.893-27.831 41.618-22.572zm1022.342 303.3482-469.291-139.2472c5.889 7.623 8.612 17.539 6.955 27.51l456.866 135.5614-41.28 26.233-403.109-119.6104c-8.362-2.482-14.368-9.81-15.156-18.498l-1.139-12.535c-7.82 14.457-24.936 21.974-41.32 17.112-16.107-4.779-26.281-19.969-25.358-36.045l-7.247 9.195c-5.4 6.852-14.43 9.719-22.793 7.238l-393.811-116.852c-5.908-1.753-10.767-5.978-13.324-11.585l-6.638-14.559c.605 4.747.256 9.694-1.193 14.576-5.578 18.8-25.341 29.518-44.14 23.94-.995-.295-1.967-.63-2.915-1.002l4.924 7.233c3.599 5.289 4.632 11.915 2.812 18.049l-93.536 315.2337c-1.753 5.9079-5.978 10.7673-11.585 13.324l-6.269 2.8582c.316.0844.632.1734.947.267 18.8 5.5783 29.518 25.3411 23.94 44.1401-.572 1.927-1.292 3.769-2.145 5.516l6.359-4.041c5.201-3.305 11.579-4.196 17.486-2.443l393.811 116.851c8.363 2.482 14.368 9.811 15.157 18.498l1.058 11.66c7.995-13.978 24.808-21.16 40.914-16.381 16.385 4.862 26.631 20.497 25.301 36.88l7.791-9.886c5.399-6.851 14.43-9.719 22.793-7.237l403.105 119.61 20.3 44.503-456.872-135.562c-5.541 12.673-17.901 20.787-31.343 21.229l480.875 142.686-2.88 9.726-1022.343-303.348c-23.0972-6.854-36.2653-31.133-29.412-54.23l110.592-372.717 29.427-97.513.004-.011c6.857-23.09 31.133-36.253 54.226-29.4l1022.336 303.3474zm-1077.275-72.1642 40.194-136.28 11.705 17.195-96.488 325.1821-19.986 9.1132zm395.111 410.26-426.13-126.441 18.577-11.806 405.937 120.45zm227.936-419.528-1.616-17.797 426.134 126.4412-18.58 11.8055zm-35.931-60.397c13.428 3.985 21.084 18.101 17.099 31.529-3.984 13.429-18.1 21.085-31.529 17.1-13.428-3.984-21.084-18.1-17.099-31.529 3.984-13.428 18.1-21.084 31.529-17.1zm-468.509-89.28-9.132-20.027 426.13 126.441-11.062 14.035zm-45.996-34.812c13.429 3.985 21.085 18.101 17.1 31.529-3.984 13.429-18.1 21.085-31.529 17.1-13.428-3.984-21.084-18.1-17.099-31.529 3.984-13.428 18.1-21.084 31.528-17.1zm408.326 629.483 11.062-14.035 405.936 120.449 9.13 20.027zm-37.567-31.639c13.428 3.984 21.084 18.1 17.099 31.529-3.984 13.428-18.1 21.084-31.529 17.1-13.428-3.985-21.084-18.101-17.099-31.529 3.984-13.429 18.1-21.085 31.529-17.1zm-496.581-173.8004c13.429 3.9844 21.085 18.1004 17.1 31.5294-3.984 13.428-18.1 21.084-31.529 17.099-13.428-3.984-21.084-18.1-17.1-31.529 3.985-13.428 18.101-21.0838 31.529-17.0994z" fill-rule="evenodd"/><path clip-rule="evenodd" d="m1151.09-326.79c.04-.019.09-.037.14-.046.52-.109 1.04.21 1.18.722l.01.033c0 .026.01.052.02.078 0 .011.01.023.01.034.01.017.01.035.02.052l9.85 25.228c.02.064.04.13.05.199.03.457-.25.881-.69 1.028l-.02.008c-.04.013-.08.026-.12.042l-838.935 353.1264-4.637-10.502zm-842.409 374.1269-13.344 5.9264c-2.012.8934-2.944 3.2274-2.103 5.2609l1.302 3.1448c.862 2.0802 3.252 3.0616 5.326 2.187l13.469-5.9858z" fill-rule="evenodd"/></g></g><g fill="url(#b)"><path d="m0 135h488v115h-488z"/><path d="m0 135h488v115h-488z"/></g></g></svg>
