<svg fill="none" height="56" viewBox="0 0 56 56" width="56" xmlns="http://www.w3.org/2000/svg" xmlns:xlink="http://www.w3.org/1999/xlink"><filter id="a" color-interpolation-filters="sRGB" filterUnits="userSpaceOnUse" height="50.4117" width="50.4119" x="-3.24355" y="8.83262"><feFlood flood-opacity="0" result="BackgroundImageFix"/><feGaussianBlur in="BackgroundImageFix" stdDeviation="2.55586"/><feComposite in2="SourceAlpha" operator="in" result="effect1_backgroundBlur_1118_46684"/><feBlend in="SourceGraphic" in2="effect1_backgroundBlur_1118_46684" mode="normal" result="shape"/></filter><filter id="b" color-interpolation-filters="sRGB" filterUnits="userSpaceOnUse" height="28.3058" width="28.3058" x="7.84711" y="20.9049"><feFlood flood-opacity="0" result="BackgroundImageFix"/><feColorMatrix in="SourceAlpha" result="hardAlpha" type="matrix" values="0 0 0 0 0 0 0 0 0 0 0 0 0 0 0 0 0 0 127 0"/><feOffset dy="1.05778"/><feGaussianBlur stdDeviation="1.07644"/><feColorMatrix type="matrix" values="0 0 0 0 0.00392157 0 0 0 0 0.380392 0 0 0 0 0.854902 0 0 0 0.2 0"/><feBlend in2="BackgroundImageFix" mode="normal" result="effect1_dropShadow_1118_46684"/><feBlend in="SourceGraphic" in2="effect1_dropShadow_1118_46684" mode="normal" result="shape"/></filter><linearGradient id="c" gradientUnits="userSpaceOnUse" x1="50.0711" x2="19.0966" y1="2.89537" y2="34.2203"><stop offset="0" stop-color="#0161da"/><stop offset="1" stop-color="#3fa3ff"/></linearGradient><radialGradient id="d" cx="0" cy="0" gradientTransform="matrix(41.4086541 41.35520753 -30.43329573 30.47262706 1.86816 13.9443)" gradientUnits="userSpaceOnUse" r="1"><stop offset="0" stop-color="#9ed6ff"/><stop offset="1" stop-color="#cbefff" stop-opacity=".2"/><stop offset="1" stop-color="#9ed6ff" stop-opacity=".2"/></radialGradient><radialGradient id="e" cx="0" cy="0" gradientTransform="matrix(33.84199408 -43.28898478 30.76854047 24.05389661 4.87745 54.1326)" gradientUnits="userSpaceOnUse" r="1"><stop offset="0" stop-color="#dbf2ff" stop-opacity=".42"/><stop offset="1" stop-color="#dbf2ff" stop-opacity="0"/></radialGradient><linearGradient id="f" gradientUnits="userSpaceOnUse" x1="32.4217" x2="27.9507" y1="20.7316" y2="24.1388"><stop offset="0" stop-color="#8bc7ff"/><stop offset="1" stop-color="#98d4ff" stop-opacity=".2"/></linearGradient><clipPath id="g"><path d="m0 0h56v56h-56z"/></clipPath><g clip-path="url(#g)"><path d="m45.7046 35.7609h-25.3122c-6.1774 0-10.0445-6.7241-6.9307-12.0432l11.1494-19.21889c1.7578-3.0108 4.972-4.867462 8.4374-4.867462 3.4653 0 6.6796 1.856662 8.4374 4.867462l11.1494 19.21889c3.1138 5.3693-.7534 12.0432-6.9307 12.0432z" fill="url(#c)"/><g filter="url(#a)"><rect fill="url(#d)" height="40.1883" rx="6.89231" width="40.1883" x="1.86816" y="13.9443"/></g><rect height="41.4327" rx="7.51644" stroke="url(#e)" stroke-width="1.24444" width="41.4327" x="1.24594" y="13.3221"/><rect height="41.4327" rx="7.51644" stroke="url(#f)" stroke-width="1.24444" width="41.4327" x="1.24594" y="13.3221"/><g filter="url(#b)"><path clip-rule="evenodd" d="m21.9982 23.5001c-2.1079.0036-4.0295.1826-5.4396.4454-.6998.1304-1.3042.287-1.7501.4667-.2189.0882-.4404.198-.6204.3397-.1569.1235-.4388.3962-.4381.8258 0 1.4817 1.0201 3.5944 2.2583 5.3077.8195 1.134 1.8981 2.2426 3.2198 3.1145-1.3217.8719-2.4003 1.9806-3.2198 3.1145-1.2382 1.7133-2.2583 3.9206-2.2583 5.4024-.0008.4348.2871.7069.4478.8292.1827.139.4063.244.625.327.4462.1694 1.0505.313 1.7487.4309 1.4074.2378 3.3254.3923 5.4275.396 2.1021.0036 4.0195-.1442 5.4265-.377.698-.1156 1.3023-.2571 1.7487-.425.2188-.0823.4427-.1865.6257-.3249.1578-.1195.4372-.3919.4496-.8108l.0004-.0272c0-1.4818-1.021-3.7073-2.2592-5.4206-.8195-1.1339-1.8981-2.2426-3.2198-3.1145 1.3217-.8719 2.4003-1.9805 3.2198-3.1145 1.2382-1.7133 2.2589-3.8817 2.2589-5.3635-.0122-.4137-.2861-.6765-.4402-.7971-.1804-.1411-.4022-.2501-.6212-.3376-.4462-.1782-1.0508-.3327-1.7506-.4607-1.4101-.2579-3.3315-.4301-5.4394-.4264zm-3.9718 5.9268c.9618 1.3308 2.313 2.5527 3.9731 3.2408 1.6601-.6881 3.0113-1.91 3.9731-3.2408.6202-.8581 1.0374-1.7029 1.2778-2.4105-1.3839.1529-3.234.23-5.2496.2336-2.0143.0035-3.8626-.0671-5.2459-.2151.2414.7039.6568 1.5414 1.2715 2.392zm0 9.146c.9618-1.3308 2.313-2.5526 3.9731-3.2408 1.6601.6882 3.0113 1.91 3.9731 3.2408.5028.6958.8723 1.3828 1.1222 1.995-1.8639-1.5093-4.1192-2.818-5.0953-2.818-.9877 0-3.2329 1.3181-5.108 2.8494.25-.6201.6235-1.3187 1.1349-2.0264z" fill="#fff" fill-rule="evenodd"/></g></g></svg>
