<svg xmlns="http://www.w3.org/2000/svg" width="22" height="22">
    <path d="M 0 4 C 0 1.791 1.791 0 4 0 L 18 0 C 20.209 0 22 1.791 22 4 L 22 18 C 22 20.209 20.209 22 18 22 L 4 22 C 1.791 22 0 20.209 0 18 Z"
          fill="currentColor"></path>
    <path d="M 10.449 5.006 C 10.793 4.45 11.651 4.767 11.552 5.413 L 11.089 8.424 C 11.042 8.727 11.276 9 11.583 9 L 15.423 9 C 15.893 9 16.181 9.516 15.933 9.916 L 11.551 16.994 C 11.207 17.55 10.349 17.233 10.448 16.587 L 10.911 13.576 C 10.958 13.273 10.724 13 10.417 13 L 6.577 13 C 6.107 13 5.819 12.484 6.067 12.084 Z"
          fill="white"></path>
</svg>
