<svg xmlns="http://www.w3.org/2000/svg" width="22" height="22">
    <path d="M 0 4 C 0 1.791 1.791 0 4 0 L 18 0 C 20.209 0 22 1.791 22 4 L 22 18 C 22 20.209 20.209 22 18 22 L 4 22 C 1.791 22 0 20.209 0 18 Z"
          fill="currentColor"></path>
    <path d="M 10.234 5.662 C 10.634 5.186 11.366 5.186 11.766 5.662 L 13.25 7.43 C 14.375 8.932 15.5 10.758 15.5 12.054 C 15.5 14.648 13.485 16.75 11 16.75 C 8.515 16.75 6.5 14.648 6.5 12.054 C 6.5 10.758 7.625 8.932 8.75 7.43 Z"
          fill="white"></path>
</svg>
