<svg xmlns="http://www.w3.org/2000/svg" width="22" height="22">
    <path d="M 0 4 C 0 1.791 1.791 0 4 0 L 18 0 C 20.209 0 22 1.791 22 4 L 22 18 C 22 20.209 20.209 22 18 22 L 4 22 C 1.791 22 0 20.209 0 18 Z"
          fill="currentColor"></path>
    <path d="M 10 8 C 10 7.448 10.448 7 11 7 L 11 7 C 11.552 7 12 7.448 12 8 L 12 14 C 12 14.552 11.552 15 11 15 L 11 15 C 10.448 15 10 14.552 10 14 Z"
          fill="#FFFFFF"></path>
    <path d="M 14 10 C 14 9.448 14.448 9 15 9 L 15 9 C 15.552 9 16 9.448 16 10 L 16 12 C 16 12.552 15.552 13 15 13 L 15 13 C 14.448 13 14 12.552 14 12 Z"
          fill="#FFFFFF"></path>
    <path d="M 6 6 C 6 5.448 6.448 5 7 5 L 7 5 C 7.552 5 8 5.448 8 6 L 8 16 C 8 16.552 7.552 17 7 17 L 7 17 C 6.448 17 6 16.552 6 16 Z"
          fill="#FFFFFF"></path>
</svg>
