<svg xmlns="http://www.w3.org/2000/svg" width="22" height="22">
    <path d="M 0 4 C 0 1.791 1.791 0 4 0 L 18 0 C 20.209 0 22 1.791 22 4 L 22 18 C 22 20.209 20.209 22 18 22 L 4 22 C 1.791 22 0 20.209 0 18 Z"
          fill="currentColor"></path>
    <path d="M 7 10 L 7 10 C 6.337 10.663 5.964 11.562 5.964 12.5 C 5.964 13.438 6.337 14.337 7 15 L 7 15 C 8.381 16.38 10.619 16.38 12 15 L 12 15 M 15 12 L 15 12 C 16.38 10.619 16.38 8.381 15 7 L 15 7 C 14.337 6.337 13.438 5.964 12.5 5.964 C 11.562 5.964 10.663 6.337 10 7 L 10 7 M 10 12 L 12 10"
          fill="transparent" stroke-width="2" stroke="white" stroke-linecap="round" stroke-linejoin="round"
          stroke-dasharray=""></path>
</svg>
