<svg width="24" height="24" viewBox="0 0 24 24" fill="none" xmlns="http://www.w3.org/2000/svg">
<path d="M5.4593 10.9549L11 5.41421V21C11 21.5522 11.4478 22 12 22C12.5523 22 13 21.5522 13 21V5.41421L18.5408 10.9549C18.9313 11.3454 19.5645 11.3454 19.955 10.9549C20.3455 10.5644 20.3455 9.93126 19.955 9.54074L12.7072 2.29289C12.3166 1.90237 11.6835 1.90237 11.2929 2.29289L4.04509 9.54074C3.84915 9.73668 3.75152 9.99369 3.7522 10.2505C3.75237 10.3136 3.75847 10.3766 3.7705 10.4388C3.80711 10.6279 3.89864 10.8085 4.04509 10.9549C4.43561 11.3454 5.06878 11.3454 5.4593 10.9549Z" fill="currentColor"/>
</svg>
