<svg width="24" height="24" viewBox="0 0 24 24" fill="none" xmlns="http://www.w3.org/2000/svg">
<path d="M8.11512 6.63599H15.9509L4.9301 17.6568C4.85087 17.736 4.78771 17.8252 4.74063 17.9204C4.61367 18.177 4.6036 18.4767 4.71043 18.7402C4.75925 18.8605 4.83247 18.9733 4.9301 19.071C5.32062 19.4615 5.95379 19.4615 6.34431 19.071L17.3651 8.0502V15.8859C17.3651 16.4382 17.8128 16.8859 18.3651 16.8859C18.9174 16.8859 19.3651 16.4382 19.3651 15.8859V5.63599C19.3651 5.60147 19.3634 5.56736 19.36 5.53374C19.3099 5.04084 18.9019 4.65376 18.3999 4.63658C18.3884 4.63619 18.3768 4.63599 18.3651 4.63599H8.11512C7.56284 4.63599 7.11513 5.0837 7.11513 5.63599C7.11512 6.18827 7.56284 6.63599 8.11512 6.63599Z" fill="currentColor"/>
</svg>
