<svg width="24" height="24" viewBox="0 0 24 24" fill="none" xmlns="http://www.w3.org/2000/svg">
<path d="M15.8858 17.3639H8.04996L19.0708 6.34309C19.4613 5.95257 19.4613 5.3194 19.0708 4.92888C19.0677 4.92583 19.0647 4.9228 19.0616 4.9198C18.6704 4.53838 18.0441 4.54141 17.6566 4.92888L6.63574 15.9496L6.63575 8.11391C6.63575 7.56162 6.18803 7.11391 5.63574 7.11391C5.60123 7.11391 5.56712 7.11566 5.5335 7.11907C5.02924 7.17028 4.63574 7.59614 4.63574 8.11391V18.3639C4.63574 18.9161 5.08346 19.3639 5.63574 19.3639H15.8858C16.438 19.3639 16.8858 18.9161 16.8858 18.3639C16.8858 17.8116 16.438 17.3639 15.8858 17.3639Z" fill="currentColor"/>
</svg>
