<svg width="24" height="24" viewBox="0 0 24 24" fill="none" xmlns="http://www.w3.org/2000/svg">
<path fill-rule="evenodd" clip-rule="evenodd" d="M11 1.57752L2.70577 6.3662C2.26904 6.61834 2 7.08433 2 7.58863C2 8.3682 2.63197 9.00017 3.41154 9.00017H20.5885C21.368 9.00017 22 8.3682 22 7.58863C22 7.08434 21.731 6.61835 21.2942 6.3662L13 1.57752C12.3812 1.22025 11.6188 1.22025 11 1.57752ZM12 3.30957L5.6077 7.00017H18.3923L12 3.30957Z" fill="currentColor"/>
<path d="M12 11.0002C12.5523 11.0002 13 11.4479 13 12.0002V17.0002C13 17.5524 12.5523 18.0002 12 18.0002C11.4477 18.0002 11 17.5524 11 17.0002V12.0002C11 11.4479 11.4477 11.0002 12 11.0002Z" fill="currentColor"/>
<path d="M21 22.0002C21.5523 22.0002 22 21.5524 22 21.0002C22 20.4479 21.5523 20.0002 21 20.0002H3C2.44772 20.0002 2 20.4479 2 21.0002C2 21.5524 2.44772 22.0002 3 22.0002H21Z" fill="currentColor"/>
<path d="M17.5 11.0002C18.0523 11.0002 18.5 11.4479 18.5 12.0002V17.0002C18.5 17.5524 18.0523 18.0002 17.5 18.0002C16.9477 18.0002 16.5 17.5524 16.5 17.0002V12.0002C16.5 11.4479 16.9477 11.0002 17.5 11.0002Z" fill="currentColor"/>
<path d="M6.5 11.0002C7.05229 11.0002 7.5 11.4479 7.5 12.0002V17.0002C7.5 17.5524 7.05229 18.0002 6.5 18.0002C5.94772 18.0002 5.5 17.5524 5.5 17.0002V12.0002C5.5 11.4479 5.94772 11.0002 6.5 11.0002Z" fill="currentColor"/>
</svg>
