<svg xmlns="http://www.w3.org/2000/svg" width="18" height="18">
    <path d="M 9 7.5 C 9.828 7.5 10.5 8.172 10.5 9 C 10.5 9.828 9.828 10.5 9 10.5 C 8.172 10.5 7.5 9.828 7.5 9 C 7.5 8.172 8.172 7.5 9 7.5 Z"
          fill="currentColor"></path>
    <path d="M 13.5 7.5 C 14.328 7.5 15 8.172 15 9 C 15 9.828 14.328 10.5 13.5 10.5 C 12.672 10.5 12 9.828 12 9 C 12 8.172 12.672 7.5 13.5 7.5 Z"
          fill="currentColor"></path>
    <path d="M 4.5 7.5 C 5.328 7.5 6 8.172 6 9 C 6 9.828 5.328 10.5 4.5 10.5 C 3.672 10.5 3 9.828 3 9 C 3 8.172 3.672 7.5 4.5 7.5 Z"
          fill="currentColor"></path>
</svg>
