<svg width="24" height="24" viewBox="0 0 24 24" fill="none" xmlns="http://www.w3.org/2000/svg">
<path fill-rule="evenodd" clip-rule="evenodd" d="M7 3C7 1.89543 7.89543 1 9 1H15C16.1046 1 17 1.89543 17 3V5H21C21.5523 5 22 5.44771 22 6C22 6.55228 21.5523 7 21 7H19.8824L19.1107 20.1174C19.0486 21.1746 18.1731 22 17.1142 22H6.88581C5.82686 22 4.95145 21.1746 4.88926 20.1174L4.11765 7H3C2.44772 7 2 6.55228 2 6C2 5.44771 2.44772 5 3 5H7V3ZM9 5H15V3H9V5ZM6.12111 7L6.88581 20H17.1142L17.8789 7H6.12111Z" fill="currentColor"/>
</svg>
