<svg width="24" height="24" viewBox="0 0 24 24" fill="none" xmlns="http://www.w3.org/2000/svg">
<path d="M18.5435 15.4549L12.0027 8.91421L5.46199 15.4549C5.41317 15.5037 5.36057 15.5465 5.30512 15.5831C4.91696 15.8394 4.38948 15.7966 4.04778 15.4549C3.8037 15.2109 3.71217 14.872 3.77319 14.5568C3.8098 14.3677 3.90133 14.1872 4.04778 14.0407L11.2956 6.79289C11.4832 6.60535 11.7375 6.5 12.0027 6.5C12.2679 6.5 12.5223 6.60535 12.7098 6.79289L19.9577 14.0407C20.3482 14.4312 20.3482 15.0644 19.9577 15.4549C19.5672 15.8455 18.934 15.8455 18.5435 15.4549Z" fill="currentColor"/>
</svg>
