<svg width="24" height="24" viewBox="0 0 24 24" fill="none" xmlns="http://www.w3.org/2000/svg">
<path d="M9.88155 8.46452L13.8313 12.4142V10.1714C13.8313 9.61918 14.279 9.17146 14.8313 9.17146C14.8658 9.17146 14.8999 9.17321 14.9335 9.17662C15.4378 9.22783 15.8313 9.65369 15.8313 10.1714V14.8285C15.8313 15.3807 15.3836 15.8285 14.8313 15.8285H10.1746C9.62233 15.8285 9.17461 15.3807 9.17461 14.8285C9.17461 14.2762 9.62232 13.8285 10.1746 13.8285H12.4171L8.46733 9.87874C8.07681 9.48821 8.07681 8.85505 8.46733 8.46452C8.85786 8.074 9.49102 8.074 9.88155 8.46452Z" fill="currentColor"/>
<path fill-rule="evenodd" clip-rule="evenodd" d="M19.074 19.071C15.1688 22.9763 8.8371 22.9763 4.93186 19.071C1.02662 15.1658 1.02662 8.83417 4.93186 4.92893C8.8371 1.02369 15.1688 1.02369 19.074 4.92893C22.9792 8.83417 22.9792 15.1658 19.074 19.071ZM17.6598 6.34314C20.784 9.46734 20.784 14.5326 17.6598 17.6568C14.5356 20.781 9.47027 20.781 6.34608 17.6568C3.22188 14.5326 3.22188 9.46734 6.34608 6.34314C9.47027 3.21895 14.5356 3.21895 17.6598 6.34314Z" fill="currentColor"/>
</svg>
