<svg width="24" height="24" viewBox="0 0 24 24" fill="none" xmlns="http://www.w3.org/2000/svg">
<path d="M14.1243 15.5354L10.1746 11.5857V13.8285C10.1746 14.3808 9.72685 14.8285 9.17456 14.8285C8.62228 14.8285 8.17456 14.3808 8.17456 13.8285V9.17151C8.17456 8.61923 8.62228 8.17151 9.17456 8.17151H13.8312C14.3835 8.17151 14.8312 8.61922 14.8312 9.17151C14.8312 9.72379 14.3835 10.1715 13.8312 10.1715H11.5888L15.5385 14.1212C15.9291 14.5117 15.929 15.1449 15.5385 15.5354C15.148 15.926 14.5148 15.926 14.1243 15.5354Z" fill="currentColor"/>
<path fill-rule="evenodd" clip-rule="evenodd" d="M4.93186 4.92893C8.83711 1.02369 15.1688 1.02369 19.074 4.92893C22.9792 8.83417 22.9792 15.1658 19.074 19.071C15.1688 22.9763 8.8371 22.9763 4.93186 19.071C1.02662 15.1658 1.02662 8.83417 4.93186 4.92893ZM6.34608 17.6568C3.22188 14.5326 3.22188 9.46734 6.34608 6.34314C9.47027 3.21895 14.5356 3.21895 17.6598 6.34314C20.784 9.46734 20.784 14.5326 17.6598 17.6568C14.5356 20.781 9.47027 20.781 6.34608 17.6568Z" fill="currentColor"/>
</svg>
