<svg width="24" height="24" viewBox="0 0 24 24" fill="none" xmlns="http://www.w3.org/2000/svg">
<path d="M10.4162 12.9999L12.0021 14.5858C12.3926 14.9763 12.3926 15.6095 12.0021 16C11.6115 16.3905 10.9784 16.3905 10.5879 16L7.29485 12.707C6.90432 12.3165 6.90432 11.6833 7.29485 11.2928L10.5876 8.00004C10.9781 7.60952 11.6113 7.60952 12.0018 8.00004C12.3924 8.39057 12.3924 9.02373 12.0018 9.41426L10.4162 10.9999H16.002C16.5542 10.9999 17.002 11.4476 17.002 11.9999C17.002 12.5522 16.5542 12.9999 16.002 12.9999H10.4162Z" fill="currentColor"/>
<path fill-rule="evenodd" clip-rule="evenodd" d="M2.00195 12C2.00195 6.47715 6.47911 2 12.002 2C17.5248 2 22.002 6.47715 22.002 12C22.002 17.5228 17.5248 22 12.002 22C6.47911 22 2.00195 17.5228 2.00195 12ZM12.002 20C7.58368 20 4.00195 16.4182 4.00195 12C4.00195 7.58172 7.58368 4 12.002 4C16.4202 4 20.002 7.58172 20.002 12C20.002 16.4182 16.4202 20 12.002 20Z" fill="currentColor"/>
</svg>
