<svg width="24" height="24" viewBox="0 0 24 24" fill="none" xmlns="http://www.w3.org/2000/svg">
<path d="M13.5877 11L12.0018 9.41414C11.6113 9.02362 11.6113 8.39045 12.0018 7.99993C12.3924 7.6094 13.0255 7.6094 13.416 7.99993L16.7091 11.2929C17.0996 11.6834 17.0996 12.3166 16.7091 12.7071L13.4163 15.9999C13.0258 16.3904 12.3926 16.3904 12.0021 15.9999C11.6115 15.6094 11.6115 14.9762 12.0021 14.5857L13.5877 13H8.00195C7.44967 13 7.00195 12.5523 7.00195 12C7.00195 11.4477 7.44967 11 8.00195 11H13.5877Z" fill="currentColor"/>
<path fill-rule="evenodd" clip-rule="evenodd" d="M22.002 12C22.002 17.5228 17.5248 22 12.002 22C6.47911 22 2.00195 17.5228 2.00195 12C2.00195 6.47715 6.47911 2 12.002 2C17.5248 2 22.002 6.47715 22.002 12ZM12.002 4C16.4202 4 20.002 7.58172 20.002 12C20.002 16.4182 16.4202 20 12.002 20C7.58368 20 4.00195 16.4182 4.00195 12C4.00195 7.58172 7.58368 4 12.002 4Z" fill="currentColor"/>
</svg>
