<svg width="24" height="24" viewBox="0 0 24 24" fill="none" xmlns="http://www.w3.org/2000/svg">
<path d="M8.46742 14.1213L12.4172 10.1716H10.1744C9.62208 10.1716 9.17436 9.72392 9.17436 9.17163C9.17436 8.61934 9.62208 8.17163 10.1744 8.17163H14.8314C15.3837 8.17163 15.8314 8.61934 15.8314 9.17163V13.8283C15.8314 14.3806 15.3837 14.8283 14.8314 14.8283C14.2791 14.8283 13.8314 14.3806 13.8314 13.8283V11.5858L9.88164 15.5356C9.49111 15.9261 8.85795 15.9261 8.46742 15.5356C8.0769 15.145 8.0769 14.5119 8.46742 14.1213Z" fill="currentColor"/>
<path fill-rule="evenodd" clip-rule="evenodd" d="M19.074 4.92893C22.9792 8.83417 22.9792 15.1658 19.074 19.071C15.1688 22.9763 8.83711 22.9763 4.93186 19.071C1.02662 15.1658 1.02662 8.83417 4.93186 4.92893C8.83711 1.02369 15.1688 1.02369 19.074 4.92893ZM6.34608 6.34314C9.47027 3.21895 14.5356 3.21895 17.6598 6.34314C20.784 9.46734 20.784 14.5326 17.6598 17.6568C14.5356 20.781 9.47027 20.781 6.34608 17.6568C3.22188 14.5326 3.22188 9.46734 6.34608 6.34314Z" fill="currentColor"/>
</svg>
