<svg fill="none" height="24" viewBox="0 0 24 24" width="24" xmlns="http://www.w3.org/2000/svg"><path d="m17.7404 5.36612c.4882-.48815 1.2797-.48816 1.7679 0 .4881.48815.4881 1.27961 0 1.76776l-5.3034 5.30332 5.3034 5.3033c.4881.4882.4881 1.2796 0 1.7678-.4882.4882-1.2797.4882-1.7679 0l-5.3032-5.3033-5.30331 5.3033c-.48816.4881-1.27962.4881-1.76777 0-.48816-.4882-.48816-1.2797 0-1.7678l5.30318-5.3033-5.30318-5.30327c-.48815-.48816-.48815-1.27961 0-1.76777.48816-.48815 1.27961-.48815 1.76777 0l5.30331 5.30334z" fill="currentColor"/></svg>
