<svg width="24" height="24" viewBox="0 0 24 24" fill="none" xmlns="http://www.w3.org/2000/svg">
<path fill-rule="evenodd" clip-rule="evenodd" d="M3.41422 2.99992C3.02369 2.6094 2.39053 2.6094 2 2.99992C1.60948 3.39045 1.60948 4.02361 2 4.41413L4.77061 7.18474C4.33314 8.07105 4.06562 9.05626 4.0106 10.0978C1.72308 10.5569 0 12.5772 0 14.9999C0 17.7613 2.23858 19.9999 5 19.9999H17.5858L19.5858 21.9999C19.9763 22.3904 20.6095 22.3904 21 21.9999C21.3905 21.6094 21.3905 20.9762 21 20.5857L7.32895 6.91466L3.41422 2.99992ZM15.5858 17.9999L6.29712 8.71125C6.13499 9.18294 6.03527 9.68358 6.00781 10.2033C5.95963 11.1154 5.29968 11.8789 4.4042 12.0587C3.03258 12.334 2 13.5486 2 14.9999C2 16.6568 3.34315 17.9999 5 17.9999H15.5858ZM5.91185 5.49756C5.91184 5.49757 5.91186 5.49754 5.91185 5.49756V5.49756Z" fill="currentColor"/>
<path d="M20.4245 17.1817C21.3821 16.4509 22 15.2975 22 13.9999C22 11.9231 20.4157 10.2139 18.3911 10.0186C17.6142 9.94374 16.9519 9.42375 16.6947 8.68686C15.9446 6.53737 13.8993 4.99992 11.5 4.99992C10.5583 4.99992 9.67174 5.23669 8.89671 5.65391L7.43731 4.19452C8.60805 3.43863 10.0028 2.99992 11.5 2.99992C14.776 2.99992 17.5614 5.10031 18.5831 8.02789C21.6232 8.32106 24 10.8829 24 13.9999C24 15.8496 23.163 17.5037 21.8472 18.6044L20.4245 17.1817Z" fill="currentColor"/>
</svg>
