<svg width="24" height="24" viewBox="0 0 24 24" fill="none" xmlns="http://www.w3.org/2000/svg">
<path fill-rule="evenodd" clip-rule="evenodd" d="M10.9994 2.17818C11.6185 1.82049 12.3815 1.82049 13.0006 2.17818L20.0006 6.22263C20.619 6.57998 21 7.24005 21 7.95436V16.0458C21 16.7601 20.619 17.4202 20.0006 17.7775L13.0006 21.822C12.3815 22.1797 11.6185 22.1797 10.9994 21.822L3.99944 17.7775C3.38095 17.4202 3 16.7601 3 16.0458V7.95436C3 7.24005 3.38096 6.57998 3.99944 6.22263L10.9994 2.17818ZM18.0017 7.37754L12 10.8452L5.99834 7.37754L12 3.90991L18.0017 7.37754ZM5 16.0458L5 9.11055L11 12.5772V19.5125L5 16.0458ZM19 16.0458L13 19.5125V12.5772L19 9.11055V16.0458Z" fill="currentColor"/>
</svg>
