<svg width="24" height="24" viewBox="0 0 24 24" fill="none" xmlns="http://www.w3.org/2000/svg">
<path d="M2 4C2 3.44772 2.44772 3 3 3H21C21.5523 3 22 3.44772 22 4C22 4.55228 21.5523 5 21 5H3C2.44772 5 2 4.55228 2 4Z" fill="currentColor"/>
<path d="M3 19C2.44772 19 2 19.4477 2 20C2 20.5523 2.44772 21 3 21H21C21.5523 21 22 20.5523 22 20C22 19.4477 21.5523 19 21 19H3Z" fill="currentColor"/>
<path fill-rule="evenodd" clip-rule="evenodd" d="M18.5 10.5C18.5 9.39543 17.6045 8.5 16.5 8.5L7.49998 8.5C6.39541 8.5 5.49998 9.39543 5.49998 10.5L5.49998 13.5C5.49998 14.6046 6.39541 15.5 7.49998 15.5L16.5 15.5C17.6045 15.5 18.5 14.6046 18.5 13.5V10.5ZM7.49998 13.5L16.5 13.5V10.5L7.49998 10.5L7.49998 13.5Z" fill="currentColor"/>
</svg>
