<svg width="24" height="24" viewBox="0 0 24 24" fill="none" xmlns="http://www.w3.org/2000/svg">
<path fill-rule="evenodd" clip-rule="evenodd" d="M10.4699 5.45609C11.136 5.03981 11.9999 5.51866 11.9999 6.30409V11.5352C12.0782 11.3851 12.1972 11.2516 12.3567 11.1519L21.4699 5.45609C22.136 5.03981 22.9999 5.51866 22.9999 6.30409V17.6956C22.9999 18.481 22.136 18.9599 21.4699 18.5436L12.3567 12.8479C12.1972 12.7481 12.0782 12.6146 11.9999 12.4646V17.6956C11.9999 18.481 11.136 18.9599 10.4699 18.5436L1.35672 12.8479C0.730053 12.4562 0.730051 11.5435 1.35672 11.1519L10.4699 5.45609ZM3.77351 11.9999L9.99991 8.10834V15.8914L3.77351 11.9999ZM20.9999 8.10834L14.7735 11.9999L20.9999 15.8914V8.10834Z" fill="currentColor"/>
</svg>
