<svg width="24" height="24" viewBox="0 0 24 24" fill="none" xmlns="http://www.w3.org/2000/svg">
<path d="M16.0088 8.41414L18.5946 10.9999H9.00879C5.1428 10.9999 2.00879 14.1339 2.00879 17.9999C2.00879 18.5522 2.4565 18.9999 3.00879 18.9999C3.56107 18.9999 4.00879 18.5522 4.00879 17.9999C4.00879 15.2385 6.24736 12.9999 9.00879 12.9999H18.5946L16.0088 15.5857C15.6183 15.9762 15.6183 16.6094 16.0088 16.9999C16.3993 17.3904 17.0325 17.3904 17.423 16.9999L21.7159 12.707C22.1064 12.3165 22.1064 11.6833 21.7159 11.2928L17.423 6.99993C17.0325 6.6094 16.3993 6.6094 16.0088 6.99993C15.96 7.04874 15.9173 7.10135 15.8806 7.1568C15.6244 7.54495 15.6671 8.07243 16.0088 8.41414Z" fill="currentColor"/>
</svg>
