<svg xmlns="http://www.w3.org/2000/svg" width="22" height="22">
    <path d="M 0 4 C 0 1.791 1.791 0 4 0 L 18 0 C 20.209 0 22 1.791 22 4 L 22 18 C 22 20.209 20.209 22 18 22 L 4 22 C 1.791 22 0 20.209 0 18 Z"
          fill="currentColor"></path>
    <path d="M 5 14 C 5 13.448 5.448 13 6 13 L 16 13 C 16.552 13 17 13.448 17 14 L 17 14 C 17 14.552 16.552 15 16 15 L 6 15 C 5.448 15 5 14.552 5 14 Z"
          fill="white"></path>
    <path d="M 5 8 C 5 7.448 5.448 7 6 7 L 16 7 C 16.552 7 17 7.448 17 8 L 17 8 C 17 8.552 16.552 9 16 9 L 6 9 C 5.448 9 5 8.552 5 8 Z"
          fill="white"></path>
    <path d="M 7 6 C 7 5.448 7.448 5 8 5 L 8 5 C 8.552 5 9 5.448 9 6 L 9 16 C 9 16.552 8.552 17 8 17 L 8 17 C 7.448 17 7 16.552 7 16 Z"
          fill="white"></path>
    <path d="M 13 6 C 13 5.448 13.448 5 14 5 L 14 5 C 14.552 5 15 5.448 15 6 L 15 16 C 15 16.552 14.552 17 14 17 L 14 17 C 13.448 17 13 16.552 13 16 Z"
          fill="white"></path>
</svg>
