<svg width="24" height="24" viewBox="0 0 24 24" fill="none" xmlns="http://www.w3.org/2000/svg">
<path fill-rule="evenodd" clip-rule="evenodd" d="M16.4835 3.20752C18.0773 3.20752 19.6061 3.83996 20.7341 4.966C21.8621 6.09204 22.4972 7.61967 22.5 9.21352C22.5 12.4475 21.3135 13.991 16.011 18.1805L13.2876 20.2944C12.5299 20.8825 11.4701 20.8825 10.7124 20.2944L7.989 18.1805C2.6865 13.991 1.5 12.4475 1.5 9.21352C1.50278 7.61967 2.13789 6.09204 3.2659 4.966C4.39391 3.83996 5.92264 3.20752 7.5165 3.20752C9.14236 3.21524 10.7014 3.85542 11.8635 4.99252L12 5.1213L12.1365 4.99252C13.2986 3.85542 14.8576 3.21524 16.4835 3.20752ZM11.2224 7.21439C11.2414 7.2323 11.2604 7.2502 11.2793 7.26806C11.6839 7.64985 12.316 7.64985 12.7206 7.26806C12.7396 7.25014 12.7586 7.23219 12.7776 7.21421C13.7018 6.34171 14.6791 5.41894 15.9351 5.24685C16.1175 5.22187 16.3022 5.20862 16.4882 5.20752C17.5505 5.20877 18.5692 5.63084 19.3211 6.38145C20.0736 7.13262 20.4975 8.15148 20.5 9.21465C20.4999 10.4992 20.2885 11.2558 19.6287 12.1592C18.8538 13.2204 17.4465 14.4971 14.7778 16.6059L12.0613 18.7144C12.0252 18.7424 11.9748 18.7424 11.9387 18.7144L9.22213 16.6059C6.55344 14.4971 5.14619 13.2204 4.37123 12.1592C3.71159 11.2559 3.5002 10.4995 3.5 9.21537C3.50229 8.15194 3.92623 7.13279 4.67888 6.38145C5.4308 5.63084 6.44945 5.20877 7.51177 5.20752C7.69754 5.20861 7.88202 5.22184 8.06414 5.24676C9.32047 5.41867 10.2981 6.34169 11.2224 7.21439Z" fill="currentColor"/>
</svg>
