<svg width="24" height="24" viewBox="0 0 24 24" fill="none" xmlns="http://www.w3.org/2000/svg">
<path fill-rule="evenodd" clip-rule="evenodd" d="M4.00074 10.9998V19.9998C4.00074 20.552 4.44845 20.9998 5.00074 20.9998H10.0007C10.553 20.9998 11.0007 20.552 11.0007 19.9998V13.9998H13.0007V19.9998C13.0007 20.552 13.4485 20.9998 14.0007 20.9998H19.0007C19.553 20.9998 20.0007 20.552 20.0007 19.9998V10.9998H21.8159C22.284 10.9998 22.4954 10.4141 22.1353 10.1151L13.2784 2.76063C12.5377 2.14555 11.4638 2.14555 10.7231 2.76063L1.86615 10.1151C1.50603 10.4141 1.71748 10.9998 2.18557 10.9998H4.00074ZM15.0007 13.9998V18.9998H18.0007V9.28146L12.0007 4.29932L6.00073 9.28147V10.9952L6.00074 10.9998V18.9998H9.00074L9.00073 12.9998C9.00073 12.4475 9.44845 11.9998 10.0007 11.9998H14.0007C14.553 11.9998 15.0007 12.4475 15.0007 12.9998V13.9954V13.9998Z" fill="currentColor"/>
</svg>
