<svg width="24" height="24" viewBox="0 0 24 24" fill="none" xmlns="http://www.w3.org/2000/svg">
<path fill-rule="evenodd" clip-rule="evenodd" d="M3 11.8286C3 11.2981 3.21071 10.7894 3.58579 10.4144L10.5858 3.4144C11.3668 2.63335 12.6332 2.63335 13.4142 3.4144L20.4142 10.4144C20.7893 10.7894 21 11.2981 21 11.8286V20.0002C21 20.5524 20.5523 21.0002 20 21.0002H14C13.4477 21.0002 13 20.5524 13 20.0002V15.0002H11V20.0002C11 20.5524 10.5523 21.0002 10 21.0002H4C3.44772 21.0002 3 20.5524 3 20.0002V11.8286ZM12 4.82861L5 11.8286V19.0002H9V14.0001C9 13.4479 9.44772 13.0001 10 13.0001H14C14.5523 13.0001 15 13.4479 15 14.0001V19.0002H19V11.8286L12 4.82861Z" fill="currentColor"/>
</svg>
