<svg width="24" height="24" viewBox="0 0 24 24" fill="none" xmlns="http://www.w3.org/2000/svg">
<path fill-rule="evenodd" clip-rule="evenodd" d="M13.212 16.3268C12.496 16.8723 11.5038 16.8723 10.7878 16.3268L3.5879 10.8411C2.53735 10.0407 2.53735 8.45985 3.5879 7.65943L10.7878 2.17378C11.5038 1.62827 12.496 1.62827 13.212 2.17378L20.4119 7.65943C21.4624 8.45985 21.4624 10.0407 20.4119 10.8411L13.212 16.3268ZM11.9999 14.7359L19.1998 9.25029L11.9999 3.76465L4.79999 9.25029L11.9999 14.7359Z" fill="currentColor"/>
<path d="M19.7623 14.3362C20.1176 14.0654 20.61 14.0655 20.9652 14.3364C21.4859 14.7335 21.4859 15.5173 20.9652 15.9143L13.2126 21.8257C12.4964 22.3718 11.5034 22.3718 10.7872 21.8257L3.03462 15.9143C2.51385 15.5173 2.51385 14.7335 3.03462 14.3364C3.07902 14.3025 3.12556 14.2729 3.17371 14.2475C3.51077 14.0697 3.92662 14.0993 4.23751 14.3362L11.9999 20.2504L19.7623 14.3362Z" fill="currentColor"/>
</svg>
