<svg width="24" height="24" viewBox="0 0 24 24" fill="none" xmlns="http://www.w3.org/2000/svg">
<path fill-rule="evenodd" clip-rule="evenodd" d="M21.0002 6.42249C21.6189 6.77978 22 7.43998 22 8.15443V17.9999C22 19.1045 21.1046 19.9999 20 19.9999H4C2.89543 19.9999 2 19.1045 2 17.9999V8.15443C2 7.43998 2.38111 6.77978 2.99981 6.42249L10.9998 1.80249C11.6187 1.44507 12.3813 1.44507 13.0002 1.80249L21.0002 6.42249ZM13.0002 14.5068L20 10.4644V17.9999H4V10.4644L10.9998 14.5068C11.6187 14.8643 12.3813 14.8643 13.0002 14.5068ZM4 8.15488L12 12.7749L20 8.15488V8.15443L12 3.53443L4 8.15443V8.15488Z" fill="currentColor"/>
</svg>
