<svg width="24" height="24" viewBox="0 0 24 24" fill="none" xmlns="http://www.w3.org/2000/svg">
<path fill-rule="evenodd" clip-rule="evenodd" d="M20.6716 12.4858C21.1118 12.1223 21.9647 12.4294 21.9506 13.0001C21.9211 13.2977 21.8785 13.5915 21.8234 13.8808C21.806 13.9722 21.7874 14.0632 21.7675 14.1538C21.766 14.1606 21.7645 14.1674 21.763 14.1742C20.7703 18.6517 16.7762 22.0001 12 22.0001C6.47715 22.0001 2 17.523 2 12.0001C2 7.22392 5.34843 3.22978 9.82589 2.23712C9.83271 2.23561 9.83953 2.23411 9.84636 2.23261C9.93689 2.21274 10.0279 2.19409 10.1193 2.17669C10.4087 2.12163 10.7024 2.07904 11 2.04949C11.5707 2.0354 11.8778 2.88831 11.5143 3.32854C11.3941 3.47417 11.2798 3.62513 11.1719 3.78097C11.1294 3.84241 11.0879 3.90461 11.0474 3.96753C11.0299 3.99468 11.0126 4.02195 10.9955 4.04937C10.9926 4.05406 10.9897 4.05876 10.9867 4.06347C10.3644 5.06731 10 6.24931 10 7.50012C10 11.09 12.9102 14.0001 16.5 14.0001C17.7508 14.0001 18.9328 13.6357 19.9367 13.0134C19.9414 13.0104 19.9461 13.0075 19.9508 13.0046C19.9782 12.9875 20.0054 12.9702 20.0326 12.9528C20.0955 12.9123 20.1577 12.8707 20.2192 12.8282C20.375 12.7203 20.526 12.6061 20.6716 12.4858ZM16.5 16.0001C17.4274 16.0001 18.3231 15.8476 19.162 15.5694C17.8503 18.1957 15.1352 20.0001 12 20.0001C7.58172 20.0001 4 16.4184 4 12.0001C4 8.86494 5.80438 6.14978 8.43075 4.8381C8.15247 5.67704 8 6.57275 8 7.50012C8 12.1945 11.8056 16.0001 16.5 16.0001Z" fill="currentColor"/>
</svg>
