<svg width="24" height="24" viewBox="0 0 24 24" fill="none" xmlns="http://www.w3.org/2000/svg">
<path fill-rule="evenodd" clip-rule="evenodd" d="M7 15.5351C6.41165 15.1947 5.72858 14.9999 5 14.9999C2.79086 14.9999 1 16.7908 1 18.9999C1 21.2091 2.79086 22.9999 5 22.9999C7.20914 22.9999 9 21.2091 9 18.9999V10.5714L19 8.4285V13.5351C18.4117 13.1947 17.7286 12.9999 17 12.9999C14.7909 12.9999 13 14.7908 13 16.9999C13 19.2091 14.7909 20.9999 17 20.9999C19.2091 20.9999 21 19.2091 21 16.9999V3.47391C21 2.20062 19.826 1.25151 18.5809 1.51831L8.58094 3.66116C7.6588 3.85876 7 4.67369 7 5.61676V15.5351ZM17 14.9999C18.1046 14.9999 19 15.8954 19 16.9999C19 18.1045 18.1046 18.9999 17 18.9999C15.8954 18.9999 15 18.1045 15 16.9999C15 15.8954 15.8954 14.9999 17 14.9999ZM9 8.52596L19 6.3831V3.47391L9 5.61676V8.52596ZM5 16.9999C3.89543 16.9999 3 17.8954 3 18.9999C3 20.1045 3.89543 20.9999 5 20.9999C6.10457 20.9999 7 20.1045 7 18.9999C7 17.8954 6.10457 16.9999 5 16.9999Z" fill="currentColor"/>
</svg>
