<svg width="24" height="24" viewBox="0 0 24 24" fill="none" xmlns="http://www.w3.org/2000/svg">
<path fill-rule="evenodd" clip-rule="evenodd" d="M10 3.21958C10 2.58854 10.5773 2.11524 11.1961 2.239L19.1961 3.839C19.6635 3.93249 20 4.3429 20 4.81958V9.77998C20 10.4111 19.4227 10.8844 18.8039 10.7606L12 9.39978V17.4998C12 19.9851 9.98528 21.9998 7.5 21.9998C5.01472 21.9998 3 19.9851 3 17.4998C3 15.0145 5.01472 12.9998 7.5 12.9998C8.42507 12.9998 9.28495 13.279 10 13.7576V3.21958ZM18 8.56017L12 7.36017V4.43939L18 5.63939V8.56017ZM10 17.4998C10 16.1191 8.88071 14.9998 7.5 14.9998C6.11929 14.9998 5 16.1191 5 17.4998C5 18.8805 6.11929 19.9998 7.5 19.9998C8.88071 19.9998 10 18.8805 10 17.4998Z" fill="currentColor"/>
</svg>
