<svg width="24" height="24" viewBox="0 0 24 24" fill="none" xmlns="http://www.w3.org/2000/svg">
<path d="M12.7069 4.22194C13.8785 3.05037 15.778 3.05037 16.9496 4.22194C18.1211 5.39351 18.1211 7.29301 16.9496 8.46458L9.8785 15.5356C9.48797 15.9262 8.85481 15.9262 8.46429 15.5356C8.07376 15.1451 8.07376 14.5119 8.46429 14.1214L14.8283 7.75747C15.2188 7.36695 15.2188 6.73378 14.8283 6.34326C14.4377 5.95274 13.8046 5.95274 13.414 6.34326L7.05007 12.7072C5.8785 13.8788 5.8785 15.7783 7.05007 16.9498C8.22164 18.1214 10.1211 18.1214 11.2927 16.9498L18.3638 9.87879C20.3164 7.92617 20.3164 4.76035 18.3638 2.80773C16.4112 0.855105 13.2453 0.855105 11.2927 2.80773L4.22164 9.87879C1.48797 12.6124 1.48797 17.0446 4.22164 19.7783C6.95531 22.5119 11.3875 22.5119 14.1211 19.7783L20.4851 13.4143C20.8756 13.0238 20.8756 12.3906 20.4851 12.0001C20.0946 11.6096 19.4614 11.6096 19.0709 12.0001L12.7069 18.3641C10.7543 20.3167 7.58848 20.3167 5.63586 18.3641C3.68323 16.4114 3.68323 13.2456 5.63586 11.293L12.7069 4.22194Z" fill="currentColor"/>
</svg>
