<svg width="24" height="24" viewBox="0 0 24 24" fill="none" xmlns="http://www.w3.org/2000/svg">
<path fill-rule="evenodd" clip-rule="evenodd" d="M20.3549 13.3549C20.2054 13.2054 20.1072 13.0125 20.0742 12.8037L19.2095 7.32709C19.0827 6.52446 18.483 5.87829 17.692 5.69218L3.57236 2.36991C2.84937 2.19979 2.19979 2.84936 2.36991 3.57236L5.69218 17.692C5.87829 18.483 6.52446 19.0827 7.32709 19.2095L12.8037 20.0742C13.0125 20.1072 13.2054 20.2054 13.3549 20.3549L14.5857 21.5857C15.3668 22.3668 16.6331 22.3668 17.4141 21.5857L21.5857 17.4141C22.3668 16.6331 22.3668 15.3668 21.5857 14.5857L20.3549 13.3549ZM15.9999 20.1715L20.1715 15.9999L18.9406 14.7691C18.4923 14.3208 18.1976 13.7419 18.0987 13.1156L17.2339 7.63902L6.53609 5.12187L10.7065 9.29229C11.0981 9.10487 11.5368 8.99992 11.9999 8.99992C13.6568 8.99992 14.9999 10.3431 14.9999 11.9999C14.9999 13.6568 13.6568 14.9999 11.9999 14.9999C10.3431 14.9999 8.99993 13.6568 8.99993 11.9999C8.99993 11.5368 9.10488 11.0981 9.2923 10.7065L5.12187 6.53608L7.63902 17.2339L13.1156 18.0987C13.7419 18.1976 14.3208 18.4923 14.7691 18.9406L15.9999 20.1715ZM11.9999 12.9999C12.5522 12.9999 12.9999 12.5522 12.9999 11.9999C12.9999 11.4476 12.5522 10.9999 11.9999 10.9999C11.4476 10.9999 10.9999 11.4476 10.9999 11.9999C10.9999 12.5522 11.4476 12.9999 11.9999 12.9999Z" fill="currentColor"/>
</svg>
