<svg width="24" height="24" viewBox="0 0 24 24" fill="none" xmlns="http://www.w3.org/2000/svg">
<path fill-rule="evenodd" clip-rule="evenodd" d="M16 11.9999C16 14.209 14.2091 15.9999 12 15.9999C9.79086 15.9999 8 14.209 8 11.9999C8 9.79072 9.79086 7.99985 12 7.99985C14.2091 7.99985 16 9.79072 16 11.9999ZM14 11.9999C14 13.1044 13.1046 13.9999 12 13.9999C10.8954 13.9999 10 13.1044 10 11.9999C10 10.8953 10.8954 9.99985 12 9.99985C13.1046 9.99985 14 10.8953 14 11.9999Z" fill="currentColor"/>
<path fill-rule="evenodd" clip-rule="evenodd" d="M13.0006 2.17794C12.3815 1.82025 11.6185 1.82025 10.9994 2.17794L3.99945 6.22239C3.38096 6.57974 3 7.23981 3 7.95412V16.0456C3 16.7599 3.38095 17.42 3.99944 17.7773L10.9994 21.8218C11.6185 22.1795 12.3815 22.1795 13.0006 21.8218L20.0006 17.7773C20.619 17.42 21 16.7599 21 16.0456V7.95412C21 7.23981 20.619 6.57974 20.0006 6.22239L13.0006 2.17794ZM19 7.95412L12 3.90967L5 7.95412V16.0456L12 20.09L19 16.0456V7.95412Z" fill="currentColor"/>
</svg>
