<svg width="24" height="24" viewBox="0 0 24 24" fill="none" xmlns="http://www.w3.org/2000/svg">
<path fill-rule="evenodd" clip-rule="evenodd" d="M13.0003 4.41412V7.9999C6.12584 7.9999 2.88164 12.6091 1.18803 17.5047C0.835848 18.5227 2.34637 19.2996 3.21353 18.6605C5.3141 17.1124 7.81859 16.2975 11.0003 16.0683C11.639 16.0223 12.3049 15.9999 13.0003 15.9999V19.5857C13.0003 20.4766 14.0775 20.9228 14.7075 20.2928L22.2932 12.707C22.6838 12.3165 22.6838 11.6833 22.2932 11.2928L14.7075 3.70701C14.0775 3.07704 13.0003 3.52321 13.0003 4.41412ZM13.0003 9.99988C14.1049 9.99988 15.0003 9.10447 15.0003 7.9999V6.82833L20.1719 11.9999L15.0003 17.1715V15.9999C15.0003 14.8954 14.1049 13.9999 13.0003 13.9999C9.54153 13.9999 6.60049 14.5232 4.05672 15.8037C4.71608 14.4815 5.52345 13.309 6.51915 12.3756C8.02444 10.9646 10.0628 9.99988 13.0003 9.99988Z" fill="currentColor"/>
</svg>
