<svg width="24" height="24" viewBox="0 0 24 24" fill="none" xmlns="http://www.w3.org/2000/svg">
<path d="M18.5339 15.2913C18.8316 14.5859 18.9999 13.8236 18.9999 13.0001V6.29983L11.9999 3.18872L8.14471 4.90215L6.6295 3.38694L11.1876 1.3611C11.7048 1.13126 12.2951 1.13126 12.8122 1.3611L19.8122 4.47221C20.5345 4.79321 20.9999 5.50945 20.9999 6.29983V13.0001C20.9999 14.4262 20.6264 15.6863 20.0314 16.7889L18.5339 15.2913Z" fill="currentColor"/>
<path fill-rule="evenodd" clip-rule="evenodd" d="M3.41414 3.00009L20.9999 20.5859C21.3905 20.9764 21.3905 21.6096 20.9999 22.0001C20.6094 22.3906 19.9762 22.3906 19.5857 22.0001L17.4591 19.8735C15.6472 21.4174 13.6177 22.3578 12.6209 22.7642C12.2202 22.9275 11.7797 22.9275 11.379 22.7642C9.34304 21.9342 2.99992 18.8767 2.99992 13.0001V6.29983C2.99992 6.04054 3.05002 5.78922 3.14284 5.55722L1.99992 4.4143C1.6094 4.02378 1.6094 3.39061 1.99992 3.00009C2.39045 2.60956 3.02361 2.60956 3.41414 3.00009ZM4.99992 7.4143V13.0001C4.99992 15.1451 6.14176 16.8749 7.73948 18.2664C9.26849 19.598 11.0368 20.4532 11.9999 20.8567C12.917 20.4725 14.5642 19.6787 16.0397 18.454L4.99992 7.4143Z" fill="currentColor"/>
</svg>
