<svg width="24" height="24" viewBox="0 0 24 24" fill="none" xmlns="http://www.w3.org/2000/svg">
<path fill-rule="evenodd" clip-rule="evenodd" d="M3 6.29983C3 5.50945 3.46547 4.79321 4.18772 4.47221L11.1877 1.3611C11.7049 1.13126 12.2951 1.13126 12.8123 1.3611L19.8123 4.47221C20.5345 4.79321 21 5.50945 21 6.29983V13.0001C21 18.8767 14.6569 21.9342 12.621 22.7641C12.2203 22.9275 11.7798 22.9275 11.379 22.7641C9.34312 21.9342 3 18.8767 3 13.0001V6.29983ZM12 3.18872L19 6.29983V13.0001C19 15.1451 17.8582 16.8749 16.2605 18.2664C14.7314 19.598 12.9631 20.4532 12 20.8567C11.0369 20.4532 9.26856 19.598 7.73955 18.2664C6.14184 16.8749 5 15.1451 5 13.0001V6.29983L12 3.18872Z" fill="currentColor"/>
</svg>
