<svg width="24" height="24" viewBox="0 0 24 24" fill="none" xmlns="http://www.w3.org/2000/svg">
<path d="M11.409 7.1995C12.4117 6.44634 13.6581 6.00006 15.0088 6.00006H18.2156L17.0943 4.87874C16.7038 4.48821 16.7038 3.85505 17.0943 3.46452C17.436 3.12281 17.9635 3.0801 18.3517 3.33638C18.4071 3.37299 18.4597 3.41571 18.5085 3.46452L21.337 6.29295C21.5245 6.48049 21.6299 6.73484 21.6299 7.00006C21.6299 7.26527 21.5245 7.51963 21.337 7.70717L18.5085 10.5356C18.118 10.9262 17.4848 10.9262 17.0943 10.5356C16.7038 10.1451 16.7038 9.5119 17.0943 9.12138L18.2156 8.00006H15.0088C14.017 8.00006 13.1094 8.36105 12.4104 8.95881C12.1509 8.32785 11.813 7.73738 11.409 7.1995Z" fill="currentColor"/>
<path d="M11.0088 12.0001C11.0088 14.2092 12.7997 16.0001 15.0088 16.0001H18.2156L17.0943 14.8788C16.7038 14.4883 16.7038 13.8551 17.0943 13.4646C17.4848 13.074 18.118 13.074 18.5085 13.4646L21.337 16.293C21.5245 16.4805 21.6299 16.7349 21.6299 17.0001C21.6299 17.2653 21.5245 17.5197 21.337 17.7072L18.5085 20.5356C18.118 20.9262 17.4848 20.9262 17.0943 20.5356C16.7038 20.1451 16.7038 19.5119 17.0943 19.1214L18.2156 18.0001H15.0088C11.6951 18.0001 9.00879 15.3138 9.00879 12.0001C9.00879 9.79092 7.21793 8.00006 5.00879 8.00006H3.00879C2.4565 8.00006 2.00879 7.55234 2.00879 7.00006C2.00879 6.44777 2.4565 6.00006 3.00879 6.00006H5.00879C8.3225 6.00006 11.0088 8.68635 11.0088 12.0001Z" fill="currentColor"/>
<path d="M7.60714 15.0413C6.90815 15.6391 6.00063 16.0001 5.00879 16.0001H3.00879C2.4565 16.0001 2.00879 16.4478 2.00879 17.0001C2.00879 17.5524 2.4565 18.0001 3.00879 18.0001H5.00879C6.35944 18.0001 7.60586 17.5538 8.60863 16.8007C8.20454 16.2628 7.86667 15.6723 7.60714 15.0413Z" fill="currentColor"/>
</svg>
