<svg width="24" height="24" viewBox="0 0 24 24" fill="none" xmlns="http://www.w3.org/2000/svg">
<path d="M1.73085 5.02762C1.3916 5.46397 1.52156 6.08759 1.98292 6.39194C2.44368 6.69589 3.06017 6.56574 3.40494 6.13467C4.33056 4.97734 5.48506 4.01105 6.79986 3.30438C7.2863 3.04294 7.52603 2.45987 7.31024 1.95152C7.09432 1.44284 6.50463 1.20223 6.01428 1.45703C5.90966 1.51139 5.80588 1.56713 5.70295 1.62422C4.15907 2.48067 2.80788 3.64229 1.73085 5.02762Z" fill="currentColor"/>
<path d="M22.1744 6.26384C22.5038 5.93461 22.5661 5.40943 22.2693 5.02762C21.1205 3.54994 19.6597 2.32679 17.9859 1.45703C17.9246 1.42518 17.8617 1.40107 17.7983 1.38426C17.3539 1.26657 16.8788 1.50643 16.6899 1.95152C16.4741 2.45987 16.7139 3.04294 17.2003 3.30439C18.5151 4.01105 19.6696 4.97734 20.5952 6.13467C20.94 6.56574 21.5565 6.6959 22.0172 6.39194C22.0749 6.3539 22.1274 6.31087 22.1744 6.26384Z" fill="currentColor"/>
<path d="M8.99892 15.4103L12.5541 10.8751H9.68756C9.20431 10.8751 8.81256 10.4834 8.81256 10.0001C8.81256 9.51681 9.20431 9.12506 9.68756 9.12506H14.3126C14.7958 9.12506 15.1876 9.51681 15.1876 10.0001V10.0501C15.1876 10.2458 15.122 10.4359 15.0012 10.5899L11.4461 15.1251H14.3126C14.7958 15.1251 15.1876 15.5169 15.1876 16.0001C15.1876 16.4834 14.7958 16.8751 14.3126 16.8751H9.68756C9.20431 16.8751 8.81256 16.4834 8.81256 16.0001V15.9501C8.81256 15.7544 8.87817 15.5643 8.99892 15.4103Z" fill="currentColor"/>
<path fill-rule="evenodd" clip-rule="evenodd" d="M21.0001 13C21.0001 17.9706 16.9707 22 12.0001 22C7.02949 22 3.00006 17.9706 3.00006 13C3.00006 8.02949 7.02949 4.00005 12.0001 4.00005C16.9707 4.00005 21.0001 8.02949 21.0001 13ZM19.0001 13C19.0001 16.866 15.8661 20 12.0001 20C8.13406 20 5.00006 16.866 5.00006 13C5.00006 9.13406 8.13406 6.00005 12.0001 6.00005C15.8661 6.00005 19.0001 9.13406 19.0001 13Z" fill="currentColor"/>
</svg>
