<svg width="24" height="24" viewBox="0 0 24 24" fill="none" xmlns="http://www.w3.org/2000/svg">
<path d="M11.0771 2.46973C11.2479 2.05905 11.6242 1.85373 12.0005 1.85376V5.45793L12.0004 5.45772L10.5143 9.03074C10.2263 9.72321 9.57506 10.1964 8.82748 10.2563L4.97011 10.5655L7.90902 13.083C8.47859 13.5709 8.72734 14.3365 8.55332 15.066L7.65544 18.8301L10.9579 16.813C11.2779 16.6175 11.6392 16.5198 12.0005 16.5198V18.5199L12.0004 18.5198L6.64613 21.7902C5.88703 22.2538 4.94578 21.57 5.15216 20.7048L6.60791 14.602L1.84305 10.5203C1.16751 9.94165 1.52703 8.83514 2.41369 8.76405L8.66765 8.26268L11.0771 2.46973Z" fill="currentColor"/>
</svg>
