<svg xmlns="http://www.w3.org/2000/svg" width="22" height="22">
    <path d="M 0 4 C 0 1.791 1.791 0 4 0 L 18 0 C 20.209 0 22 1.791 22 4 L 22 18 C 22 20.209 20.209 22 18 22 L 4 22 C 1.791 22 0 20.209 0 18 Z"
          fill="currentColor"></path>
    <path d="M 6.5 7.5 C 6.5 6.948 6.948 6.5 7.5 6.5 L 14.5 6.5 C 15.052 6.5 15.5 6.948 15.5 7.5 C 15.5 8.052 15.052 8.5 14.5 8.5 L 12 8.5 L 12 14.5 C 12 15.052 11.552 15.5 11 15.5 C 10.448 15.5 10 15.052 10 14.5 L 10 8.5 L 7.5 8.5 C 6.948 8.5 6.5 8.052 6.5 7.5 Z"
          fill="white"></path>
</svg>
