<svg width="24" height="24" viewBox="0 0 24 24" fill="none" xmlns="http://www.w3.org/2000/svg">
<path d="M18.3685 11.2928C17.8163 11.2928 17.3685 11.7405 17.3685 12.2928V15.9496L6.34773 4.92888C6.29892 4.88006 6.2463 4.83735 6.19086 4.80074C6.05691 4.7123 5.90636 4.65946 5.75259 4.64224C5.71539 4.63807 5.678 4.63599 5.64062 4.63599C5.38469 4.63599 5.12878 4.73362 4.93352 4.92888C4.76678 5.09562 4.67123 5.30659 4.64687 5.52402C4.64271 5.56122 4.64062 5.5986 4.64063 5.63599C4.64063 5.89191 4.73826 6.14783 4.93352 6.34309L15.9543 17.3639H12.2975C11.7452 17.3639 11.2975 17.8116 11.2975 18.3639C11.2975 18.9162 11.7452 19.3639 12.2975 19.3639H18.3686C18.9208 19.3639 19.3685 18.9161 19.3685 18.3639V12.2928C19.3685 11.7405 18.9208 11.2928 18.3685 11.2928Z" fill="currentColor"/>
</svg>
