<svg width="24" height="24" viewBox="0 0 24 24" fill="none" xmlns="http://www.w3.org/2000/svg">
<path d="M15.5896 16L13.0038 18.5857V3C13.0038 2.96548 13.0021 2.93137 12.9987 2.89776C12.9475 2.3935 12.5216 2 12.0038 2C11.4516 2 11.0038 2.44772 11.0038 3V18.5858L8.41805 16C8.02752 15.6095 7.39435 15.6095 7.00383 16C6.61331 16.3905 6.61331 17.0237 7.00383 17.4142L11.2967 21.7071C11.6873 22.0976 12.3204 22.0976 12.7109 21.7071L17.0038 17.4142C17.3944 17.0237 17.3944 16.3905 17.0038 16C16.6133 15.6095 15.9801 15.6095 15.5896 16Z" fill="currentColor"/>
</svg>
