<svg width="24" height="24" viewBox="0 0 24 24" fill="none" xmlns="http://www.w3.org/2000/svg">
<path d="M12.7087 18.3637C12.7087 17.8114 12.261 17.3637 11.7087 17.3637H8.05192L19.0727 6.34285C19.1216 6.29404 19.1643 6.24143 19.2009 6.18598C19.4572 5.79783 19.4144 5.27035 19.0727 4.92864C18.6822 4.53811 18.049 4.53811 17.6585 4.92864L6.6377 15.9495V12.2926C6.63769 11.7403 6.18998 11.2926 5.63769 11.2926C5.08541 11.2926 4.63769 11.7403 4.6377 12.2926L4.63771 18.3637C4.63771 18.916 5.08542 19.3637 5.63771 19.3637H11.7087C12.261 19.3637 12.7087 18.916 12.7087 18.3637Z" fill="currentColor"/>
</svg>
