<svg width="24" height="24" viewBox="0 0 24 24" fill="none" xmlns="http://www.w3.org/2000/svg">
<path d="M5.63769 12.7068C6.18998 12.7068 6.63769 12.2591 6.63769 11.7068V8.04997L17.6585 19.0708C18.049 19.4613 18.6822 19.4613 19.0727 19.0708C19.4632 18.6803 19.4632 18.0471 19.0727 17.6566L8.0519 6.63575L11.7087 6.63574C12.261 6.63574 12.7087 6.18803 12.7087 5.63574C12.7087 5.42864 12.6458 5.23623 12.538 5.07663C12.3582 4.81063 12.0539 4.63574 11.7087 4.63574L5.63769 4.63576C5.08541 4.63576 4.6377 5.08347 4.6377 5.63576V11.7068C4.6377 12.2591 5.08541 12.7068 5.63769 12.7068Z" fill="currentColor"/>
</svg>
