<svg width="24" height="24" viewBox="0 0 24 24" fill="none" xmlns="http://www.w3.org/2000/svg">
<path d="M8.41512 7.99998L11.0009 5.41421V21C11.0009 21.5523 11.4486 22 12.0009 22C12.5532 22 13.0009 21.5523 13.0009 21V5.4142L15.5867 7.99998C15.9772 8.39051 16.6104 8.3905 17.0009 7.99998C17.3914 7.60945 17.3914 6.97629 17.0009 6.58577L12.708 2.29289C12.3175 1.90237 11.6843 1.90237 11.2938 2.29289L7.0009 6.58577C6.61038 6.97629 6.61038 7.60946 7.0009 7.99998C7.04972 8.0488 7.10232 8.09151 7.15777 8.12812C7.54593 8.3844 8.07341 8.34169 8.41512 7.99998Z" fill="currentColor"/>
</svg>
