<svg width="24" height="24" viewBox="0 0 24 24" fill="none" xmlns="http://www.w3.org/2000/svg">
<path d="M13.75 13.25C13.3358 13.25 13 12.9142 13 12.5V11.5C13 11.0858 13.3358 10.75 13.75 10.75H14.25C14.6642 10.75 15 11.0858 15 11.5V12.5C15 12.9142 14.6642 13.25 14.25 13.25H13.75Z" fill="currentColor"/>
<path fill-rule="evenodd" clip-rule="evenodd" d="M20 4C21.1046 4 22 4.89543 22 6V9.00003C22 9.27617 21.7761 9.50003 21.5 9.50003C20.1193 9.50003 19 10.6193 19 12C19 13.3807 20.1193 14.5 21.5 14.5C21.7761 14.5 22 14.7239 22 15V18C22 19.1046 21.1046 20 20 20H4C2.89543 20 2 19.1046 2 18V15.2C2 14.9239 2.22386 14.7 2.5 14.7C3.88071 14.7 5 13.5807 5 12.2C5 10.8193 3.88071 9.70003 2.5 9.70003C2.22386 9.70003 2 9.47617 2 9.20003V6C2 4.89543 2.89543 4 4 4H20ZM15 6L20 6L20 7.75609C18.2522 8.37384 17 10.0407 17 12C17 13.9594 18.2522 15.6262 20 16.244V18H15V16.25C15 15.8358 14.6642 15.5 14.25 15.5H13.75C13.3358 15.5 13 15.8358 13 16.25V18L4 18L4 16.444C5.74779 15.8262 7 14.1594 7 12.2C7 10.2407 5.74779 8.57384 4 7.95609V6L13 6V7.75C13 8.16421 13.3358 8.5 13.75 8.5H14.25C14.6642 8.5 15 8.16421 15 7.75V6Z" fill="currentColor"/>
</svg>
