<svg xmlns="http://www.w3.org/2000/svg" width="22" height="22">
    <path d="M 0 4 C 0 1.791 1.791 0 4 0 L 18 0 C 20.209 0 22 1.791 22 4 L 22 18 C 22 20.209 20.209 22 18 22 L 4 22 C 1.791 22 0 20.209 0 18 Z"
          fill="currentColor"></path>
    <path d="M 9 6 L 13 6 C 15.761 6 18 8.239 18 11 C 18 13.761 15.761 16 13 16 L 9 16 C 6.239 16 4 13.761 4 11 C 4 8.239 6.239 6 9 6 Z M 5.5 11 C 5.5 12.933 7.067 14.5 9 14.5 C 10.933 14.5 12.5 12.933 12.5 11 C 12.5 9.067 10.933 7.5 9 7.5 C 7.067 7.5 5.5 9.067 5.5 11 Z"
          fill="white"></path>
</svg>
