<svg width="24" height="24" viewBox="0 0 24 24" fill="none" xmlns="http://www.w3.org/2000/svg">
<path d="M8.41511 3.99993L12.0009 7.58571L15.5867 3.99993C15.9772 3.6094 16.6104 3.6094 17.0009 3.99993C17.0497 4.04874 17.0924 4.10135 17.129 4.1568C17.3853 4.54495 17.3426 5.07243 17.0009 5.41414L12.708 9.70703C12.5205 9.89457 12.2661 9.99988 12.0009 9.99988C11.7357 9.99988 11.4813 9.89457 11.2938 9.70703L7.0009 5.41414C6.61038 5.02362 6.61038 4.39045 7.0009 3.99993C7.04972 3.95111 7.10232 3.9084 7.15777 3.87179C7.54593 3.61551 8.07341 3.65822 8.41511 3.99993Z" fill="currentColor"/>
<path d="M12.0009 16.4142L15.5867 19.9999C15.9773 20.3905 16.6104 20.3905 17.0009 19.9999C17.3915 19.6094 17.3915 18.9763 17.0009 18.5857L12.7081 14.2928C12.5205 14.1053 12.2662 13.9999 12.0009 13.9999C11.7357 13.9999 11.4814 14.1053 11.2938 14.2928L7.00093 18.5857C6.81973 18.7669 6.72261 19.0004 6.70956 19.2376C6.70679 19.2879 6.70781 19.3385 6.71262 19.3887C6.73397 19.6118 6.83008 19.8291 7.00093 19.9999C7.04975 20.0488 7.10236 20.0915 7.15781 20.1281C7.54596 20.3844 8.07344 20.3417 8.41515 19.9999L12.0009 16.4142Z" fill="currentColor"/>
</svg>
