<svg width="24" height="24" viewBox="0 0 24 24" fill="none" xmlns="http://www.w3.org/2000/svg">
<path d="M15.5928 7.99997L13.007 5.41422V15C13.007 15.5523 12.5593 16 12.007 16C11.4548 16 11.007 15.5522 11.007 15V5.41422L8.42121 8.00003C8.03069 8.39056 7.39752 8.39056 7.007 8.00003C6.95818 7.95122 6.91547 7.89861 6.87886 7.84316C6.62258 7.45501 6.66529 6.92753 7.007 6.58582L11.2999 2.29289C11.4875 2.10536 11.7418 2 12.007 2C12.2723 2 12.5266 2.10536 12.7141 2.29289L17.007 6.58576C17.3975 6.97628 17.3975 7.60945 17.007 7.99997C16.6165 8.3905 15.9833 8.3905 15.5928 7.99997Z" fill="currentColor"/>
<path d="M3.00684 19.9999C3.00684 19.4476 3.45455 18.9999 4.00684 18.9999H20.0068C20.5591 18.9999 21.0068 19.4476 21.0068 19.9999C21.0068 20.5522 20.5591 20.9999 20.0068 20.9999H4.00684C3.45455 20.9999 3.00684 20.5522 3.00684 19.9999Z" fill="currentColor"/>
</svg>
