<svg xmlns="http://www.w3.org/2000/svg" width="18" height="18"><path d="M 0 4 C 0 1.791 1.791 0 4 0 L 14 0 C 16.209 0 18 1.791 18 4 L 18 14 C 18 16.209 16.209 18 14 18 L 4 18 C 1.791 18 0 16.209 0 14 Z M 5 6 C 5 6.552 5.448 7 6 7 L 9.586 7 L 4.818 11.768 C 4.427 12.158 4.427 12.791 4.818 13.182 C 5.209 13.573 5.842 13.573 6.232 13.182 L 11 8.414 L 11 12 C 11 12.552 11.448 13 12 13 C 12.552 13 13 12.552 13 12 L 13 6 C 13 5.448 12.552 5 12 5 L 6 5 C 5.448 5 5 5.448 5 6 Z" fill="currentColor"></path></svg>