<svg width="24" height="24" viewBox="0 0 24 24" fill="none" xmlns="http://www.w3.org/2000/svg">
<path fill-rule="evenodd" clip-rule="evenodd" d="M2.41419 1.99993C2.02367 1.6094 1.3905 1.6094 0.999978 1.99993C0.609454 2.39045 0.609454 3.02362 0.999978 3.41414L2.58576 4.99993H2C0.895431 4.99993 0 5.89536 0 6.99993V17C0 18.1045 0.895431 19 2 19H15C15.4466 19 15.8591 18.8536 16.1919 18.6061L18.5858 21C18.9763 21.3905 19.6095 21.3905 20 21C20.3905 20.6094 20.3905 19.9763 20 19.5857L2.41419 1.99993ZM4.58576 6.99993H2V17H14.5858L4.58576 6.99993Z" fill="currentColor"/>
<path d="M17 13.7572L15 11.7572V6.99993H10.2427L8.24271 4.99993H15C16.1046 4.99993 17 5.89536 17 6.99993V8.89993L22.4265 5.10135C23.0893 4.6374 24 5.11156 24 5.92058V18.2338C24 19.0111 23.152 19.4912 22.4855 19.0913L22.1068 18.864L22 18.7572V7.84124L17 11.3413V13.7572Z" fill="currentColor"/>
</svg>
