<svg width="24" height="24" viewBox="0 0 24 24" fill="none" xmlns="http://www.w3.org/2000/svg">
<path d="M6.63721 15.8859V8.0502L17.658 19.071C18.0485 19.4615 18.6817 19.4615 19.0722 19.071C19.4628 18.6804 19.4628 18.0473 19.0722 17.6568L8.05142 6.63599H15.8872C16.4395 6.63599 16.8872 6.18827 16.8872 5.63599C16.8872 5.60147 16.8855 5.56736 16.882 5.53374C16.8335 5.05559 16.4481 4.67703 15.9668 4.63911C15.9406 4.63704 15.914 4.63599 15.8872 4.63599H5.63721C5.60269 4.63599 5.56858 4.63774 5.53496 4.64115C5.03071 4.69236 4.63721 5.11822 4.63721 5.63599V15.8859C4.63721 16.4382 5.08492 16.8859 5.63721 16.8859C6.18949 16.8859 6.63721 16.4382 6.63721 15.8859Z" fill="currentColor"/>
</svg>
