<svg width="24" height="24" viewBox="0 0 24 24" fill="none" xmlns="http://www.w3.org/2000/svg">
<path d="M17.3666 8.1139V15.9496L6.34578 4.92888C5.95526 4.53836 5.32209 4.53836 4.93157 4.92888C4.68749 5.17296 4.59596 5.51182 4.65698 5.82698C4.69359 6.01608 4.78512 6.19665 4.93157 6.34309L15.9524 17.3639H8.1166C7.56431 17.3639 7.1166 17.8116 7.1166 18.3639C7.1166 18.9161 7.56431 19.3639 8.1166 19.3639H18.3666C18.9189 19.3639 19.3666 18.9161 19.3666 18.3639V8.1139C19.3666 7.56162 18.9189 7.11391 18.3666 7.11391C17.8143 7.1139 17.3666 7.56162 17.3666 8.1139Z" fill="currentColor"/>
</svg>
