<svg width="24" height="24" viewBox="0 0 24 24" fill="none" xmlns="http://www.w3.org/2000/svg">
<path d="M12.0004 18.0001C11.4481 18.0001 11.0004 17.5524 11.0004 17.0001V13.0001C11.0004 12.4478 11.4481 12.0001 12.0004 12.0001C12.5527 12.0001 13.0004 12.4478 13.0004 13.0001V17.0001C13.0004 17.5524 12.5527 18.0001 12.0004 18.0001Z" fill="currentColor"/>
<path d="M8.00043 18.0001C7.44814 18.0001 7.00043 17.5524 7.00043 17.0001V13.0001C7.00043 12.4478 7.44814 12.0001 8.00043 12.0001C8.55271 12.0001 9.00043 12.4478 9.00043 13.0001V17.0001C9.00043 17.5524 8.55271 18.0001 8.00043 18.0001Z" fill="currentColor"/>
<path d="M16.0004 18.0001C15.4481 18.0001 15.0004 17.5524 15.0004 17.0001V13.0001C15.0004 12.4478 15.4481 12.0001 16.0004 12.0001C16.5527 12.0001 17.0004 12.4478 17.0004 13.0001V17.0001C17.0004 17.5524 16.5527 18.0001 16.0004 18.0001Z" fill="currentColor"/>
<path fill-rule="evenodd" clip-rule="evenodd" d="M9.13601 1.37219C9.41002 0.892679 10.0209 0.726082 10.5004 1.00009C10.9799 1.2741 11.1465 1.88496 10.8725 2.36447L7.65215 8.00009H16.3486L13.1283 2.36447C12.8543 1.88496 13.0209 1.2741 13.5004 1.00009C13.9799 0.726082 14.5908 0.892679 14.8648 1.37219L18.6521 8.00009H20.5264C21.7997 8.00009 22.7488 9.17413 22.482 10.4191L20.3392 20.4191C20.1416 21.3413 19.3267 22.0001 18.3836 22.0001H5.61725C4.67418 22.0001 3.85925 21.3413 3.66165 20.4191L1.51879 10.4191C1.252 9.17413 2.20111 8.00009 3.47439 8.00009H5.34865L9.13601 1.37219ZM5.61725 20.0001L3.47439 10.0001H20.5264L18.3836 20.0001H5.61725Z" fill="currentColor"/>
</svg>
