<svg width="24" height="24" viewBox="0 0 24 24" fill="none" xmlns="http://www.w3.org/2000/svg">
<path fill-rule="evenodd" clip-rule="evenodd" d="M3.99944 6.22263C3.38096 6.57998 3 7.24005 3 7.95436V16.0458C3 16.7601 3.38095 17.4202 3.99944 17.7775L10.9994 21.822C11.6185 22.1797 12.3815 22.1797 13.0006 21.822L20.0006 17.7775C20.619 17.4202 21 16.7601 21 16.0458V7.95436C21 7.24005 20.619 6.57998 20.0006 6.22263L13.0006 2.17818C12.3815 1.82049 11.6185 1.82049 10.9994 2.17818L3.99944 6.22263ZM12 3.90991L18.0017 7.37754L16 8.53406L9.99834 5.06643L12 3.90991ZM7.99944 6.22134L14.0011 9.68897L12 10.8452L5.99834 7.37754L7.99944 6.22134ZM5 9.11055L11 12.5772V19.5125L5 16.0458L5 9.11055ZM19 9.11055V16.0458L13 19.5125V12.5772L19 9.11055Z" fill="currentColor"/>
</svg>
