<svg width="24" height="24" viewBox="0 0 24 24" fill="none" xmlns="http://www.w3.org/2000/svg">
<path fill-rule="evenodd" clip-rule="evenodd" d="M17 5V4C17 2.34315 15.6569 1 14 1H10C8.34315 1 7 2.34315 7 4V5H4C2.89543 5 2 5.89543 2 7V19C2 20.1046 2.89543 21 4 21H20C21.1046 21 22 20.1046 22 19V7C22 5.89543 21.1046 5 20 5H17ZM15 4C15 3.44772 14.5523 3 14 3H10C9.44772 3 9 3.44772 9 4V5H15V4ZM19.0418 11.7453L20 11.386V19H4V11.386L4.95818 11.7453C5.40729 11.9137 5.88302 12 6.36267 12H7V13C7 13.5523 7.44772 14 8 14C8.55229 14 9 13.5523 9 13V12H15V13C15 13.5523 15.4477 14 16 14C16.5523 14 17 13.5523 17 13V12H17.6373C18.1169 12 18.5927 11.9137 19.0418 11.7453ZM4 9.25V7H20V9.24999L18.3395 9.87266C18.115 9.95687 17.8771 10 17.6373 10H6.36267C6.12285 10 5.88498 9.95687 5.66042 9.87266L4 9.25Z" fill="currentColor"/>
</svg>
