<svg width="24" height="24" viewBox="0 0 24 24" fill="none" xmlns="http://www.w3.org/2000/svg">
<path fill-rule="evenodd" clip-rule="evenodd" d="M13.3745 5.47167C12.7042 6.03757 12.075 6.659 11.5 7.3255C10.7589 8.18461 10.1078 9.11859 9.57455 10.105C9.22704 10.0362 8.86775 10.0001 8.50004 10.0001C5.46247 10.0001 3.00004 12.4625 3.00004 15.5001V16.2227C3.00004 17.3817 2.65698 18.5147 2.01411 19.479C1.58065 20.1292 2.04675 21.0001 2.82819 21.0001H8.50004C11.5376 21.0001 14 18.5377 14 15.5001C14 15.1601 13.9692 14.8272 13.9101 14.5042C14.9659 13.9586 15.9613 13.2799 16.869 12.4959C16.8908 12.477 16.9125 12.4582 16.9342 12.4392C17.6113 11.8478 18.2386 11.1976 18.8047 10.5001C20.5591 8.33861 21.7249 5.72333 21.9573 2.99918C22.0042 2.44889 21.5517 1.9957 21.002 2.04865C18.3687 2.30227 15.7124 3.53408 13.4932 5.37241C13.4535 5.4053 13.414 5.43839 13.3745 5.47167ZM14.064 7.53566L16.5585 10.0301C18.0962 8.40691 19.2363 6.41388 19.7299 4.29994C17.7486 4.80957 15.7504 5.9467 14.064 7.53566ZM15.0797 11.3798L12.7039 9.00395C12.2291 9.59321 11.8068 10.2132 11.4453 10.8543C12.1523 11.3035 12.7498 11.9096 13.1888 12.6237C13.85 12.267 14.4836 11.8491 15.0797 11.3798ZM5.00004 15.5001C5.00004 13.5671 6.56704 12.0001 8.50004 12.0001C10.433 12.0001 12 13.5671 12 15.5001C12 17.4331 10.433 19.0001 8.50004 19.0001H4.49369C4.82679 18.1169 5.00004 17.1764 5.00004 16.2227V15.5001Z" fill="currentColor"/>
</svg>
