<svg width="24" height="24" viewBox="0 0 24 24" fill="none" xmlns="http://www.w3.org/2000/svg">
<path d="M10.4709 15.918L11.8017 17.2158C12.1936 17.598 12.82 17.5941 13.207 17.207L22.9999 7.41414C23.3904 7.02361 23.3904 6.39045 22.9999 5.99992C22.6094 5.6094 21.9762 5.6094 21.5857 5.99992L12.4911 15.0945L11.8852 14.5037L10.4709 15.918Z" fill="currentColor"/>
<path d="M16.4999 7.41414C16.8905 7.02361 16.8905 6.39045 16.4999 5.99992C16.1094 5.6094 15.4762 5.6094 15.0857 5.99992L5.99554 15.0901L2.41411 11.553C2.02116 11.1649 1.38801 11.1689 0.999928 11.5618C0.611844 11.9548 0.615788 12.5879 1.00874 12.976L5.29724 17.2114C5.68846 17.5978 6.31823 17.5958 6.70704 17.207L16.4999 7.41414Z" fill="currentColor"/>
</svg>
