<svg width="24" height="24" viewBox="0 0 24 24" fill="none" xmlns="http://www.w3.org/2000/svg">
<g clip-path="url(#clip0_434_3228)">
<path fill-rule="evenodd" clip-rule="evenodd" d="M20.38 7.03564L17.72 5.85234L16.5356 3.19128L13.6408 3.4936L11.2856 1.78564L8.92913 3.4936L6.03564 3.19128L4.85217 5.85115L2.19111 7.03564L2.4936 9.93049L0.785645 12.2856L2.4936 14.6422L2.19111 17.5356L4.85115 18.7189L6.03564 21.38L8.93049 21.0777L11.2856 22.7856L13.6422 21.0777L16.5356 21.38L17.7189 18.72L20.38 17.5356L20.0775 14.6408L21.7856 12.2856L20.0775 9.92913L20.38 7.03564ZM16.4138 10.4061L11.0402 15.7791C10.8351 15.9842 10.5665 16.0867 10.2978 16.0867C10.0292 16.0867 9.76054 15.9842 9.55546 15.7791L6.21474 12.4384C5.80458 12.0283 5.80458 11.3638 6.21474 10.9536C6.62489 10.5435 7.28935 10.5435 7.6995 10.9536L10.2978 13.552L14.929 8.92132C15.3392 8.51116 16.0036 8.51116 16.4138 8.92132C16.8239 9.33147 16.8239 9.99593 16.4138 10.4061Z" fill="currentColor"/>
</g>
<defs>
<clipPath id="clip0_434_3228">
<rect width="24" height="24" fill="white"/>
</clipPath>
</defs>
</svg>
