<svg width="24" height="24" viewBox="0 0 24 24" fill="none" xmlns="http://www.w3.org/2000/svg">
<path d="M15.5384 9.87862L11.5887 13.8283H13.8315C14.3838 13.8283 14.8315 14.2761 14.8315 14.8283C14.8315 14.8629 14.8297 14.897 14.8263 14.9306C14.7751 15.4349 14.3493 15.8284 13.8315 15.8284H9.17446C8.62218 15.8284 8.17447 15.3806 8.17446 14.8284V10.1717C8.17446 9.6194 8.62218 9.17169 9.17446 9.17169C9.72675 9.17169 10.1745 9.6194 10.1745 10.1717V12.4141L14.1242 8.46441C14.5147 8.07388 15.1479 8.07388 15.5384 8.46441C15.9289 8.85493 15.9289 9.4881 15.5384 9.87862Z" fill="currentColor"/>
<path fill-rule="evenodd" clip-rule="evenodd" d="M4.93186 19.071C1.02662 15.1658 1.02662 8.83418 4.93186 4.92893C8.8371 1.02369 15.1687 1.02369 19.074 4.92893C22.9792 8.83418 22.9792 15.1658 19.074 19.071C15.1687 22.9763 8.8371 22.9763 4.93186 19.071ZM17.6598 17.6568C14.5356 20.781 9.47027 20.781 6.34607 17.6568C3.22188 14.5326 3.22188 9.46734 6.34607 6.34315C9.47027 3.21895 14.5356 3.21895 17.6598 6.34315C20.784 9.46734 20.784 14.5326 17.6598 17.6568Z" fill="currentColor"/>
</svg>
