<svg width="24" height="24" viewBox="0 0 24 24" fill="none" xmlns="http://www.w3.org/2000/svg">
<path d="M5 3C5 2.44772 4.55228 2 4 2C3.44772 2 3 2.44772 3 3V21C3 21.5523 3.44772 22 4 22C4.55228 22 5 21.5523 5 21V3Z" fill="currentColor"/>
<path d="M20 2C20.5523 2 21 2.44772 21 3V21C21 21.5523 20.5523 22 20 22C19.4477 22 19 21.5523 19 21V3C19 2.44772 19.4477 2 20 2Z" fill="currentColor"/>
<path fill-rule="evenodd" clip-rule="evenodd" d="M13.5 18.5C14.6046 18.5 15.5 17.6045 15.5 16.5L15.5 7.49998C15.5 6.39541 14.6046 5.49998 13.5 5.49998L10.5 5.49998C9.39543 5.49998 8.5 6.39541 8.5 7.49998L8.5 16.5C8.5 17.6045 9.39543 18.5 10.5 18.5H13.5ZM10.5 7.49998L10.5 16.5H13.5L13.5 7.49998L10.5 7.49998Z" fill="currentColor"/>
</svg>
