<svg width="24" height="24" viewBox="0 0 24 24" fill="none" xmlns="http://www.w3.org/2000/svg">
<path d="M15.4998 8.50017C15.1093 8.10965 14.4761 8.10965 14.0856 8.50017L11.9998 10.5859L9.91403 8.50017C9.5235 8.10965 8.89034 8.10965 8.49981 8.50017C8.10929 8.8907 8.10929 9.52386 8.49981 9.91438L10.5856 12.0001L8.49981 14.0859C8.10928 14.4764 8.10928 15.1096 8.49981 15.5001C8.89033 15.8907 9.5235 15.8907 9.91402 15.5001L11.9998 13.4143L14.0856 15.5001C14.4761 15.8907 15.1093 15.8907 15.4998 15.5001C15.8903 15.1096 15.8903 14.4764 15.4998 14.0859L13.414 12.0001L15.4998 9.91438C15.8903 9.52386 15.8903 8.8907 15.4998 8.50017Z" fill="currentColor"/>
<path fill-rule="evenodd" clip-rule="evenodd" d="M12.9999 1.57752C12.3811 1.22025 11.6187 1.22025 10.9999 1.57752L3.47363 5.92281C2.85483 6.28008 2.47363 6.94033 2.47363 7.65486V16.3454C2.47363 17.06 2.85483 17.7202 3.47363 18.0775L10.9999 22.4228C11.6187 22.78 12.3811 22.78 12.9999 22.4228L20.5262 18.0775C21.145 17.7202 21.5262 17.06 21.5262 16.3454V7.65486C21.5262 6.94033 21.145 6.28008 20.5262 5.92281L12.9999 1.57752ZM19.5262 7.65486L11.9999 3.30957L4.47363 7.65486V16.3454L11.9999 20.6907L19.5262 16.3454V7.65486Z" fill="currentColor"/>
</svg>
