<svg width="24" height="24" viewBox="0 0 24 24" fill="none" xmlns="http://www.w3.org/2000/svg">
<path fill-rule="evenodd" clip-rule="evenodd" d="M3.41431 2.99993C3.02379 2.6094 2.39062 2.6094 2.0001 2.99993C1.60958 3.39045 1.60958 4.02362 2.0001 4.41414L4.63205 7.04609C2.99403 8.5554 1.92448 10.2571 1.39435 11.2218C1.12571 11.7107 1.12571 12.2892 1.39435 12.7781C2.49915 14.7885 5.94677 20 12.0001 20C13.7147 20 15.2202 19.5818 16.5227 18.9368L19.5859 22C19.9764 22.3905 20.6096 22.3905 21.0001 22C21.3906 21.6094 21.3906 20.9763 21.0001 20.5857L18.2746 17.8603L3.41431 2.99993ZM3.25071 11.9999C3.75923 11.1072 4.69194 9.69393 6.04764 8.46168L8.23423 10.6483C8.08267 11.0705 8.0001 11.5256 8.0001 11.9999C8.0001 14.2091 9.79096 16 12.0001 16C12.4745 16 12.9295 15.9174 13.3518 15.7658L15.0097 17.4238C14.104 17.7848 13.1028 18 12.0001 18C9.59297 18 7.66981 16.9748 6.16676 15.645C4.74644 14.3884 3.77399 12.9186 3.25071 11.9999Z" fill="currentColor"/>
<path d="M15.9396 12.6968L11.3033 8.06042C11.5296 8.02067 11.7624 7.99994 12.0001 7.99994C14.2092 7.99994 16.0001 9.7908 16.0001 11.9999C16.0001 12.2376 15.9794 12.4705 15.9396 12.6968Z" fill="currentColor"/>
<path d="M18.3767 15.1338C19.5046 14.007 20.2958 12.7963 20.7495 11.9999C20.2262 11.0813 19.2538 9.61144 17.8334 8.35485C16.3304 7.02507 14.4072 5.99992 12.0001 5.99992C11.1401 5.99992 10.3419 6.13077 9.60252 6.35962L8.04523 4.80232C9.21218 4.30761 10.5292 3.99991 12.0001 3.99991C18.0534 3.99991 21.501 9.21133 22.6058 11.2218C22.8745 11.7107 22.8745 12.2892 22.6058 12.7781C22.1228 13.6572 21.1918 15.1482 19.7909 16.548L18.3767 15.1338Z" fill="currentColor"/>
</svg>
