<svg width="24" height="24" viewBox="0 0 24 24" fill="none" xmlns="http://www.w3.org/2000/svg">
<path fill-rule="evenodd" clip-rule="evenodd" d="M8.02548 6.47444C7.24444 7.25549 7.24444 8.52182 8.02548 9.30287L8.61127 9.88866L4.17157 14.3284C3.42143 15.0785 3 16.0959 3 17.1568V19.9999C3 20.5522 3.44772 20.9999 4 20.9999H6.84315C7.90401 20.9999 8.92143 20.5785 9.67157 19.8284L14.1113 15.3887L14.6971 15.9744C15.4781 16.7555 16.7444 16.7555 17.5255 15.9744L18.8914 14.6085C19.6722 13.8278 19.6725 12.5621 18.8923 11.781L18.3056 11.1943L20.25 9.24993C21.7688 7.73114 21.7688 5.26871 20.25 3.74993C18.7312 2.23114 16.2688 2.23114 14.75 3.74993L12.8056 5.69429L12.2199 5.10851C11.4388 4.32746 10.1725 4.32746 9.39142 5.10851L8.02548 6.47444ZM12.0985 7.81561L10.8056 6.52272L9.4397 7.88866L16.1113 14.5602L17.4772 13.1943L16.1843 11.9014C15.7938 11.5109 15.7938 10.8777 16.1843 10.4872L18.8358 7.83571C19.5735 7.09798 19.5735 5.90188 18.8358 5.16414C18.0981 4.42641 16.902 4.42641 16.1642 5.16414L13.5127 7.81561C13.1222 8.20614 12.4891 8.20614 12.0985 7.81561ZM12.6971 13.9745L10.0255 11.3029L5.58579 15.7426C5.21071 16.1176 5 16.6264 5 17.1568V18.9999H6.84315C7.37358 18.9999 7.88229 18.7892 8.25736 18.4141L12.6971 13.9745Z" fill="currentColor"/>
</svg>
