<svg width="24" height="24" viewBox="0 0 24 24" fill="none" xmlns="http://www.w3.org/2000/svg">
<path fill-rule="evenodd" clip-rule="evenodd" d="M2.53 18.5436C1.86395 18.9599 1 18.481 1 17.6956V6.30409C1 5.51866 1.86395 5.03981 2.53 5.45609L11.6432 11.1519C11.8028 11.2516 11.9217 11.3851 12 11.5352V6.30409C12 5.51866 12.864 5.03981 13.53 5.45609L22.6432 11.1519C23.2699 11.5435 23.2699 12.4562 22.6432 12.8479L13.53 18.5436C12.864 18.9599 12 18.481 12 17.6956V12.4646C11.9217 12.6146 11.8028 12.7481 11.6432 12.8479L2.53 18.5436ZM9.22641 11.9999L3 15.8914V8.10834L9.22641 11.9999ZM14 15.8914L20.2264 11.9999L14 8.10834V15.8914Z" fill="currentColor"/>
</svg>
