<svg xmlns="http://www.w3.org/2000/svg" width="1896" height="400" fill="none" viewBox="0 0 1896 400">
    <g clip-path="url(#a)">
        <rect width="400" height="400" fill="#000" rx="200"/>
        <path stroke="#fff" stroke-linecap="round" stroke-width="40" d="m107 439 68-209M69 209h261"/>
        <path fill="#fff" d="M398 104h-85.5c-46 0-77.975 9.215-96 53.5h-49C190.074 93.954 238 56 306 56h50l34.5 48h7.5Z"/>
        <path stroke="#fff" d="M398 104h-85.5c-46 0-77.975 9.215-96 53.5h-49C190.074 93.954 238 56 306 56h50l34.5 48m7.5 0h-7.5m7.5 0h-7.5"/>
    </g>
    <path fill="#000" d="M460.915 309V145.364h57.102v31.108h1.705c2.983-11.506 7.706-19.922 14.169-25.249 6.534-5.327 14.169-7.99 22.904-7.99 2.557 0 5.079.213 7.564.639 2.557.355 5.007.888 7.351 1.598v50.178c-2.912-.995-6.498-1.74-10.76-2.237-4.261-.498-7.919-.746-10.973-.746-5.753 0-10.937 1.314-15.554 3.942-4.545 2.556-8.132 6.179-10.76 10.866-2.627 4.616-3.941 10.05-3.941 16.3V309h-58.807Zm168.057 2.557c-10.44 0-19.673-1.705-27.699-5.114-7.954-3.48-14.204-8.736-18.75-15.767-4.545-7.031-6.818-15.98-6.818-26.846 0-8.949 1.527-16.584 4.581-22.905 3.054-6.392 7.316-11.613 12.784-15.661 5.469-4.048 11.826-7.138 19.07-9.268 7.315-2.131 15.199-3.516 23.65-4.155 9.162-.71 16.513-1.563 22.053-2.557 5.611-1.065 9.659-2.521 12.145-4.368 2.486-1.917 3.729-4.439 3.729-7.564v-.426c0-4.261-1.634-7.528-4.901-9.801-3.267-2.273-7.457-3.409-12.571-3.409-5.611 0-10.192 1.243-13.743 3.729-3.48 2.414-5.575 6.143-6.285 11.186h-54.12c.711-9.944 3.871-19.105 9.482-27.486 5.682-8.452 13.956-15.199 24.822-20.242 10.867-5.113 24.432-7.67 40.696-7.67 11.719 0 22.23 1.385 31.534 4.155 9.304 2.699 17.223 6.498 23.757 11.399 6.535 4.829 11.506 10.511 14.915 17.045 3.48 6.463 5.22 13.495 5.22 21.094V309h-54.971v-23.011h-1.279c-3.267 6.108-7.244 11.044-11.931 14.808-4.617 3.764-9.908 6.498-15.874 8.203-5.895 1.705-12.393 2.557-19.496 2.557Zm19.176-37.074c4.475 0 8.665-.923 12.571-2.77 3.978-1.847 7.209-4.51 9.695-7.99 2.486-3.48 3.729-7.706 3.729-12.678v-13.636a68.031 68.031 0 0 1-5.007 1.811 75.368 75.368 0 0 1-5.54 1.598 101.65 101.65 0 0 1-6.179 1.385c-2.131.426-4.368.817-6.712 1.172-4.545.71-8.274 1.882-11.186 3.516-2.841 1.562-4.971 3.515-6.392 5.859-1.349 2.273-2.024 4.83-2.024 7.67 0 4.546 1.598 8.026 4.794 10.441 3.196 2.415 7.28 3.622 12.251 3.622Zm191.309 99.29c-16.406 0-30.469-2.344-42.187-7.032-11.648-4.616-20.704-11.008-27.167-19.176-6.392-8.096-9.978-17.4-10.76-27.912h56.677c.568 3.481 1.988 6.286 4.261 8.417 2.273 2.13 5.185 3.657 8.736 4.581 3.622.994 7.67 1.491 12.145 1.491 7.599 0 13.885-1.847 18.856-5.54 5.043-3.693 7.564-10.369 7.564-20.028v-27.699h-1.705c-2.13 5.54-5.397 10.263-9.801 14.169-4.403 3.835-9.694 6.783-15.873 8.842-6.179 1.989-12.962 2.983-20.348 2.983-11.648 0-22.372-2.699-32.174-8.096-9.73-5.398-17.542-13.956-23.437-25.675-5.824-11.719-8.736-27.024-8.736-45.916 0-19.745 3.054-35.796 9.162-48.154 6.179-12.358 14.134-21.413 23.864-27.166 9.801-5.753 20.099-8.629 30.895-8.629 8.096 0 15.198 1.42 21.306 4.261 6.108 2.77 11.222 6.499 15.341 11.186 4.12 4.617 7.245 9.695 9.375 15.235h1.279v-28.551h58.807v163.21c0 13.849-3.587 25.604-10.76 35.263-7.103 9.73-17.117 17.152-30.043 22.265-12.926 5.114-28.018 7.671-45.277 7.671Zm2.131-108.665c5.397 0 10.014-1.492 13.849-4.474 3.906-3.054 6.889-7.387 8.949-12.998 2.131-5.681 3.196-12.5 3.196-20.454 0-8.097-1.065-15.021-3.196-20.774-2.06-5.824-5.043-10.263-8.949-13.317-3.835-3.125-8.452-4.688-13.849-4.688-5.398 0-10.014 1.563-13.85 4.688-3.764 3.054-6.676 7.493-8.736 13.317-1.988 5.753-2.982 12.677-2.982 20.774 0 8.096.994 14.986 2.982 20.667 2.06 5.611 4.972 9.908 8.736 12.891 3.836 2.912 8.452 4.368 13.85 4.368ZM955.446 309V145.364h55.824v31.108h1.7c3.41-10.228 9.24-18.324 17.48-24.29 8.23-5.966 18.04-8.949 29.4-8.949 11.51 0 21.41 3.054 29.72 9.162 8.31 6.037 13.32 14.062 15.02 24.077h1.71c2.77-10.015 8.66-18.04 17.68-24.077 9.02-6.108 19.61-9.162 31.75-9.162 15.7 0 28.41 5.043 38.14 15.128 9.8 10.085 14.7 23.508 14.7 40.27V309h-58.81v-95.455c0-7.173-1.81-12.784-5.43-16.832-3.62-4.119-8.49-6.179-14.59-6.179-6.04 0-10.84 2.06-14.39 6.179-3.48 4.048-5.22 9.659-5.22 16.832V309h-56.25v-95.455c0-7.173-1.81-12.784-5.43-16.832-3.62-4.119-8.49-6.179-14.59-6.179-4.05 0-7.53.923-10.45 2.77-2.91 1.847-5.18 4.51-6.81 7.99-1.57 3.409-2.35 7.493-2.35 12.251V309h-58.804Zm360.534 2.983c-17.47 0-32.52-3.338-45.17-10.014-12.57-6.747-22.26-16.407-29.08-28.978-6.75-12.642-10.12-27.769-10.12-45.383 0-16.903 3.41-31.676 10.23-44.318 6.81-12.642 16.44-22.479 28.87-29.51 12.43-7.031 27.09-10.547 44-10.547 12.35 0 23.54 1.918 33.55 5.753 10.02 3.835 18.58 9.41 25.68 16.726 7.1 7.244 12.57 16.051 16.4 26.42 3.84 10.369 5.76 22.053 5.76 35.05v13.636h-146.17v-32.386h92.05c-.07-4.688-1.28-8.807-3.62-12.358-2.28-3.622-5.37-6.428-9.27-8.416-3.84-2.06-8.21-3.09-13.11-3.09-4.75 0-9.12 1.03-13.1 3.09-3.98 1.988-7.17 4.758-9.59 8.309-2.34 3.551-3.58 7.706-3.73 12.465v34.943c0 5.256 1.1 9.943 3.31 14.063 2.2 4.119 5.36 7.35 9.48 9.694 4.12 2.344 9.09 3.516 14.91 3.516 4.05 0 7.74-.568 11.08-1.705 3.41-1.136 6.32-2.77 8.74-4.9 2.41-2.202 4.19-4.83 5.32-7.884h53.7c-1.85 11.364-6.22 21.236-13.11 29.617-6.89 8.309-16.01 14.772-27.38 19.389-11.29 4.545-24.5 6.818-39.63 6.818Zm162.92-95.028V309h-58.81V145.364h55.83v31.108h1.7c3.55-10.37 9.8-18.502 18.75-24.397 9.02-5.895 19.53-8.842 31.54-8.842 11.57 0 21.62 2.663 30.15 7.99 8.59 5.256 15.23 12.5 19.92 21.733 4.76 9.233 7.1 19.78 7.03 31.641V309h-58.81v-92.045c.07-8.097-1.99-14.454-6.18-19.07-4.12-4.617-9.87-6.925-17.26-6.925-4.82 0-9.05 1.066-12.67 3.196-3.55 2.06-6.29 5.043-8.21 8.949-1.91 3.835-2.91 8.452-2.98 13.85Zm232.72-71.591v42.613h-107.81v-42.613h107.81Zm-86.93-39.205h58.81v150.213c0 2.273.39 4.19 1.17 5.753.78 1.491 1.99 2.628 3.62 3.409 1.64.71 3.73 1.065 6.29 1.065 1.78 0 3.83-.213 6.18-.639 2.41-.426 4.19-.781 5.33-1.065l8.52 41.335c-2.63.781-6.39 1.74-11.29 2.877-4.83 1.136-10.59 1.882-17.26 2.237-13.5.71-24.83-.675-33.99-4.155-9.16-3.551-16.05-9.127-20.67-16.726-4.61-7.599-6.85-17.116-6.71-28.551V106.159Zm258.75 92.472h-54.12c-.29-3.338-1.46-6.215-3.52-8.63-2.06-2.414-4.72-4.261-7.99-5.539-3.19-1.35-6.74-2.024-10.65-2.024-5.04 0-9.38.923-13 2.769-3.62 1.847-5.4 4.475-5.32 7.884-.08 2.415.95 4.652 3.09 6.712 2.2 2.059 6.42 3.657 12.67 4.794l33.24 5.965c16.76 3.054 29.23 8.204 37.39 15.448 8.24 7.173 12.4 16.797 12.47 28.871-.07 11.647-3.55 21.768-10.44 30.362-6.82 8.523-16.16 15.128-28.02 19.815-11.79 4.617-25.25 6.925-40.38 6.925-25 0-44.56-5.114-58.7-15.341-14.06-10.227-21.91-23.722-23.54-40.483H1785c.78 5.185 3.34 9.198 7.67 12.038 4.4 2.77 9.94 4.155 16.62 4.155 5.4 0 9.84-.923 13.32-2.77 3.55-1.846 5.36-4.474 5.43-7.883-.07-3.125-1.63-5.611-4.69-7.458-2.98-1.846-7.67-3.338-14.06-4.474l-28.98-5.114c-16.69-2.912-29.19-8.451-37.5-16.619-8.31-8.168-12.43-18.679-12.36-31.534-.07-11.364 2.92-20.987 8.95-28.871 6.11-7.954 14.81-13.991 26.1-18.111 11.37-4.19 24.83-6.285 40.38-6.285 23.65 0 42.3 4.901 55.93 14.702 13.71 9.801 20.92 23.366 21.63 40.696Z"/>
    <defs>
        <clipPath id="a">
            <rect width="400" height="400" fill="#fff" rx="200"/>
        </clipPath>
    </defs>
</svg>
