<svg width="24" height="24" viewBox="0 0 24 24" fill="none" xmlns="http://www.w3.org/2000/svg">
<path d="M3 7.0001C3 6.36497 3.51487 5.8501 4.15 5.8501C4.78513 5.8501 5.3 6.36497 5.3 7.0001C5.3 7.63523 4.78513 8.1501 4.15 8.1501C3.51487 8.1501 3 7.63523 3 7.0001Z" fill="currentColor"/>
<path d="M7.00007 7.0001C7.00007 6.44781 7.44779 6.0001 8.00007 6.0001H20.0001C20.5524 6.0001 21.0001 6.44781 21.0001 7.0001C21.0001 7.55238 20.5524 8.0001 20.0001 8.0001H8.00007C7.44779 8.0001 7.00007 7.55238 7.00007 7.0001Z" fill="currentColor"/>
<path d="M3 12.0001C3 11.3649 3.51487 10.8501 4.15 10.8501C4.78513 10.8501 5.3 11.3649 5.3 12.0001C5.3 12.6352 4.78513 13.1501 4.15 13.1501C3.51487 13.1501 3 12.6352 3 12.0001Z" fill="currentColor"/>
<path d="M8.00007 11.0001C7.44779 11.0001 7.00007 11.4478 7.00007 12.0001C7.00007 12.5523 7.44779 13.0001 8.00007 13.0001H20.0001C20.5524 13.0001 21.0001 12.5523 21.0001 12.0001C21.0001 11.4478 20.5524 11.0001 20.0001 11.0001H8.00007Z" fill="currentColor"/>
<path d="M7.00007 17.0001C7.00007 16.4478 7.44779 16.0001 8.00007 16.0001H20.0001C20.5524 16.0001 21.0001 16.4478 21.0001 17.0001C21.0001 17.5524 20.5524 18.0001 20.0001 18.0001H8.00007C7.44779 18.0001 7.00007 17.5524 7.00007 17.0001Z" fill="currentColor"/>
<path d="M3.00007 17.0001C3.00007 16.365 3.51495 15.8501 4.15007 15.8501C4.7852 15.8501 5.30007 16.365 5.30007 17.0001C5.30007 17.6352 4.7852 18.1501 4.15007 18.1501C3.51495 18.1501 3.00007 17.6352 3.00007 17.0001Z" fill="currentColor"/>
</svg>
