<svg width="24" height="24" viewBox="0 0 24 24" fill="none" xmlns="http://www.w3.org/2000/svg">
<path fill-rule="evenodd" clip-rule="evenodd" d="M8.27376 19.0552C8.55471 19.0188 8.84021 19.0424 9.11135 19.1245L14.8887 20.8752C15.1598 20.9574 15.4453 20.981 15.7262 20.9445L21.2576 20.2262C22.2542 20.0967 23 19.2478 23 18.2428V6.27641C23 5.06957 21.9392 4.13764 20.7424 4.29307L15.7262 4.94452C15.4453 4.98101 15.1598 4.95739 14.8887 4.87522L9.11135 3.12453C8.84021 3.04236 8.55471 3.01874 8.27376 3.05523L2.74242 3.77359C1.7458 3.90302 1 4.75193 1 5.75693V17.7233C1 18.9302 2.06078 19.8621 3.25758 19.7067L8.27376 19.0552ZM9.7 5.39272L14.3 6.78665V18.607L9.7 17.2131V5.39272ZM7.7 5.14654L3 5.75693V17.7233L7.7 17.113V5.14654ZM16.3 18.8532L21 18.2428V6.27641L16.3 6.8868V18.8532Z" fill="currentColor"/>
</svg>
