<svg width="24" height="24" viewBox="0 0 24 24" fill="none" xmlns="http://www.w3.org/2000/svg">
<path d="M22 3.41414L17.4142 7.99993H20C20.5523 7.99993 21 8.44764 21 8.99993C21 9.55221 20.5523 9.99993 20 9.99993H15C14.4477 9.99993 14 9.55221 14 8.99993V3.99992C14 3.44764 14.4477 2.99992 15 2.99992C15.5523 2.99992 16 3.44764 16 3.99992V6.58571L20.5858 1.99992C20.9763 1.6094 21.6095 1.6094 22 1.99992C22.3905 2.39045 22.3905 3.02361 22 3.41414Z" fill="currentColor"/>
<path fill-rule="evenodd" clip-rule="evenodd" d="M21.0047 21.342C21.6329 20.8043 21.9962 20.0199 22 19.193V16.1795C22 15.3021 21.4281 14.5271 20.5898 14.2684L17.1131 13.1955C16.4856 13.0019 15.8031 13.1286 15.2869 13.5346L13.8995 14.6257C13.0354 14.0204 12.2118 13.3318 11.4399 12.56C10.6681 11.7881 9.97951 10.9646 9.37419 10.1004L10.4654 8.71301C10.8713 8.19686 10.998 7.51432 10.8044 6.88685L9.73153 3.41018C9.47281 2.57179 8.69786 1.99992 7.82046 1.99992H4.8069C3.98001 2.00373 3.19565 2.36702 2.65797 2.99525C2.21357 3.51448 1.96206 4.1769 2.00467 4.85901C2.27326 9.15816 4.04992 13.3803 7.33479 16.6651C10.6197 19.95 14.8418 21.7267 19.1409 21.9953C19.823 22.0379 20.4854 21.7864 21.0047 21.342ZM7.80217 8.86397C7.257 9.55711 7.23015 10.5255 7.73607 11.2478C8.40782 12.2068 9.17126 13.1198 10.0257 13.9742C10.8802 14.8287 11.7931 15.5921 12.7521 16.2639C13.4744 16.7698 14.4428 16.7429 15.136 16.1978L16.5233 15.1066L20 16.1795V19.1871C19.9979 19.4316 19.8901 19.6634 19.7042 19.8225C19.5325 19.9695 19.3695 20.0056 19.2656 19.9991C15.434 19.7598 11.6762 18.1781 8.749 15.2509C5.82181 12.3237 4.24016 8.56589 4.00078 4.7343C3.99429 4.6304 4.03046 4.46744 4.17743 4.29573C4.33653 4.10983 4.5683 4.00199 4.81287 3.99992H7.82046L8.89334 7.4766L7.80217 8.86397Z" fill="currentColor"/>
</svg>
