<svg width="24" height="24" viewBox="0 0 24 24" fill="none" xmlns="http://www.w3.org/2000/svg">
<path d="M15.2156 5.99982L14.0943 7.12114C13.7038 7.51166 13.7038 8.14483 14.0943 8.53535C14.4848 8.92587 15.118 8.92587 15.5085 8.53535L18.337 5.70692C18.5245 5.51939 18.6299 5.26503 18.6299 4.99982C18.6299 4.7346 18.5245 4.48025 18.337 4.29271L15.5085 1.46428C15.4597 1.41547 15.4071 1.37275 15.3517 1.33614C14.9635 1.07986 14.436 1.12257 14.0943 1.46428C13.7038 1.85481 13.7038 2.48797 14.0943 2.8785L15.2156 3.99982H10.0088C5.59051 3.99982 2.00879 7.58154 2.00879 11.9998C2.00879 13.3978 2.36734 14.7119 2.9975 15.8554C3.29674 16.3984 4.02656 16.4465 4.46495 16.0081C4.81428 15.6588 4.85507 15.1134 4.63482 14.6712C4.23414 13.8667 4.00879 12.9596 4.00879 11.9998C4.00879 8.68611 6.69508 5.99982 10.0088 5.99982H15.2156Z" fill="currentColor"/>
<path d="M9.92326 21.1212L8.80194 19.9998H14.0088C18.4271 19.9998 22.0088 16.4181 22.0088 11.9998C22.0088 10.6019 21.6502 9.2877 21.0201 8.14421C20.9827 8.07634 20.9385 8.0162 20.8891 7.96377C20.5429 7.59679 19.9362 7.60791 19.5526 7.9915C19.2033 8.34083 19.1625 8.8862 19.3828 9.32842C19.4328 9.42898 19.4802 9.53114 19.5247 9.63481C19.8363 10.3605 20.0088 11.16 20.0088 11.9998C20.0088 15.3135 17.3225 17.9998 14.0088 17.9998H8.80194L9.92326 16.8785C10.3138 16.488 10.3138 15.8548 9.92326 15.4643C9.53273 15.0738 8.89957 15.0738 8.50904 15.4643L5.68062 18.2927C5.49308 18.4803 5.38772 18.7346 5.38772 18.9998C5.38772 19.2651 5.49308 19.5194 5.68062 19.7069L8.50904 22.5354C8.89957 22.9259 9.53273 22.9259 9.92326 22.5354C10.3138 22.1448 10.3138 21.5117 9.92326 21.1212Z" fill="currentColor"/>
</svg>
