<svg width="24" height="24" viewBox="0 0 24 24" fill="none" xmlns="http://www.w3.org/2000/svg">
<path d="M8.00878 8.41414L5.42301 10.9999H15.0088C18.8748 10.9999 22.0088 14.1339 22.0088 17.9999C22.0088 18.5522 21.5611 18.9999 21.0088 18.9999C20.4565 18.9999 20.0088 18.5522 20.0088 17.9999C20.0088 15.2385 17.7702 12.9999 15.0088 12.9999H5.423L8.00878 15.5857C8.39931 15.9762 8.3993 16.6094 8.00878 16.9999C7.61825 17.3904 6.98509 17.3904 6.59456 16.9999L2.30168 12.707C1.91116 12.3165 1.91116 11.6833 2.30168 11.2928L6.59456 6.99993C6.98509 6.6094 7.61825 6.6094 8.00878 6.99993C8.05759 7.04874 8.10031 7.10135 8.13692 7.1568C8.3932 7.54495 8.35049 8.07243 8.00878 8.41414Z" fill="currentColor"/>
</svg>
