<svg width="24" height="24" viewBox="0 0 24 24" fill="none" xmlns="http://www.w3.org/2000/svg">
<path fill-rule="evenodd" clip-rule="evenodd" d="M21.9977 12.9999L4.24501 21.8774C3.43645 22.2817 2.54902 21.4908 2.85796 20.6413L5.87599 12.3417C5.95627 12.1209 5.95627 11.8789 5.87599 11.6582L2.85783 3.35821C2.54891 2.50867 3.43624 1.71779 4.24479 2.12202L22.2114 11.1042C22.9484 11.4726 22.9485 12.5245 22.2115 12.893L22.0003 12.9986V12.9999H21.9977ZM5.59498 5.03304L17.5303 10.9999H7.76462C7.76165 10.9915 7.75863 10.9831 7.75558 10.9747L5.59498 5.03304ZM7.76462 12.9999C7.76165 13.0083 7.75863 13.0168 7.75558 13.0252L5.59524 18.9661L17.526 12.9999H7.76462Z" fill="currentColor"/>
</svg>
