<svg width="24" height="24" viewBox="0 0 24 24" fill="none" xmlns="http://www.w3.org/2000/svg">
<path d="M16.5 9.91405C16.8905 9.52353 16.8905 8.89036 16.5 8.49984C16.1095 8.10931 15.4763 8.10931 15.0858 8.49984L11 12.5857L9.41422 10.9999C9.02369 10.6093 8.39053 10.6093 8 10.9999C7.60948 11.3904 7.60948 12.0236 8 12.4141L10.2929 14.707C10.6834 15.0975 11.3166 15.0975 11.7071 14.707L16.5 9.91405Z" fill="currentColor"/>
<path fill-rule="evenodd" clip-rule="evenodd" d="M4.18772 4.47197C3.46547 4.79297 3 5.50921 3 6.29959V12.9999C3 18.8765 9.34312 21.934 11.379 22.7639C11.7798 22.9273 12.2203 22.9273 12.621 22.7639C14.6569 21.934 21 18.8765 21 12.9999V6.29959C21 5.50921 20.5345 4.79297 19.8123 4.47197L12.8123 1.36086C12.2951 1.13102 11.7049 1.13102 11.1877 1.36086L4.18772 4.47197ZM16.2605 18.2662C17.8582 16.8747 19 15.1449 19 12.9999V6.29959L12 3.18848L5 6.29959V12.9999C5 15.1449 6.14184 16.8747 7.73955 18.2662C9.26856 19.5978 11.0369 20.453 12 20.8565C12.9631 20.453 14.7314 19.5978 16.2605 18.2662Z" fill="currentColor"/>
</svg>
