<svg width="24" height="24" viewBox="0 0 24 24" fill="none" xmlns="http://www.w3.org/2000/svg">
<path fill-rule="evenodd" clip-rule="evenodd" d="M1 14C1 15.1046 1.89543 16 3 16H7L12.3492 20.5851C12.9979 21.1411 14 20.6802 14 19.8258V4.17429C14 3.31994 12.9979 2.85903 12.3492 3.41504L7 8.00007H3C1.89543 8.00007 1 8.8955 1 10.0001V14ZM8.30158 14.4815C7.9391 14.1708 7.47742 14 7 14H3V10.0001H7C7.47742 10.0001 7.9391 9.82928 8.30158 9.51858L12 6.34851V17.6516L8.30158 14.4815Z" fill="currentColor"/>
<path d="M19 13.4143L17.4142 15C17.0237 15.3906 16.3905 15.3906 16 15C15.6095 14.6095 15.6095 13.9763 16 13.5858L17.5858 12L16 10.4143C15.6095 10.0237 15.6095 9.39057 16 9.00005C16.0488 8.95123 16.1014 8.90852 16.1569 8.87191C16.545 8.61563 17.0725 8.65834 17.4142 9.00005L19 10.5858L20.5858 9.00004C20.9763 8.60952 21.6095 8.60952 22 9.00004C22.0488 9.04886 22.0915 9.10146 22.1281 9.15691C22.3844 9.54506 22.3417 10.0726 22 10.4143L20.4142 12L22 13.5858C22.3905 13.9764 22.3905 14.6095 22 15C21.6095 15.3906 20.9763 15.3906 20.5858 15L19 13.4143Z" fill="currentColor"/>
</svg>
