<svg width="24" height="24" viewBox="0 0 24 24" fill="none" xmlns="http://www.w3.org/2000/svg">
<path fill-rule="evenodd" clip-rule="evenodd" d="M12.3492 20.5851L7 16H3C1.89543 16 1 15.1046 1 14V10.0001C1 8.8955 1.89543 8.00007 3 8.00007H7L12.3492 3.41504C12.9979 2.85903 14 3.31994 14 4.17429V19.8258C14 20.6802 12.9979 21.1411 12.3492 20.5851ZM7 14C7.47742 14 7.9391 14.1708 8.30158 14.4815L12 17.6516V6.34851L8.30158 9.51858C7.9391 9.82928 7.47742 10.0001 7 10.0001H3V14H7Z" fill="currentColor"/>
<path d="M17.604 7.80548C17.2731 7.36334 16.6332 7.36693 16.2426 7.75746C15.8521 8.14798 15.8623 8.77712 16.1675 9.23745C16.3446 9.5047 16.4961 9.78902 16.6194 10.0866C16.8707 10.6933 17 11.3434 17 12C17 12.6567 16.8707 13.3068 16.6194 13.9135C16.4961 14.2111 16.3446 14.4954 16.1675 14.7627C15.8623 15.223 15.8521 15.8522 16.2426 16.2427C16.6332 16.6332 17.2731 16.6368 17.604 16.1947C17.953 15.7284 18.2433 15.2193 18.4672 14.6788C18.8189 13.8295 19 12.9193 19 12C19 11.0808 18.8189 10.1705 18.4672 9.32131C18.4532 9.28753 18.4389 9.25387 18.4244 9.22034C18.2068 8.71735 17.9312 8.24261 17.604 7.80548Z" fill="currentColor"/>
<path d="M19.0534 4.9467C19.4537 4.5464 20.1069 4.54359 20.4682 4.97941C20.5558 5.0851 20.6414 5.19238 20.725 5.30119C21.3098 6.06288 21.7936 6.89953 22.1627 7.79054C22.2318 7.95736 22.2967 8.12568 22.3574 8.29534C22.7822 9.48294 23 10.7361 23 12C23 13.4446 22.7155 14.875 22.1627 16.2096C21.7409 17.2279 21.1692 18.1751 20.4682 19.0207C20.1069 19.4565 19.4537 19.4537 19.0534 19.0534C18.6531 18.6531 18.6584 18.0073 19.0103 17.5639C19.526 16.9141 19.9499 16.1945 20.2686 15.425C20.7184 14.3392 20.9499 13.1754 20.9499 12C20.9499 10.8247 20.7184 9.66092 20.2686 8.57507C19.9499 7.80561 19.526 7.08598 19.0103 6.43621C18.9663 6.38078 18.9278 6.32219 18.8947 6.26131C18.6634 5.83517 18.7031 5.29696 19.0534 4.9467Z" fill="currentColor"/>
</svg>
