<svg width="24" height="24" viewBox="0 0 24 24" fill="none" xmlns="http://www.w3.org/2000/svg">
<path fill-rule="evenodd" clip-rule="evenodd" d="M1 14C1 15.1046 1.89543 16 3 16H7L12.3492 20.5851C12.9979 21.1411 14 20.6802 14 19.8258V4.17429C14 3.31994 12.9979 2.85903 12.3492 3.41504L7 8.00007H3C1.89543 8.00007 1 8.8955 1 10.0001V14ZM8.30158 14.4815C7.9391 14.1708 7.47742 14 7 14H3V10.0001H7C7.47742 10.0001 7.9391 9.82928 8.30158 9.51858L12 6.34851V17.6516L8.30158 14.4815Z" fill="currentColor"/>
<path d="M16.3997 7.62926C16.7883 7.373 17.3145 7.4186 17.604 7.80548C17.953 8.27176 18.2433 8.78082 18.4672 9.32131C18.8189 10.1706 19 11.0808 19 12C19 12.0575 18.9993 12.115 18.9979 12.1723C18.9767 13.0329 18.797 13.8827 18.4672 14.6789C18.2433 15.2194 17.953 15.7284 17.604 16.1947C17.2731 16.6368 16.6332 16.6332 16.2426 16.2427C15.8521 15.8522 15.8623 15.223 16.1675 14.7627C16.3446 14.4954 16.4961 14.2111 16.6194 13.9135C16.8707 13.3068 17 12.6567 17 12C17 11.3434 16.8707 10.6933 16.6194 10.0866C16.4961 9.78902 16.3446 9.5047 16.1675 9.23745C16.1293 9.17991 16.0958 9.11973 16.0671 9.05771C15.866 8.62356 15.9009 8.09917 16.2426 7.75746C16.2915 7.70864 16.3442 7.66587 16.3997 7.62926Z" fill="currentColor"/>
</svg>
