<svg width="24" height="24" viewBox="0 0 24 24" fill="none" xmlns="http://www.w3.org/2000/svg">
<path d="M16.0029 8.41414L18.5887 10.9999H3.00293C2.96841 10.9999 2.9343 11.0017 2.90069 11.0051C2.39643 11.0563 2.00293 11.4822 2.00293 11.9999C2.00293 12.5522 2.45064 12.9999 3.00293 12.9999H18.5887L16.0029 15.5857C15.6124 15.9762 15.6124 16.6094 16.0029 16.9999C16.3935 17.3905 17.0266 17.3905 17.4172 16.9999L21.71 12.707C22.1006 12.3165 22.1006 11.6833 21.71 11.2928L17.4172 6.99993C17.0266 6.6094 16.3935 6.6094 16.0029 6.99993C15.9541 7.04874 15.9114 7.10135 15.8748 7.1568C15.6185 7.54495 15.6612 8.07243 16.0029 8.41414Z" fill="currentColor"/>
</svg>
