<svg width="24" height="24" viewBox="0 0 24 24" fill="none" xmlns="http://www.w3.org/2000/svg">
<path d="M11.2946 5.63574C11.2946 6.18803 11.7423 6.63575 12.2946 6.63575H15.9514L4.93059 17.6566C4.92754 17.6596 4.92451 17.6627 4.92151 17.6658C4.54009 18.057 4.54312 18.6833 4.93059 19.0708C5.32111 19.4613 5.95428 19.4613 6.3448 19.0708L17.3656 8.04995V11.7068C17.3656 12.2591 17.8133 12.7068 18.3656 12.7068C18.9179 12.7068 19.3656 12.2591 19.3656 11.7068V5.63574C19.3656 5.08346 18.9179 4.63574 18.3656 4.63574H12.2946C11.7423 4.63574 11.2946 5.08346 11.2946 5.63574Z" fill="currentColor"/>
</svg>
