<svg width="24" height="24" viewBox="0 0 24 24" fill="none" xmlns="http://www.w3.org/2000/svg">
<path fill-rule="evenodd" clip-rule="evenodd" d="M13.0606 5.93936C12.4749 6.52515 12.4749 7.4749 13.0606 8.06068L15.9393 10.9394C16.5251 11.5252 17.4749 11.5252 18.0607 10.9394L20.9393 8.06068C21.5251 7.4749 21.5251 6.52515 20.9393 5.93936L18.0607 3.06068C17.4749 2.47489 16.5251 2.47489 15.9393 3.06068L13.0606 5.93936ZM14.8284 7.00002L17 9.1716L19.1716 7.00002L17 4.82844L14.8284 7.00002Z" fill="currentColor"/>
<path fill-rule="evenodd" clip-rule="evenodd" d="M3 5.00002C3 3.89545 3.89543 3.00002 5 3.00002H9C10.1046 3.00002 11 3.89545 11 5.00002V9.00002C11 10.1046 10.1046 11 9 11H5C3.89543 11 3 10.1046 3 9.00002V5.00002ZM5 5.00002H9V9.00002H5V5.00002Z" fill="currentColor"/>
<path fill-rule="evenodd" clip-rule="evenodd" d="M5 13C3.89543 13 3 13.8955 3 15V19C3 20.1046 3.89543 21 5 21H9C10.1046 21 11 20.1046 11 19V15C11 13.8955 10.1046 13 9 13H5ZM5 15H9V19H5V15Z" fill="currentColor"/>
<path fill-rule="evenodd" clip-rule="evenodd" d="M15 13C13.8954 13 13 13.8955 13 15V19C13 20.1046 13.8954 21 15 21H19C20.1046 21 21 20.1046 21 19V15C21 13.8955 20.1046 13 19 13H15ZM15 15H19V19H15V15Z" fill="currentColor"/>
</svg>
